<svg width="197" height="66" viewBox="0 0 197 66" fill="none" xmlns="http://www.w3.org/2000/svg">
<g clip-path="url(#clip0_139_636)">
<path d="M29.652 12.0862C28.0251 10.4126 26.2922 9.17631 24.449 8.3772C22.6057 7.57809 20.5704 7.17644 18.3409 7.17644C16.544 7.17644 14.7912 7.52161 13.0804 8.21194C11.3696 8.90227 9.88621 9.86246 8.63236 11.0946C7.33215 12.3707 6.35645 13.7994 5.70524 15.3767C5.05403 16.9541 4.72953 18.6966 4.72953 20.6044C4.72953 22.1023 4.92379 23.4808 5.3101 24.7423C5.69641 26.0037 6.27698 27.1626 7.0518 28.2211C8.41382 30.0557 10.0915 31.4678 12.0804 32.4593C14.0694 33.4509 16.2195 33.9446 18.5263 33.9446C20.694 33.9446 22.7073 33.5199 24.566 32.6685C26.4247 31.8171 28.12 30.5473 29.652 28.8612V33.9467C27.9633 35.1056 26.1487 35.9821 24.2039 36.5783C22.2613 37.1724 20.2503 37.4695 18.1753 37.4695C16.3784 37.4695 14.6301 37.2164 12.9259 36.7101C11.2217 36.2039 9.62793 35.4675 8.14009 34.4969C5.6633 32.8673 3.76928 30.8653 2.46024 28.4868C1.15341 26.1083 0.5 23.4955 0.5 20.6484C0.5 18.1695 0.937081 15.9123 1.81345 13.8789C2.68761 11.8456 4.02314 10.0005 5.82003 8.34373C7.55511 6.75806 9.47562 5.57403 11.5816 4.78957C13.6875 4.0051 15.9877 3.61182 18.4799 3.61182C20.4468 3.61182 22.3519 3.89423 24.1951 4.45904C26.0383 5.02386 27.8573 5.90037 29.6542 7.08858V12.0862H29.652Z" fill="#BB573E"/>
<path d="M72.8767 18.7111C75.0908 19.6065 76.7597 20.7947 77.8833 22.2778C79.0047 23.761 79.5676 25.514 79.5676 27.539C79.5676 30.5033 78.572 32.8922 76.5831 34.7038C74.5919 36.5175 71.9562 37.4233 68.6737 37.4233C65.9938 37.4233 63.7488 36.7748 61.9364 35.4757C60.1241 34.1767 58.9011 32.3316 58.2654 29.9405L61.9364 28.2231C62.4309 30.1748 63.2499 31.6538 64.3867 32.6579C65.5258 33.662 66.954 34.1662 68.6714 34.1662C70.7001 34.1662 72.3425 33.6118 73.5963 32.5052C74.8502 31.3965 75.4771 29.9552 75.4771 28.1791C75.4771 26.742 75.04 25.491 74.1637 24.4262C73.2895 23.3615 71.9694 22.464 70.2034 21.7298L66.0688 20.0562C63.8084 19.1609 62.1241 18.0082 61.0159 16.6004C59.9078 15.1925 59.3559 13.5043 59.3559 11.5379C59.3559 9.24939 60.2543 7.35621 62.0512 5.85839C63.8481 4.36058 66.1395 3.61377 68.9275 3.61377C70.9716 3.61377 72.7398 4.02379 74.2343 4.84591C75.7288 5.66803 76.8943 6.87925 77.7309 8.47747L74.3866 10.5024C73.6272 9.25567 72.7752 8.32686 71.8304 7.71811C70.8856 7.10936 69.8171 6.80394 68.6251 6.80394C67.1063 6.80394 65.8635 7.24324 64.8967 8.12394C63.9298 9.00464 63.4441 10.128 63.4441 11.4919C63.4441 12.6362 63.815 13.6278 64.5589 14.4645C65.3028 15.3013 66.4551 16.0418 68.0202 16.6882L72.8745 18.7132L72.8767 18.7111Z" fill="#BB573E"/>
<path d="M109.587 12.086C107.962 10.4125 106.227 9.17617 104.384 8.37706C102.541 7.57795 100.505 7.1763 98.2737 7.1763C96.4768 7.1763 94.7241 7.52147 93.0133 8.2118C91.3025 8.90213 89.8191 9.86232 88.5652 11.0945C87.265 12.3705 86.2893 13.7993 85.6381 15.3766C84.9869 16.9539 84.6624 18.6965 84.6624 20.6043C84.6624 22.1021 84.8567 23.4807 85.243 24.7421C85.6293 26.0035 86.2098 27.1625 86.9847 28.221C88.3467 30.0556 90.0244 31.4676 92.0133 32.4592C94.0045 33.4508 96.1523 33.9445 98.4591 33.9445C100.627 33.9445 102.64 33.5198 104.499 32.6684C106.358 31.817 108.053 30.5472 109.585 28.8611V33.9465C107.896 35.1055 106.082 35.982 104.137 36.5782C102.194 37.1723 100.183 37.4693 98.1104 37.4693C96.3135 37.4693 94.5629 37.2162 92.861 36.71C91.1568 36.2037 89.563 35.4674 88.0752 34.4967C85.5984 32.8671 83.7043 30.8652 82.3953 28.4866C81.0863 26.1102 80.4329 23.4974 80.4329 20.6503C80.4329 18.1714 80.8699 15.9142 81.7463 13.8809C82.6205 11.8475 83.956 10.0025 85.7529 8.34568C87.488 6.76001 89.4085 5.57599 91.5144 4.79152C93.6203 4.00705 95.9205 3.61377 98.4128 3.61377C100.38 3.61377 102.285 3.89618 104.128 4.461C105.971 5.02581 107.79 5.90233 109.587 7.09053V12.0881V12.086Z" fill="#BB573E"/>
<path d="M147.275 32.9971H149.854C154.035 32.9971 156.931 32.8256 158.542 32.4804C160.152 32.1353 161.492 31.5454 162.56 30.7086C163.953 29.6082 165.015 28.1878 165.741 26.4495C166.469 24.7111 166.834 22.7175 166.834 20.4728C166.834 18.2282 166.474 16.2284 165.754 14.5193C165.035 12.8102 163.971 11.3981 162.56 10.281C161.492 9.42963 160.132 8.82506 158.483 8.46525C156.834 8.10545 153.957 7.92554 149.854 7.92554H147.275V32.9971ZM143.187 36.6078V4.38184H149.715C154.547 4.38184 157.949 4.61195 159.924 5.07426C161.9 5.53657 163.631 6.31058 165.116 7.39629C167.068 8.81879 168.547 10.6408 169.553 12.8562C170.56 15.0715 171.063 17.6258 171.063 20.5168C171.063 23.4078 170.564 25.9348 169.564 28.1439C168.564 30.353 167.083 32.1688 165.116 33.5913C163.631 34.677 161.937 35.451 160.041 35.9133C158.145 36.3756 155.189 36.6078 151.178 36.6078H143.187Z" fill="#BB573E"/>
<path d="M173.717 36.6078V4.38184H194.12V7.88161H177.759V18.4918H194.12V22.0564H177.759V33.0432H194.12V36.6078H173.717Z" fill="#BB573E"/>
<path d="M44.5547 3.14746L58.9342 36.6286H54.5435L44.5547 11.9753L34.6122 36.6286H30.2458L44.5547 3.14746Z" fill="#BB573E"/>
<path d="M10.4977 55.5627H11.2747C12.9435 55.5627 14.5903 55.5627 14.5903 53.5126C14.5903 51.4626 13.0628 51.3747 11.2747 51.3747H10.4977V55.5627ZM5.88844 47.854H12.9413C16.7492 47.854 19.3828 49.5254 19.3828 53.3788C19.3828 57.2321 17.1245 59.0834 13.1047 59.0834H10.4955V64.6542H5.88623V47.854H5.88844Z" fill="#BB573E"/>
<path d="M37.3097 47.833V57.2801C37.3097 59.441 37.2148 61.5811 35.4533 63.2065C33.972 64.5893 31.6454 65.0788 29.5747 65.0788C27.5041 65.0788 25.1774 64.5893 23.6962 63.2065C21.9324 61.5811 21.8397 59.441 21.8397 57.2801V47.833H26.4489V56.6776C26.4489 58.8616 26.6145 61.2443 29.5769 61.2443C32.5394 61.2443 32.7027 58.8595 32.7027 56.6776V47.833H37.312H37.3097Z" fill="#BB573E"/>
<path d="M45.3803 61.3113H45.9675C47.3317 61.3113 49.6363 61.3782 49.6363 59.529C49.6363 57.5019 47.356 57.7027 45.8505 57.7027H45.3803V61.3113ZM45.3803 54.4498H45.8968C47.1198 54.4498 48.3891 54.249 48.3891 52.8244C48.3891 51.2868 46.9542 51.1969 45.7092 51.1969H45.3803V54.4498ZM40.7711 64.6542V47.854H47.3538C50.5038 47.854 52.6208 49.0129 52.6208 52.2219C52.6208 53.7365 52.1043 54.9623 50.6694 55.6527V55.6966C53.208 56.0083 54.2897 57.6358 54.2897 59.9746C54.2897 63.4953 51.1153 64.6542 47.8703 64.6542H40.7689H40.7711Z" fill="#BB573E"/>
<path d="M61.5876 60.9557H69.2564V64.6542H56.9806V47.854H61.5876V60.9557Z" fill="#BB573E"/>
<path d="M76.87 64.6542H72.263V47.854H76.87V64.6542Z" fill="#BB573E"/>
<path d="M93.457 53.4704C92.5166 52.2675 90.989 51.6211 89.4129 51.6211C86.5917 51.6211 84.6867 53.6712 84.6867 56.2777C84.6867 58.8842 86.6138 60.8444 89.4835 60.8444C90.989 60.8444 92.4923 60.154 93.457 59.062V64.2981C91.9294 64.7437 90.8235 65.0784 89.3886 65.0784C86.9207 65.0784 84.5697 64.1872 82.7353 62.6058C80.7839 60.9343 79.8898 58.7524 79.8898 56.2568C79.8898 53.962 80.8059 51.7571 82.4991 50.1066C84.2386 48.4121 86.7551 47.3892 89.2473 47.3892C90.7286 47.3892 92.0928 47.7009 93.4548 48.2364V53.4725L93.457 53.4704Z" fill="#BB573E"/>
<path d="M116.282 47.854H120.819L124.417 56.8325L128.227 47.854H132.81L135.492 64.6542H130.883L129.589 54.9832H129.543L125.287 64.6542H123.454L119.386 54.9832H119.34L117.859 64.6542H113.274L116.282 47.854Z" fill="#BB573E"/>
<path d="M143.282 51.5525V54.3599H148.478V58.0584H143.282V60.9557H148.761V64.6542H138.675V47.854H148.761V51.5525H143.282Z" fill="#BB573E"/>
<path d="M157.425 60.9553H158.461C161.211 60.9553 163.562 59.5286 163.562 56.2548C163.562 53.2466 161.469 51.5543 158.507 51.5543H157.425V60.9574V60.9553ZM152.816 47.8537H159.353C164.291 47.8537 168.357 51.5292 168.357 56.2527C168.357 60.9762 164.266 64.6517 159.353 64.6517H152.816V47.8516V47.8537Z" fill="#BB573E"/>
<path d="M175.803 64.6542H171.196V47.854H175.803V64.6542Z" fill="#BB573E"/>
<path d="M187.306 53.046H187.259L185.354 58.3929H189.187L187.306 53.046ZM184.085 61.7358L182.862 64.6561H177.973L184.791 47.856H189.822L196.5 64.6561H191.586L190.434 61.7358H184.085Z" fill="#BB573E"/>
<path d="M103.728 64.61L125.278 9.69515L136.158 36.5533H140.942L125.278 0.0786133L99.1125 64.61H103.728Z" fill="#BB573E"/>
</g>
<defs>
<clipPath id="clip0_139_636">
<rect width="196" height="65" fill="white" transform="translate(0.5 0.0786133)"/>
</clipPath>
</defs>
</svg>
