<svg width="30" height="25" viewBox="0 0 30 25" fill="none" xmlns="http://www.w3.org/2000/svg">
<path d="M23.8787 7.49664C22.5271 15.0057 15.018 21.4634 12.7653 22.9652C10.5126 24.467 8.4101 22.3645 7.6592 20.8627C6.9083 18.9104 4.35523 9.44899 3.60433 8.5479C3.00361 7.797 0.901082 9.44899 0.901082 9.44899L0 8.09736C0 8.09736 4.05487 3.14141 7.20866 2.54069C10.5126 1.93997 10.5126 7.64682 11.2635 10.8006C12.0144 13.8042 12.6152 15.6064 13.2159 15.6064C13.8166 15.6064 15.1682 13.9544 16.5198 11.2512C17.8715 8.69809 16.5198 6.2952 13.6664 7.94718C14.8679 1.48943 25.2303 -0.162557 23.8787 7.49664Z" fill="white"/>
</svg>
