<svg width="30" height="31" viewBox="0 0 30 31" fill="none" xmlns="http://www.w3.org/2000/svg">
<g clip-path="url(#clip0_53_2537)">
<path d="M15 0.398926C10.925 0.398926 10.4163 0.417676 8.81625 0.488926C7.21875 0.563926 6.13125 0.815176 5.175 1.18643C4.18875 1.56893 3.35125 2.08268 2.5175 2.91643C1.68375 3.75018 1.16875 4.58643 0.7875 5.57393C0.41625 6.53018 0.16375 7.61768 0.09 9.21518C0.015 10.8152 0 11.3239 0 15.3989C0 19.4739 0.01875 19.9827 0.09 21.5827C0.165 23.1789 0.41625 24.2677 0.7875 25.2239C1.17 26.2089 1.68375 27.0477 2.5175 27.8814C3.35125 28.7139 4.1875 29.2302 5.175 29.6114C6.1325 29.9814 7.22 30.2352 8.81625 30.3089C10.4163 30.3839 10.925 30.3989 15 30.3989C19.075 30.3989 19.5837 30.3802 21.1838 30.3089C22.78 30.2339 23.8688 29.9814 24.825 29.6114C25.81 29.2289 26.6488 28.7139 27.4825 27.8814C28.315 27.0477 28.8313 26.2127 29.2125 25.2239C29.5825 24.2677 29.8363 23.1789 29.91 21.5827C29.985 19.9827 30 19.4739 30 15.3989C30 11.3239 29.9812 10.8152 29.91 9.21518C29.835 7.61893 29.5825 6.52893 29.2125 5.57393C28.83 4.58768 28.315 3.75018 27.4825 2.91643C26.6488 2.08268 25.8138 1.56768 24.825 1.18643C23.8688 0.815176 22.78 0.562676 21.1838 0.488926C19.5837 0.413926 19.075 0.398926 15 0.398926ZM15 3.09893C19.0037 3.09893 19.4813 3.11893 21.0625 3.18768C22.525 3.25643 23.3188 3.49893 23.8462 3.70643C24.5487 3.97768 25.0462 4.30268 25.5737 4.82643C26.0975 5.35143 26.4225 5.85018 26.6937 6.55268C26.8988 7.08018 27.1437 7.87393 27.21 9.33643C27.2812 10.9189 27.2975 11.3939 27.2975 15.3989C27.2975 19.4039 27.2787 19.8802 27.205 21.4614C27.1287 22.9239 26.885 23.7177 26.6788 24.2452C26.3988 24.9477 26.08 25.4452 25.555 25.9727C25.0312 26.4964 24.525 26.8214 23.83 27.0927C23.305 27.2977 22.4988 27.5427 21.0363 27.6089C19.4438 27.6802 18.975 27.6964 14.9625 27.6964C10.9488 27.6964 10.48 27.6777 8.88875 27.6039C7.425 27.5277 6.61875 27.2839 6.09375 27.0777C5.3825 26.7977 4.89375 26.4789 4.37 25.9539C3.84375 25.4302 3.5075 24.9239 3.245 24.2289C3.03875 23.7039 2.79625 22.8977 2.72 21.4352C2.66375 19.8602 2.64375 19.3739 2.64375 15.3802C2.64375 11.3852 2.66375 10.8977 2.72 9.30393C2.79625 7.84143 3.03875 7.03643 3.245 6.51143C3.5075 5.79893 3.84375 5.31143 4.37 4.78518C4.89375 4.26143 5.3825 3.92393 6.09375 3.66268C6.61875 3.45518 7.4075 3.21143 8.87 3.13643C10.4637 3.08018 10.9325 3.06143 14.9438 3.06143L15 3.09893ZM15 7.69643C10.7437 7.69643 7.2975 11.1464 7.2975 15.3989C7.2975 19.6552 10.7475 23.1014 15 23.1014C19.2563 23.1014 22.7025 19.6514 22.7025 15.3989C22.7025 11.1427 19.2525 7.69643 15 7.69643ZM15 20.3989C12.2375 20.3989 10 18.1614 10 15.3989C10 12.6364 12.2375 10.3989 15 10.3989C17.7625 10.3989 20 12.6364 20 15.3989C20 18.1614 17.7625 20.3989 15 20.3989ZM24.8075 7.39268C24.8075 8.38643 24 9.19268 23.0075 9.19268C22.0138 9.19268 21.2075 8.38518 21.2075 7.39268C21.2075 6.40018 22.015 5.59393 23.0075 5.59393C23.9988 5.59268 24.8075 6.40018 24.8075 7.39268Z" fill="#F4F4F4"/>
</g>
<defs>
<clipPath id="clip0_53_2537">
<rect width="30" height="30" fill="white" transform="translate(0 0.398926)"/>
</clipPath>
</defs>
</svg>
