<svg width="97" height="18" viewBox="0 0 97 18" fill="none" xmlns="http://www.w3.org/2000/svg">
<g clip-path="url(#clip0_113_1312)">
<path d="M15.7389 17.5885C15.6177 17.5885 15.51 17.5485 15.4427 17.4685L0.834042 1.3685C0.726329 1.2485 0.766721 1.0785 0.928291 0.988497C1.08986 0.908497 1.31875 0.938497 1.43993 1.0585L16.0351 17.1585C16.1428 17.2785 16.1024 17.4485 15.9408 17.5385C15.8735 17.5685 15.8062 17.5885 15.7389 17.5885Z" fill="white"/>
<path d="M15.7389 17.5885C15.6177 17.5885 15.51 17.5485 15.4427 17.4685L0.834042 1.3685C0.726329 1.2485 0.766721 1.0785 0.928291 0.988497C1.08986 0.908497 1.31875 0.938497 1.43993 1.0585L16.0351 17.1585C16.1428 17.2785 16.1024 17.4485 15.9408 17.5385C15.8735 17.5685 15.8062 17.5885 15.7389 17.5885Z" fill="white"/>
<path d="M1.06293 17.5485C0.995613 17.5485 0.914826 17.5285 0.860969 17.4985C0.699399 17.4185 0.659007 17.2485 0.76672 17.1185L15.51 1.09854C15.6177 0.978537 15.8466 0.938537 16.0216 1.02854C16.1832 1.10854 16.2236 1.27854 16.1159 1.40854L1.38608 17.4385C1.31876 17.5185 1.19758 17.5585 1.08987 17.5585L1.06293 17.5485Z" fill="white"/>
<path d="M36.6487 7.36862C36.6487 7.36862 36.5814 7.36862 36.5545 7.36862C31.7747 7.33862 27.6277 4.78862 26.6987 1.30862C26.6583 1.15862 26.7929 1.01862 26.9814 0.988619C27.1834 0.958619 27.3719 1.05862 27.4123 1.19862C28.274 4.42862 32.1248 6.78862 36.5545 6.81862C41.0919 6.85862 45.0234 4.46862 45.8851 1.15862C45.9255 1.00862 46.114 0.918619 46.316 0.948619C46.518 0.978619 46.6391 1.11862 46.5987 1.26862C45.6697 4.80862 41.4958 7.35862 36.6352 7.35862L36.6487 7.36862Z" fill="#BB573E"/>
<path d="M36.6487 17.5787C36.4467 17.5787 36.2852 17.4587 36.2852 17.3087V2.19871C36.2852 2.04871 36.4467 1.92871 36.6487 1.92871C36.8507 1.92871 37.0122 2.04871 37.0122 2.19871V17.3087C37.0122 17.4587 36.8507 17.5787 36.6487 17.5787Z" fill="#BB573E"/>
<path d="M71.5478 17.5885C71.4267 17.5885 71.3189 17.5485 71.2516 17.4685L56.643 1.3685C56.5353 1.2485 56.5757 1.0785 56.7372 0.988497C56.8988 0.908497 57.1277 0.938497 57.2489 1.0585L71.844 17.1585C71.9518 17.2785 71.9114 17.4485 71.7498 17.5385C71.6825 17.5685 71.6152 17.5885 71.5478 17.5885Z" fill="white"/>
<path d="M71.5478 17.5885C71.4267 17.5885 71.3189 17.5485 71.2516 17.4685L56.643 1.3685C56.5353 1.2485 56.5757 1.0785 56.7372 0.988497C56.8988 0.908497 57.1277 0.938497 57.2489 1.0585L71.844 17.1585C71.9518 17.2785 71.9114 17.4485 71.7498 17.5385C71.6825 17.5685 71.6152 17.5885 71.5478 17.5885Z" fill="white"/>
<path d="M56.8719 17.5485C56.8046 17.5485 56.7238 17.5285 56.6699 17.4985C56.5084 17.4185 56.468 17.2485 56.5757 17.1185L71.3189 1.09854C71.4267 0.978537 71.6556 0.938537 71.8306 1.02854C71.9922 1.10854 72.0325 1.27854 71.9248 1.40854L57.195 17.4385C57.1277 17.5185 57.0065 17.5585 56.8988 17.5585L56.8719 17.5485Z" fill="white"/>
<path d="M85.7391 17.1487C85.5371 17.1487 85.3755 17.0287 85.3755 16.8787V1.65867C85.3755 1.50867 85.5371 1.38867 85.7391 1.38867C85.9411 1.38867 86.1026 1.50867 86.1026 1.65867V16.8787C86.1026 17.0287 85.9411 17.1487 85.7391 17.1487Z" fill="#BB573E"/>
<path d="M90.0207 17.1487C89.8187 17.1487 89.6571 17.0287 89.6571 16.8787V1.65867C89.6571 1.50867 89.8187 1.38867 90.0207 1.38867H96.0661C96.2681 1.38867 96.4296 1.50867 96.4296 1.65867C96.4296 1.80867 96.2681 1.92867 96.0661 1.92867H90.3842V16.8787C90.3842 17.0287 90.2226 17.1487 90.0207 17.1487Z" fill="#BB573E"/>
</g>
<defs>
<clipPath id="clip0_113_1312">
<rect width="95.723" height="16.6456" fill="white" transform="translate(0.706604 0.942871)"/>
</clipPath>
</defs>
</svg>
