<svg width="97" height="18" viewBox="0 0 97 18" fill="none" xmlns="http://www.w3.org/2000/svg">
<g clip-path="url(#clip0_113_1436)">
<path d="M15.4004 17.5885C15.2792 17.5885 15.1715 17.5485 15.1042 17.4685L0.509027 1.3685C0.401313 1.2485 0.441716 1.0785 0.603286 0.988497C0.764856 0.908497 0.993733 0.938497 1.11491 1.0585L15.7101 17.1585C15.8178 17.2785 15.7774 17.4485 15.6158 17.5385C15.5485 17.5685 15.4812 17.5885 15.4139 17.5885H15.4004Z" fill="white"/>
<path d="M15.4004 17.5885C15.2792 17.5885 15.1715 17.5485 15.1042 17.4685L0.509027 1.3685C0.401313 1.2485 0.441716 1.0785 0.603286 0.988497C0.764856 0.908497 0.993733 0.938497 1.11491 1.0585L15.7101 17.1585C15.8178 17.2785 15.7774 17.4485 15.6158 17.5385C15.5485 17.5685 15.4812 17.5885 15.4139 17.5885H15.4004Z" fill="white"/>
<path d="M0.737918 17.5485C0.670598 17.5485 0.589821 17.5285 0.535964 17.4985C0.374394 17.4185 0.333992 17.2485 0.441705 17.1185L15.1715 1.09854C15.2792 0.978537 15.5081 0.938537 15.6832 1.02854C15.8447 1.10854 15.8851 1.27854 15.7774 1.40854L1.04759 17.4385C0.980268 17.5185 0.859088 17.5585 0.751375 17.5585L0.737918 17.5485Z" fill="white"/>
<path d="M36.3102 7.36862C36.3102 7.36862 36.2429 7.36862 36.216 7.36862C31.4362 7.33862 27.2892 4.78862 26.3602 1.30862C26.3198 1.15862 26.4545 1.01862 26.643 0.988619C26.8449 0.958619 27.0334 1.05862 27.0738 1.19862C27.9355 4.42862 31.7863 6.78862 36.216 6.81862C40.7534 6.85862 44.6849 4.46862 45.5467 1.15862C45.587 1.00862 45.7756 0.918619 45.9775 0.948619C46.1795 0.978619 46.3006 1.11862 46.2603 1.26862C45.3312 4.80862 41.1573 7.35862 36.2968 7.35862L36.3102 7.36862Z" fill="#BB573E"/>
<path d="M36.3237 17.5787C36.1218 17.5787 35.9602 17.4587 35.9602 17.3087V2.19871C35.9602 2.04871 36.1218 1.92871 36.3237 1.92871C36.5257 1.92871 36.6872 2.04871 36.6872 2.19871V17.3087C36.6872 17.4587 36.5257 17.5787 36.3237 17.5787Z" fill="#BB573E"/>
<path d="M71.2094 17.5885C71.0882 17.5885 70.9805 17.5485 70.9132 17.4685L56.318 1.3685C56.2103 1.2485 56.2507 1.0785 56.4122 0.988497C56.5738 0.908497 56.8027 0.938497 56.9239 1.0585L71.519 17.1585C71.6268 17.2785 71.5864 17.4485 71.4248 17.5385C71.3575 17.5685 71.2902 17.5885 71.2228 17.5885H71.2094Z" fill="white"/>
<path d="M71.2094 17.5885C71.0882 17.5885 70.9805 17.5485 70.9132 17.4685L56.318 1.3685C56.2103 1.2485 56.2507 1.0785 56.4122 0.988497C56.5738 0.908497 56.8027 0.938497 56.9239 1.0585L71.519 17.1585C71.6268 17.2785 71.5864 17.4485 71.4248 17.5385C71.3575 17.5685 71.2902 17.5885 71.2228 17.5885H71.2094Z" fill="white"/>
<path d="M56.5469 17.5485C56.4796 17.5485 56.3988 17.5285 56.3449 17.4985C56.1834 17.4185 56.143 17.2485 56.2507 17.1185L70.9805 1.09854C71.0882 0.978537 71.3171 0.938537 71.4921 1.02854C71.6537 1.10854 71.6941 1.27854 71.5864 1.40854L56.8566 17.4385C56.7892 17.5185 56.6681 17.5585 56.5604 17.5585L56.5469 17.5485Z" fill="white"/>
<path d="M85.4006 17.1487C85.1986 17.1487 85.037 17.0287 85.037 16.8787V1.65867C85.037 1.50867 85.1986 1.38867 85.4006 1.38867C85.6025 1.38867 85.7641 1.50867 85.7641 1.65867V16.8787C85.7641 17.0287 85.6025 17.1487 85.4006 17.1487Z" fill="#BB573E"/>
<path d="M89.6822 17.1487C89.4803 17.1487 89.3187 17.0287 89.3187 16.8787V1.65867C89.3187 1.50867 89.4803 1.38867 89.6822 1.38867H95.7276C95.9296 1.38867 96.0911 1.50867 96.0911 1.65867C96.0911 1.80867 95.9296 1.92867 95.7276 1.92867H90.0457V16.8787C90.0457 17.0287 89.8842 17.1487 89.6822 17.1487Z" fill="#BB573E"/>
</g>
<defs>
<clipPath id="clip0_113_1436">
<rect width="95.7095" height="16.6456" fill="white" transform="translate(0.381592 0.942871)"/>
</clipPath>
</defs>
</svg>
