<svg width="30" height="31" viewBox="0 0 30 31" fill="none" xmlns="http://www.w3.org/2000/svg">
<path d="M29.9412 6.11141C28.8181 6.60592 27.6283 6.93234 26.41 7.08016C27.6926 6.30923 28.653 5.10022 29.1138 3.67641C27.925 4.37016 26.6075 4.87516 25.205 5.15641C24.2797 4.16695 23.0536 3.51069 21.7171 3.28954C20.3805 3.06839 19.0084 3.29473 17.8137 3.9334C16.619 4.57208 15.6686 5.58735 15.1101 6.82157C14.5516 8.05578 14.4162 9.43988 14.725 10.7589C9.6125 10.5177 5.08375 8.06141 2.05 4.35141C1.49849 5.28868 1.21083 6.3577 1.2175 7.44516C1.2175 9.58266 2.305 11.4614 3.9525 12.5652C2.97607 12.5341 2.02121 12.2701 1.1675 11.7952V11.8702C1.16695 13.2907 1.65784 14.6676 2.55688 15.7674C3.45593 16.8671 4.70777 17.622 6.1 17.9039C5.19787 18.1456 4.25302 18.1819 3.335 18.0102C3.73015 19.2327 4.49708 20.3013 5.52877 21.067C6.56046 21.8327 7.80544 22.2573 9.09 22.2814C6.91441 23.9888 4.2281 24.9155 1.4625 24.9127C0.975 24.9127 0.48875 24.8839 0 24.8289C2.81964 26.6343 6.09814 27.5927 9.44625 27.5902C20.7625 27.5902 26.9438 18.2202 26.9438 10.1089C26.9438 9.84641 26.9438 9.58391 26.925 9.32141C28.1325 8.45249 29.174 7.37369 30 6.13641L29.9412 6.11141Z" fill="#F4F4F4"/>
</svg>
