<svg width="96" height="18" viewBox="0 0 96 18" fill="none" xmlns="http://www.w3.org/2000/svg">
<g clip-path="url(#clip0_113_1560)">
<path d="M15.1133 17.5885C14.9922 17.5885 14.8844 17.5485 14.8171 17.4685L0.20849 1.3685C0.100776 1.2485 0.141179 1.0785 0.302749 0.988497C0.464319 0.908497 0.693216 0.938497 0.814394 1.0585L15.4095 17.1585C15.5173 17.2785 15.4769 17.4485 15.3153 17.5385C15.248 17.5685 15.1807 17.5885 15.1133 17.5885Z" fill="white"/>
<path d="M15.1133 17.5885C14.9922 17.5885 14.8844 17.5485 14.8171 17.4685L0.20849 1.3685C0.100776 1.2485 0.141179 1.0785 0.302749 0.988497C0.464319 0.908497 0.693216 0.938497 0.814394 1.0585L15.4095 17.1585C15.5173 17.2785 15.4769 17.4485 15.3153 17.5385C15.248 17.5685 15.1807 17.5885 15.1133 17.5885Z" fill="white"/>
<path d="M0.437394 17.5485C0.370073 17.5485 0.289256 17.5285 0.235399 17.4985C0.0738289 17.4185 0.0334677 17.2485 0.141181 17.1185L14.8709 1.09854C14.9787 0.978537 15.2076 0.938537 15.3826 1.02854C15.5442 1.10854 15.5846 1.27854 15.4768 1.40854L0.747044 17.4385C0.679723 17.5185 0.558544 17.5585 0.450831 17.5585L0.437394 17.5485Z" fill="white"/>
<path d="M36.0231 7.36862C36.0231 7.36862 35.9558 7.36862 35.9289 7.36862C31.1491 7.33862 27.0021 4.78862 26.0731 1.30862C26.0327 1.15862 26.1674 1.01862 26.3559 0.988619C26.5578 0.958619 26.7463 1.05862 26.7867 1.19862C27.6484 4.42862 31.4992 6.78862 35.9289 6.81862C40.4663 6.85862 44.3978 4.46862 45.2595 1.15862C45.2999 1.00862 45.4884 0.918619 45.6904 0.948619C45.8924 0.978619 46.0135 1.11862 45.9731 1.26862C45.0441 4.80862 40.8702 7.35862 36.0097 7.35862L36.0231 7.36862Z" fill="#BB573E"/>
<path d="M36.0232 17.5787C35.8212 17.5787 35.6596 17.4587 35.6596 17.3087V2.19871C35.6596 2.04871 35.8212 1.92871 36.0232 1.92871C36.2251 1.92871 36.3867 2.04871 36.3867 2.19871V17.3087C36.3867 17.4587 36.2251 17.5787 36.0232 17.5787Z" fill="#BB573E"/>
<path d="M70.9223 17.5885C70.8011 17.5885 70.6934 17.5485 70.6261 17.4685L56.0175 1.3685C55.9097 1.2485 55.9501 1.0785 56.1117 0.988497C56.2733 0.908497 56.5021 0.938497 56.6233 1.0585L71.2185 17.1585C71.3262 17.2785 71.2858 17.4485 71.1243 17.5385C71.0569 17.5685 70.9896 17.5885 70.9223 17.5885Z" fill="white"/>
<path d="M70.9223 17.5885C70.8011 17.5885 70.6934 17.5485 70.6261 17.4685L56.0175 1.3685C55.9097 1.2485 55.9501 1.0785 56.1117 0.988497C56.2733 0.908497 56.5021 0.938497 56.6233 1.0585L71.2185 17.1585C71.3262 17.2785 71.2858 17.4485 71.1243 17.5385C71.0569 17.5685 70.9896 17.5885 70.9223 17.5885Z" fill="white"/>
<path d="M56.2463 17.5485C56.179 17.5485 56.0982 17.5285 56.0444 17.4985C55.8828 17.4185 55.8424 17.2485 55.9501 17.1185L70.6799 1.09854C70.7876 0.978537 71.0165 0.938537 71.1916 1.02854C71.3531 1.10854 71.3935 1.27854 71.2858 1.40854L56.556 17.4385C56.4887 17.5185 56.3675 17.5585 56.2598 17.5585L56.2463 17.5485Z" fill="white"/>
<path d="M85.1135 17.1487C84.9116 17.1487 84.75 17.0287 84.75 16.8787V1.65867C84.75 1.50867 84.9116 1.38867 85.1135 1.38867C85.3155 1.38867 85.477 1.50867 85.477 1.65867V16.8787C85.477 17.0287 85.3155 17.1487 85.1135 17.1487Z" fill="#BB573E"/>
<path d="M89.3817 17.1487C89.1797 17.1487 89.0181 17.0287 89.0181 16.8787V1.65867C89.0181 1.50867 89.1797 1.38867 89.3817 1.38867H95.4271C95.629 1.38867 95.7906 1.50867 95.7906 1.65867C95.7906 1.80867 95.629 1.92867 95.4271 1.92867H89.7452V16.8787C89.7452 17.0287 89.5836 17.1487 89.3817 17.1487Z" fill="#BB573E"/>
</g>
<defs>
<clipPath id="clip0_113_1560">
<rect width="95.7095" height="16.6456" fill="white" transform="translate(0.0810547 0.942871)"/>
</clipPath>
</defs>
</svg>
