<svg width="96" height="18" viewBox="0 0 96 18" fill="none" xmlns="http://www.w3.org/2000/svg">
<g clip-path="url(#clip0_113_1188)">
<path d="M15.026 17.5888C14.9048 17.5888 14.7971 17.5488 14.7298 17.4688L0.134638 1.36875C0.0134603 1.24875 0.067317 1.07875 0.228887 0.998751C0.390457 0.908751 0.619348 0.948751 0.740525 1.06875L15.3357 17.1688C15.4434 17.2888 15.403 17.4588 15.2414 17.5488C15.1741 17.5788 15.1068 17.5988 15.0395 17.5988L15.026 17.5888Z" fill="white"/>
<path d="M15.026 17.5888C14.9048 17.5888 14.7971 17.5488 14.7298 17.4688L0.134638 1.36875C0.0134603 1.24875 0.067317 1.07875 0.228887 0.998751C0.390457 0.908751 0.619348 0.948751 0.740525 1.06875L15.3357 17.1688C15.4434 17.2888 15.403 17.4588 15.2414 17.5488C15.1741 17.5788 15.1068 17.5988 15.0395 17.5988L15.026 17.5888Z" fill="white"/>
<path d="M0.36353 17.5485C0.296209 17.5485 0.215424 17.5285 0.161568 17.4985C-2.32613e-06 17.4185 -0.0403948 17.2485 0.0673185 17.1185L14.7971 1.09854C14.9048 0.978537 15.1337 0.938537 15.3088 1.02854C15.4703 1.10854 15.5107 1.27854 15.403 1.40854L0.659742 17.4385C0.592421 17.5185 0.471244 17.5585 0.36353 17.5585V17.5485Z" fill="white"/>
<path d="M35.9359 7.36862C35.9359 7.36862 35.8685 7.36862 35.8416 7.36862C31.0618 7.33862 26.9149 4.78862 25.9858 1.30862C25.9454 1.15862 26.0801 1.01862 26.2686 0.988619C26.4706 0.958619 26.6591 1.05862 26.6994 1.19862C27.5612 4.42862 31.4119 6.78862 35.8416 6.81862C40.379 6.85862 44.3106 4.46862 45.1723 1.15862C45.2127 1.00862 45.4012 0.918619 45.6031 0.948619C45.8051 0.978619 45.9263 1.11862 45.8859 1.26862C44.9569 4.80862 40.783 7.35862 35.9224 7.35862L35.9359 7.36862Z" fill="#BB573E"/>
<path d="M35.9493 17.5787C35.7474 17.5787 35.5858 17.4587 35.5858 17.3087V2.19871C35.5858 2.04871 35.7474 1.92871 35.9493 1.92871C36.1513 1.92871 36.3128 2.04871 36.3128 2.19871V17.3087C36.3128 17.4587 36.1513 17.5787 35.9493 17.5787Z" fill="#BB573E"/>
<path d="M70.835 17.5885C70.7138 17.5885 70.6061 17.5485 70.5388 17.4685L55.9436 1.3685C55.8359 1.2485 55.8763 1.0785 56.0379 0.988497C56.1994 0.908497 56.4283 0.938497 56.5495 1.0585L71.1447 17.1585C71.2524 17.2785 71.212 17.4485 71.0504 17.5385C70.9831 17.5685 70.9158 17.5885 70.8484 17.5885H70.835Z" fill="white"/>
<path d="M70.835 17.5885C70.7138 17.5885 70.6061 17.5485 70.5388 17.4685L55.9436 1.3685C55.8359 1.2485 55.8763 1.0785 56.0379 0.988497C56.1994 0.908497 56.4283 0.938497 56.5495 1.0585L71.1447 17.1585C71.2524 17.2785 71.212 17.4485 71.0504 17.5385C70.9831 17.5685 70.9158 17.5885 70.8484 17.5885H70.835Z" fill="white"/>
<path d="M56.1725 17.5485C56.1052 17.5485 56.0244 17.5285 55.9705 17.4985C55.809 17.4185 55.7686 17.2485 55.8763 17.1185L70.6061 1.09854C70.7138 0.978537 70.9427 0.938537 71.1177 1.02854C71.2793 1.10854 71.3197 1.27854 71.212 1.40854L56.4822 17.4385C56.4149 17.5185 56.2937 17.5585 56.186 17.5585L56.1725 17.5485Z" fill="white"/>
<path d="M85.0397 17.1487C84.8377 17.1487 84.6761 17.0287 84.6761 16.8787V1.65867C84.6761 1.50867 84.8377 1.38867 85.0397 1.38867C85.2416 1.38867 85.4032 1.50867 85.4032 1.65867V16.8787C85.4032 17.0287 85.2416 17.1487 85.0397 17.1487Z" fill="#BB573E"/>
<path d="M89.3078 17.1487C89.1059 17.1487 88.9443 17.0287 88.9443 16.8787V1.65867C88.9443 1.50867 89.1059 1.38867 89.3078 1.38867H95.3532C95.5552 1.38867 95.7168 1.50867 95.7168 1.65867C95.7168 1.80867 95.5552 1.92867 95.3532 1.92867H89.6714V16.8787C89.6714 17.0287 89.5098 17.1487 89.3078 17.1487Z" fill="#BB573E"/>
</g>
<defs>
<clipPath id="clip0_113_1188">
<rect width="95.7096" height="16.6559" fill="white" transform="translate(0.00720215 0.942871)"/>
</clipPath>
</defs>
</svg>
