<svg width="15" height="21" viewBox="0 0 15 21" fill="none" xmlns="http://www.w3.org/2000/svg">
<path d="M14.3362 20.9486C14.2315 20.9486 14.129 20.8985 14.0657 20.8048L1.01411 1.45391C0.913767 1.30579 0.953031 1.10322 1.10137 1.00303C1.24971 0.902832 1.45258 0.942039 1.55293 1.09015L14.6045 20.4411C14.7049 20.5892 14.6656 20.7917 14.5173 20.8919C14.4606 20.929 14.3973 20.9464 14.3362 20.9464V20.9486Z" fill="#231F20"/>
<path d="M14.3362 20.9486C14.2315 20.9486 14.129 20.8985 14.0657 20.8048L1.01411 1.45391C0.913767 1.30579 0.953031 1.10322 1.10137 1.00303C1.24971 0.902832 1.45258 0.942039 1.55293 1.09015L14.6045 20.4411C14.7049 20.5892 14.6656 20.7917 14.5173 20.8919C14.4606 20.929 14.3973 20.9464 14.3362 20.9464V20.9486Z" fill="#231F20"/>
<path d="M1.22352 20.9073C1.16026 20.9073 1.097 20.8898 1.04028 20.8506C0.891945 20.7504 0.854861 20.5479 0.955208 20.3998L14.129 1.13162C14.2293 0.983503 14.4322 0.944296 14.5805 1.04667C14.7289 1.14687 14.766 1.34944 14.6656 1.49755L1.49185 20.7635C1.42858 20.855 1.32605 20.9051 1.22352 20.9051V20.9073Z" fill="#231F20"/>
</svg>
