<svg width="11" height="20" viewBox="0 0 11 20" fill="none" xmlns="http://www.w3.org/2000/svg">
<path d="M1.02572 19.4214C0.846845 19.4214 0.700684 19.2754 0.700684 19.0968V0.800134C0.700684 0.621524 0.846845 0.475586 1.02572 0.475586C1.2046 0.475586 1.35076 0.621524 1.35076 0.800134V19.0968C1.35076 19.2754 1.2046 19.4214 1.02572 19.4214Z" fill="#BB573E"/>
<path d="M4.84981 19.4214C4.67093 19.4214 4.52477 19.2754 4.52477 19.0968V0.800134C4.52477 0.621524 4.67093 0.475586 4.84981 0.475586H10.2554C10.4343 0.475586 10.5805 0.621524 10.5805 0.800134C10.5805 0.978744 10.4343 1.12468 10.2554 1.12468H5.17484V19.0968C5.17484 19.2754 5.02868 19.4214 4.84981 19.4214Z" fill="#BB573E"/>
</svg>
