<svg width="18" height="17" viewBox="0 0 18 17" fill="none" xmlns="http://www.w3.org/2000/svg">
<path d="M17.4618 9.07521H0.793165C0.591202 9.07521 0.429626 8.95521 0.429626 8.80521V0.365215C0.429626 0.215215 0.591202 0.0952148 0.793165 0.0952148C0.995127 0.0952148 1.1567 0.215215 1.1567 0.365215V8.52521H17.0848V0.475215C17.0848 0.325215 17.2464 0.205215 17.4483 0.205215C17.6503 0.205215 17.8119 0.325215 17.8119 0.475215V8.79521C17.8119 8.94521 17.6503 9.06522 17.4483 9.06522L17.4618 9.07521Z" fill="white"/>
<path d="M9.14094 16.625C8.93898 16.625 8.7774 16.505 8.7774 16.355V4.645C8.7774 4.495 8.93898 4.375 9.14094 4.375C9.34291 4.375 9.50448 4.495 9.50448 4.645V16.365C9.50448 16.515 9.34291 16.635 9.14094 16.635V16.625Z" fill="white"/>
</svg>
