<svg width="14" height="21" viewBox="0 0 14 21" fill="none" xmlns="http://www.w3.org/2000/svg">
<path d="M13.4377 20.9484C13.333 20.9484 13.2305 20.8983 13.1672 20.8046L0.117796 1.45372C0.0174496 1.3056 0.0567157 1.10303 0.205054 1.00283C0.353393 0.902638 0.556268 0.944023 0.656614 1.09214L13.7082 20.443C13.8086 20.5912 13.7693 20.7937 13.621 20.8939C13.5643 20.931 13.501 20.9484 13.4399 20.9484H13.4377Z" fill="#231F20"/>
<path d="M13.4377 20.9484C13.333 20.9484 13.2305 20.8983 13.1672 20.8046L0.117796 1.45372C0.0174496 1.3056 0.0567157 1.10303 0.205054 1.00283C0.353393 0.902638 0.556268 0.944023 0.656614 1.09214L13.7082 20.443C13.8086 20.5912 13.7693 20.7937 13.621 20.8939C13.5643 20.931 13.501 20.9484 13.4399 20.9484H13.4377Z" fill="#231F20"/>
<path d="M0.325043 20.907C0.261781 20.907 0.198518 20.8896 0.141801 20.8504C-0.00653782 20.7502 -0.0436225 20.5476 0.0567242 20.3995L13.2305 1.13137C13.3308 0.983259 13.5337 0.944051 13.6821 1.04643C13.8304 1.14662 13.8675 1.34919 13.7671 1.49731L0.593361 20.7654C0.530099 20.8569 0.427571 20.907 0.325043 20.907Z" fill="#231F20"/>
</svg>
