<svg width="157" height="46" viewBox="0 0 157 46" fill="none" xmlns="http://www.w3.org/2000/svg">
<path d="M40.8458 0.0786133V0.600889C38.6904 1.70913 36.7288 5.09543 36.7288 7.89789V45.6822H35.7491L4.64089 6.00836V37.8651C4.64089 40.6654 6.60245 44.1196 8.82386 45.2258V45.6822H0V45.2258C2.22141 44.1175 4.18297 40.6654 4.18297 37.8651V5.42026L0 0.0786133H6.60033L36.2049 37.4723V7.89577C36.2049 5.09331 34.2433 1.70701 32.0879 0.598766V0.0786133H40.8458Z" fill="#BB573E"/>
<path d="M84.7628 44.7651H76.1881V32.9183C73.9816 40.3661 69.3109 45.2725 61.1622 45.2725C54.2019 45.2725 47.4099 41.9732 46.3066 35.88C44.8626 27.2497 50.0424 22.1713 56.5788 19.4623C54.3723 14.5537 57.0026 4.06152 68.378 4.06152C75.4235 4.06152 82.8949 7.78539 82.8949 18.1927V39.1793C82.8949 42.141 83.4891 43.4106 84.7628 44.1727V44.7651ZM76.1881 31.394V18.3625C75.7642 18.1927 73.726 17.6004 71.0935 17.6004C61.8395 17.6004 49.2756 22.1713 52.9261 37.0647C54.0294 41.6335 58.9535 44.4275 63.1983 44.1727C70.5845 43.7502 74.4885 37.4872 76.1881 31.394ZM57.4265 19.1226C62.0098 17.4305 67.1044 16.8382 71.0935 16.8382C73.0466 16.8382 74.7441 17.1757 76.1881 17.6004V17.008C76.1881 10.5772 73.6408 4.90651 67.6134 4.90651C59.9737 4.90651 54.8792 12.2693 57.4265 19.1226Z" fill="#BB573E"/>
<path d="M121.687 9.05304L116.51 16.3309L115.916 15.9912C115.745 11.1676 113.368 4.90668 108.785 5.58394C100.466 6.85353 99.3626 28.6851 99.3626 35.8781V39.1773C99.3626 42.139 99.9568 43.4086 101.23 44.1708V44.7631H90.7028V44.1708C92.0616 43.4086 92.6558 42.139 92.6558 39.1773V10.5753C92.6558 7.61359 92.4002 6.76649 90.7028 6.51384V5.92151L98.6832 4.05957H99.3626V26.7382C100.212 16.4987 102.589 4.05957 111.588 4.05957C116.171 4.05957 118.804 5.66674 121.69 9.05304H121.687Z" fill="#BB573E"/>
<path d="M157 44.7651H148.425V32.9183C146.219 40.3661 141.548 45.2725 133.399 45.2725C126.439 45.2725 119.647 41.9732 118.544 35.88C117.1 27.2497 122.28 22.1713 128.816 19.4623C126.61 14.5537 129.24 4.06152 140.615 4.06152C147.661 4.06152 155.132 7.78539 155.132 18.1927V39.1793C155.132 42.141 155.726 43.4106 157 44.1727V44.7651ZM148.425 31.394V18.3625C148.002 18.1927 145.963 17.6004 143.333 17.6004C134.079 17.6004 121.515 22.1713 125.166 37.0647C126.269 41.6335 131.193 44.4275 135.438 44.1727C142.824 43.7502 146.728 37.4872 148.425 31.394ZM129.664 19.1226C134.247 17.4305 139.342 16.8382 143.331 16.8382C145.284 16.8382 146.981 17.1757 148.423 17.6004V17.008C148.423 10.5772 145.876 4.90651 139.851 4.90651C132.209 4.90651 127.116 12.2693 129.664 19.1226Z" fill="#BB573E"/>
</svg>
