<svg width="99" height="13" viewBox="0 0 99 13" fill="none" xmlns="http://www.w3.org/2000/svg">
<path d="M3.02507 9.22559V1.50823H0.015625V0.856445H6.70327V1.50823H3.69383V9.22559H3.02294H3.02507Z" fill="#BB573E"/>
<path d="M9.28677 9.39937C8.6606 9.39937 8.13027 9.25713 7.69579 8.97476C7.26131 8.69239 6.92906 8.29962 6.69903 7.8007C6.46901 7.30178 6.354 6.72642 6.354 6.07464C6.354 5.42286 6.47114 4.84326 6.70329 4.34646C6.93545 3.84966 7.27196 3.46114 7.70857 3.18726C8.14519 2.91338 8.67125 2.77539 9.28677 2.77539C9.90229 2.77539 10.4433 2.91551 10.882 3.19575C11.3186 3.476 11.6509 3.86452 11.8788 4.36132C12.1067 4.85812 12.2195 5.42923 12.2195 6.07677C12.2195 6.7243 12.1045 7.31877 11.8745 7.81769C11.6445 8.31661 11.3101 8.70301 10.8714 8.98325C10.4326 9.26138 9.90442 9.4015 9.28464 9.4015L9.28677 9.39937ZM9.28677 8.74759C10.0301 8.74759 10.5838 8.49919 10.9523 8.00451C11.3186 7.50771 11.5039 6.86442 11.5039 6.07464C11.5039 5.28486 11.3186 4.62458 10.9502 4.14477C10.5817 3.66495 10.028 3.42505 9.2889 3.42505C8.78839 3.42505 8.37308 3.53757 8.04721 3.76474C7.72135 3.99191 7.47642 4.304 7.31455 4.70101C7.15269 5.09803 7.07175 5.55661 7.07175 6.07464C7.07175 6.88141 7.25918 7.52683 7.63403 8.01513C8.00888 8.50344 8.5605 8.74759 9.28677 8.74759Z" fill="#BB573E"/>
<path d="M13.5016 9.22552V2.9476H14.1129V4.35944H14.1768V9.2234H13.4995L13.5016 9.22552ZM18.1127 9.22552V5.96024C18.1127 5.56535 18.0722 5.21291 17.9934 4.90294C17.9146 4.59298 17.7932 4.32971 17.6314 4.11316C17.4695 3.89661 17.2672 3.731 17.0244 3.61848C16.7816 3.50596 16.494 3.45076 16.1639 3.45076C15.8338 3.45076 15.525 3.51021 15.2758 3.62698C15.0266 3.74374 14.8179 3.91147 14.6581 4.12377C14.4963 4.33608 14.377 4.58873 14.2961 4.88171C14.2173 5.1747 14.1768 5.49316 14.1768 5.8371L13.6465 5.77341C13.6465 5.09615 13.7615 4.53565 13.9936 4.09617C14.2258 3.6567 14.5367 3.33187 14.9286 3.11956C15.3205 2.90938 15.7614 2.80322 16.2512 2.80322C16.5963 2.80322 16.9072 2.85418 17.182 2.95397C17.4567 3.05375 17.6931 3.19811 17.8955 3.3807C18.0978 3.56541 18.2639 3.78196 18.396 4.03248C18.528 4.28301 18.626 4.55688 18.6899 4.85411C18.7538 5.15346 18.7857 5.46343 18.7857 5.79039V9.22552H18.1085H18.1127Z" fill="#BB573E"/>
<path d="M24.9644 9.38664C24.2381 9.38664 23.6375 9.23377 23.1668 8.92805C22.6961 8.62233 22.4022 8.19559 22.2893 7.64996L22.9772 7.53319C23.0752 7.90473 23.3031 8.20196 23.6652 8.42276C24.0272 8.64356 24.4702 8.75396 24.9942 8.75396C25.5181 8.75396 25.9292 8.64356 26.2359 8.42276C26.5426 8.20196 26.6959 7.90049 26.6959 7.51621C26.6959 7.30602 26.6491 7.13618 26.5532 7.00242C26.4574 6.86867 26.2699 6.74553 25.9909 6.63301C25.7119 6.52049 25.2945 6.38886 24.7429 6.23812C24.1593 6.08314 23.7035 5.92815 23.3755 5.77317C23.0475 5.61818 22.8154 5.44196 22.6812 5.24452C22.547 5.04707 22.481 4.80505 22.481 4.51843C22.481 4.17449 22.5811 3.87089 22.7792 3.60976C22.9772 3.34862 23.2541 3.1448 23.6098 2.99619C23.9655 2.84969 24.3765 2.77539 24.843 2.77539C25.3094 2.77539 25.729 2.85182 26.1017 3.00468C26.4744 3.15754 26.7768 3.36985 27.0047 3.64373C27.2348 3.9176 27.3668 4.23394 27.4009 4.59486L26.7129 4.72224C26.6469 4.31886 26.4425 4.0004 26.1017 3.76686C25.7588 3.53332 25.3328 3.41231 24.8195 3.41019C24.3339 3.40169 23.9378 3.49936 23.6311 3.6968C23.3244 3.89637 23.1711 4.15963 23.1711 4.48446C23.1711 4.67129 23.2243 4.8284 23.3308 4.95791C23.4373 5.08742 23.6268 5.20631 23.8995 5.31458C24.1721 5.42286 24.5554 5.53963 25.0538 5.66276C25.6608 5.81775 26.1336 5.97698 26.4744 6.14046C26.8152 6.30393 27.0537 6.49501 27.1943 6.71369C27.3349 6.93236 27.4051 7.202 27.4051 7.5247C27.4051 8.10642 27.1879 8.56288 26.7555 8.89408C26.3232 9.22528 25.7268 9.39088 24.9686 9.39088L24.9644 9.38664Z" fill="#BB573E"/>
<path d="M27.9973 3.55891V2.94958H32.0376V3.55891H27.9973ZM32.0376 9.22539C31.7032 9.2997 31.3731 9.3273 31.0472 9.31032C30.7214 9.29333 30.4296 9.21902 30.1761 9.08951C29.9205 8.96001 29.731 8.75831 29.6011 8.48868C29.4967 8.26788 29.4371 8.04496 29.4264 7.81991C29.4158 7.59487 29.4094 7.33798 29.4094 7.04712V1.20654H30.0867V7.0365C30.0867 7.29976 30.0888 7.51844 30.0952 7.69041C30.1016 7.86238 30.1399 8.02161 30.2145 8.16385C30.355 8.43136 30.5765 8.59271 30.879 8.65004C31.1814 8.70524 31.569 8.69675 32.0397 8.62456V9.22964L32.0376 9.22539Z" fill="#BB573E"/>
<path d="M33.9905 12.0149L35.2152 8.73051L35.228 9.70713L32.4698 2.94727H33.1876L35.5538 8.81756H35.1811L37.3322 2.94727H38.0372L34.6913 12.0149H33.9905Z" fill="#BB573E"/>
<path d="M39.2086 9.22537V0.682129H39.8795V9.22537H39.2086Z" fill="#BB573E"/>
<path d="M44.2223 9.39937C43.6195 9.39937 43.0999 9.26562 42.659 8.99599C42.2202 8.72636 41.8795 8.34421 41.6388 7.85165C41.3981 7.35698 41.2767 6.77313 41.2767 6.10012C41.2767 5.4271 41.396 4.82203 41.6345 4.32523C41.8731 3.82843 42.2117 3.44416 42.6483 3.17665C43.085 2.90914 43.6046 2.77539 44.2074 2.77539C44.8101 2.77539 45.3404 2.91339 45.7728 3.19151C46.2052 3.46963 46.5374 3.86877 46.7632 4.39105C46.9889 4.91332 47.0975 5.54387 47.0869 6.28058H46.3862V6.04704C46.367 5.1872 46.1732 4.53117 45.8026 4.0832C45.4342 3.63311 44.9038 3.41019 44.2159 3.41019C43.528 3.41019 42.955 3.64372 42.5695 4.1108C42.1819 4.57787 41.9902 5.23815 41.9902 6.0895C41.9902 6.94086 42.184 7.58839 42.5695 8.05335C42.9572 8.5183 43.5024 8.75184 44.2052 8.75184C44.6908 8.75184 45.1147 8.63932 45.4789 8.41215C45.8431 8.18498 46.1306 7.86014 46.3457 7.43978L46.9527 7.70728C46.6993 8.24867 46.3351 8.66904 45.8559 8.96202C45.3766 9.25713 44.8314 9.40362 44.218 9.40362L44.2223 9.39937ZM41.7389 6.27846V5.67338H46.712V6.27846H41.7389Z" fill="#BB573E"/>
<path d="M48.0304 10.3465L48.0773 9.98558C48.22 9.99407 48.3222 9.96222 48.3797 9.89004C48.4372 9.81786 48.4713 9.72232 48.4819 9.60555C48.4926 9.48666 48.4926 9.36139 48.484 9.22552H48.0304V8.0918H48.8759V9.51638C48.8759 9.82211 48.795 10.0514 48.6374 10.2021C48.4777 10.3529 48.2753 10.4017 48.0304 10.3465Z" fill="#BB573E"/>
<path d="M50.3923 3.55891V2.94958H54.4326V3.55891H50.3923ZM54.4326 9.22539C54.0982 9.2997 53.7681 9.3273 53.4422 9.31032C53.1164 9.29333 52.8246 9.21902 52.5711 9.08951C52.3156 8.96001 52.126 8.75831 51.9961 8.48868C51.8917 8.26788 51.8321 8.04496 51.8214 7.81991C51.8108 7.59487 51.8044 7.33798 51.8044 7.04712V1.20654H52.4817V7.0365C52.4817 7.29976 52.4838 7.51844 52.4902 7.69041C52.4966 7.86238 52.5349 8.02161 52.6095 8.16385C52.7501 8.43136 52.9716 8.59271 53.274 8.65004C53.5764 8.70524 53.964 8.69675 54.4347 8.62456V9.22964L54.4326 9.22539Z" fill="#BB573E"/>
<path d="M58.0171 9.39937C57.3909 9.39937 56.8606 9.25713 56.4261 8.97476C55.9916 8.69239 55.6594 8.29962 55.4293 7.8007C55.1993 7.30178 55.0864 6.72642 55.0864 6.07464C55.0864 5.42286 55.2036 4.84326 55.4357 4.34646C55.6679 3.84966 56.0044 3.46114 56.441 3.18726C56.8776 2.91338 57.4037 2.77539 58.0192 2.77539C58.6347 2.77539 59.1757 2.91551 59.6144 3.19575C60.051 3.476 60.3833 3.86452 60.6112 4.36132C60.8391 4.85812 60.952 5.42923 60.952 6.07677C60.952 6.7243 60.837 7.31877 60.6069 7.81769C60.3769 8.31661 60.0425 8.70301 59.6038 8.98325C59.165 9.26138 58.6368 9.4015 58.0171 9.4015V9.39937ZM58.0171 8.74759C58.7604 8.74759 59.3141 8.49919 59.6826 8.00451C60.0489 7.50771 60.2342 6.86442 60.2342 6.07464C60.2342 5.28486 60.0489 4.62458 59.6805 4.14477C59.312 3.66495 58.7582 3.42505 58.0192 3.42505C57.5187 3.42505 57.1034 3.53757 56.7775 3.76474C56.4516 3.99191 56.2067 4.304 56.0448 4.70101C55.883 5.09803 55.8021 5.55661 55.8021 6.07464C55.8021 6.88141 55.9895 7.52683 56.3643 8.01513C56.7392 8.50344 57.2908 8.74759 58.0171 8.74759Z" fill="#BB573E"/>
<path d="M62.2341 9.22552V2.9476H62.8454V4.35944H62.9093V9.2234H62.2341V9.22552ZM66.8452 9.22552V5.96024C66.8452 5.56535 66.8047 5.21291 66.7259 4.90294C66.6471 4.59298 66.5257 4.32971 66.3639 4.11316C66.202 3.89661 65.9997 3.731 65.7569 3.61848C65.5141 3.50596 65.2265 3.45076 64.8964 3.45076C64.5663 3.45076 64.2575 3.51021 64.0083 3.62698C63.757 3.74587 63.5525 3.91147 63.3906 4.12377C63.2288 4.33608 63.1095 4.58873 63.0286 4.88171C62.9476 5.1747 62.9093 5.49316 62.9093 5.8371L62.379 5.77341C62.379 5.09615 62.494 4.53565 62.7261 4.09617C62.9583 3.6567 63.2692 3.33187 63.6611 3.11956C64.053 2.90938 64.496 2.80322 64.9837 2.80322C65.3288 2.80322 65.6397 2.85418 65.9145 2.95397C66.1892 3.05375 66.4256 3.19811 66.628 3.3807C66.8303 3.56541 66.9964 3.78196 67.1285 4.03248C67.2605 4.28301 67.3585 4.55688 67.4224 4.85411C67.4863 5.15346 67.5182 5.46343 67.5182 5.79039V9.22552H66.8409H66.8452Z" fill="#BB573E"/>
<path d="M73.9396 9.39937C73.3092 9.39937 72.7789 9.25925 72.3487 8.979C71.9163 8.69876 71.5904 8.30811 71.3668 7.81131C71.1432 7.31451 71.0282 6.73916 71.0197 6.08738C71.0282 5.42498 71.1453 4.84539 71.3732 4.34646C71.6011 3.84966 71.9291 3.46114 72.3614 3.18726C72.7938 2.91338 73.322 2.77539 73.9482 2.77539C74.5743 2.77539 75.0961 2.92188 75.5604 3.21486C76.0247 3.50785 76.3463 3.90911 76.5253 4.42077L75.8714 4.65856C75.7117 4.26791 75.4603 3.96431 75.1196 3.74776C74.7767 3.53332 74.3848 3.42505 73.9418 3.42505C73.4434 3.42505 73.0345 3.53757 72.7107 3.76474C72.3891 3.99191 72.1463 4.304 71.9887 4.70314C71.829 5.10228 71.7459 5.56298 71.7374 6.08738C71.7481 6.8899 71.9376 7.53319 72.3061 8.01938C72.6724 8.50556 73.2176 8.74971 73.9418 8.74971C74.389 8.74971 74.7767 8.6478 75.1047 8.44187C75.4327 8.23593 75.684 7.9387 75.8586 7.54593L76.5231 7.7731C76.2782 8.30387 75.9353 8.70726 75.4965 8.98538C75.0578 9.2635 74.5381 9.4015 73.9396 9.4015V9.39937Z" fill="#BB573E"/>
<path d="M77.7415 9.22559V0.856445H78.3527V5.6928H78.4166V9.22559H77.7415ZM82.3525 9.22559V5.96031C82.3525 5.56542 82.3121 5.21299 82.2333 4.90302C82.1545 4.59305 82.033 4.32979 81.8712 4.11324C81.7093 3.89668 81.507 3.73108 81.2642 3.61856C81.0214 3.50604 80.7339 3.45084 80.4037 3.45084C80.0736 3.45084 79.7648 3.51028 79.5156 3.62705C79.2643 3.74594 79.0598 3.91154 78.8979 4.12385C78.7361 4.33616 78.6168 4.58881 78.5359 4.88179C78.4549 5.17477 78.4166 5.49323 78.4166 5.83717L77.8863 5.77348C77.8863 5.09622 78.0013 4.53573 78.2334 4.09625C78.4656 3.65677 78.7765 3.33195 79.1684 3.11964C79.5603 2.90946 80.0033 2.8033 80.4911 2.8033C80.8361 2.8033 81.147 2.85426 81.4218 2.95404C81.6965 3.05383 81.9329 3.19819 82.1353 3.38078C82.3376 3.56548 82.5037 3.78204 82.6358 4.03256C82.7678 4.28308 82.8658 4.55696 82.9297 4.85419C82.9936 5.15354 83.0255 5.46351 83.0255 5.79046V9.22559H82.3483H82.3525Z" fill="#BB573E"/>
<path d="M87.1297 9.39937C86.5036 9.39937 85.9732 9.25713 85.5388 8.97476C85.1043 8.69239 84.772 8.29962 84.542 7.8007C84.312 7.30178 84.1991 6.72642 84.1991 6.07464C84.1991 5.42286 84.3162 4.84326 84.5484 4.34646C84.7805 3.84966 85.117 3.46114 85.5537 3.18726C85.9903 2.91338 86.5163 2.77539 87.1319 2.77539C87.7474 2.77539 88.2884 2.91551 88.7271 3.19575C89.1637 3.476 89.496 3.86452 89.7239 4.36132C89.9518 4.85812 90.0646 5.42923 90.0646 6.07677C90.0646 6.7243 89.9496 7.31877 89.7196 7.81769C89.4896 8.31661 89.1552 8.70301 88.7165 8.98325C88.2777 9.26138 87.7495 9.4015 87.1297 9.4015V9.39937ZM87.1297 8.74759C87.873 8.74759 88.4268 8.49919 88.7953 8.00451C89.1616 7.50771 89.3469 6.86442 89.3469 6.07464C89.3469 5.28486 89.1616 4.62458 88.7931 4.14477C88.4247 3.66495 87.8709 3.42505 87.1319 3.42505C86.6314 3.42505 86.216 3.53757 85.8902 3.76474C85.5643 3.99191 85.3194 4.304 85.1575 4.70101C84.9957 5.09803 84.9147 5.55661 84.9147 6.07464C84.9147 6.88141 85.1021 7.52683 85.477 8.01513C85.8518 8.50344 86.4035 8.74759 87.1297 8.74759Z" fill="#BB573E"/>
<path d="M91.4618 1.68209V0.828613H92.1327V1.68209H91.4618ZM91.4618 9.22536V2.94744H92.1327V9.22536H91.4618Z" fill="#BB573E"/>
<path d="M93.1805 9.22519L95.6937 6.0512L93.238 2.94727H94.0538L96.0877 5.5459L98.1111 2.94727H98.9268L96.4711 6.0512L98.9843 9.22519H98.1558L96.0856 6.55649L94.0048 9.22519H93.1763H93.1805Z" fill="#BB573E"/>
</svg>
