<svg width="17" height="20" viewBox="0 0 17 20" fill="none" xmlns="http://www.w3.org/2000/svg">
<path d="M15.8026 10.7997H0.905515C0.726637 10.7997 0.580475 10.6538 0.580475 10.4752V0.337976C0.580475 0.159365 0.726637 0.0134277 0.905515 0.0134277C1.08439 0.0134277 1.23055 0.159365 1.23055 0.337976V10.1485H15.4776V0.470844C15.4776 0.292234 15.6238 0.146296 15.8026 0.146296C15.9815 0.146296 16.1277 0.292234 16.1277 0.470844V10.4752C16.1277 10.6538 15.9815 10.7997 15.8026 10.7997Z" fill="#231F20"/>
<path d="M8.35299 19.8828C8.17411 19.8828 8.02795 19.7369 8.02795 19.5583V5.47201C8.02795 5.2934 8.17411 5.14746 8.35299 5.14746C8.53187 5.14746 8.67802 5.2934 8.67802 5.47201V19.5561C8.67802 19.7347 8.53187 19.8806 8.35299 19.8806V19.8828Z" fill="#231F20"/>
</svg>
