<svg width="19" height="21" viewBox="0 0 19 21" fill="none" xmlns="http://www.w3.org/2000/svg">
<path d="M9.13494 8.65928C9.10658 8.65928 9.07822 8.65928 9.04986 8.65928C4.7764 8.62007 1.0723 5.55755 0.238987 1.37982C0.204084 1.20338 0.317519 1.03349 0.494216 0.998634C0.670913 0.963784 0.841067 1.07705 0.87597 1.25348C1.6482 5.13063 5.08835 7.97315 9.05641 8.01018C13.1095 8.0581 16.6304 5.18944 17.4005 1.2121C17.4354 1.03566 17.6055 0.922398 17.7822 0.955071C17.9589 0.989922 18.0745 1.15982 18.0396 1.33625C17.2129 5.59241 13.476 8.66145 9.13494 8.66145V8.65928Z" fill="#BB573E"/>
<path d="M9.13713 20.942C8.95825 20.942 8.81209 20.7961 8.81209 20.6175V2.4515C8.81209 2.27289 8.95825 2.12695 9.13713 2.12695C9.316 2.12695 9.46216 2.27289 9.46216 2.4515V20.6175C9.46216 20.7961 9.316 20.942 9.13713 20.942Z" fill="#BB573E"/>
</svg>
