<svg width="18" height="17" viewBox="0 0 18 17" fill="none" xmlns="http://www.w3.org/2000/svg">
<path d="M17.1233 8.97561H0.454623C0.252661 8.97561 0.0910645 8.85561 0.0910645 8.70561V0.265605C0.0910645 0.115605 0.252661 -0.00439453 0.454623 -0.00439453C0.656586 -0.00439453 0.818141 0.115605 0.818141 0.265605V8.4256H16.7463V0.375605C16.7463 0.225605 16.9078 0.105605 17.1098 0.105605C17.3118 0.105605 17.4733 0.225605 17.4733 0.375605V8.69561C17.4733 8.84561 17.3118 8.96561 17.1098 8.96561L17.1233 8.97561Z" fill="white"/>
<path d="M8.78897 16.5254C8.58701 16.5254 8.42542 16.4054 8.42542 16.2554V4.54539C8.42542 4.39539 8.58701 4.27539 8.78897 4.27539C8.99094 4.27539 9.15249 4.39539 9.15249 4.54539V16.2654C9.15249 16.4154 8.99094 16.5354 8.78897 16.5354V16.5254Z" fill="white"/>
</svg>
