<svg width="19" height="17" viewBox="0 0 19 17" fill="none" xmlns="http://www.w3.org/2000/svg">
<path d="M17.7489 8.98098H1.08029C0.878332 8.98098 0.716766 8.86098 0.716766 8.71098V0.270977C0.716766 0.120977 0.878332 0.000976562 1.08029 0.000976562C1.28226 0.000976562 1.44383 0.120977 1.44383 0.270977V8.43098H17.3719V0.380977C17.3719 0.230977 17.5335 0.110977 17.7355 0.110977C17.9374 0.110977 18.099 0.230977 18.099 0.380977V8.70098C18.099 8.85098 17.9374 8.97098 17.7355 8.97098L17.7489 8.98098Z" fill="white"/>
<path d="M9.41462 16.5308C9.21266 16.5308 9.05109 16.4108 9.05109 16.2608V4.55076C9.05109 4.40076 9.21266 4.28076 9.41462 4.28076C9.61659 4.28076 9.77815 4.40076 9.77815 4.55076V16.2708C9.77815 16.4208 9.61659 16.5408 9.41462 16.5408V16.5308Z" fill="white"/>
</svg>
