<svg width="238" height="58" viewBox="0 0 238 58" fill="none" xmlns="http://www.w3.org/2000/svg">
<g clip-path="url(#clip0_139_540)">
<path d="M222.388 43.1684C222.448 42.6334 222.508 42.0955 222.573 41.5142C223.011 41.5142 223.414 41.5229 223.815 41.5142C224.065 41.5084 224.38 41.6125 224.397 41.1614C224.414 40.7305 224.159 40.69 223.838 40.69C222.601 40.69 221.365 40.6929 220.129 40.69C219.868 40.69 219.623 40.6756 219.623 41.066C219.623 41.4564 219.848 41.5113 220.152 41.5084C220.627 41.5026 221.101 41.5084 221.584 41.5084C221.644 42.0058 221.692 42.4107 221.74 42.8156C221.763 44.1054 221.777 45.3923 221.82 46.6821C221.826 46.8614 221.976 47.0378 222.059 47.2142C222.17 47.0378 222.371 46.8614 222.374 46.6821C222.403 45.5138 222.391 44.3425 222.391 43.1713L222.388 43.1684Z" fill="#BB573E"/>
<path d="M109.14 43.4779C109.492 44.4496 109.83 45.4271 110.205 46.3901C110.333 46.7169 110.555 47.009 110.734 47.3155C110.813 47.3155 110.893 47.3155 110.973 47.3184C111.288 46.4942 111.606 45.67 111.916 44.8429C112.22 44.0245 112.51 43.2003 112.805 42.379C112.982 43.3998 113.018 44.3918 113.089 45.3808C113.124 45.8667 113.197 46.3525 113.311 46.8239C113.351 46.9858 113.57 47.1044 113.706 47.2432C113.808 47.0524 113.99 46.8644 113.996 46.6706C114.007 46.2282 113.914 45.7799 113.897 45.3345C113.848 43.9262 113.82 42.5178 113.769 41.1094C113.763 40.9764 113.7 40.7797 113.604 40.7219C113.18 40.479 112.561 40.7393 112.388 41.2135C112.069 42.0753 111.757 42.9371 111.45 43.8047C111.242 44.3918 111.049 44.9817 110.802 45.7047C110.515 44.7938 110.288 44.0534 110.049 43.3189C109.802 42.5583 109.54 41.8006 109.285 41.04C109.103 40.4934 108.645 40.7103 108.293 40.7075C108.182 40.7075 107.983 40.9272 107.972 41.0545C107.909 41.9105 107.889 42.7694 107.855 43.6283C107.81 44.6029 107.747 45.5746 107.733 46.5492C107.73 46.7892 107.884 47.035 107.966 47.2779C108.043 47.2664 108.122 47.2519 108.199 47.2403C108.574 46.1501 108.424 44.9904 108.554 43.8654C108.58 43.7845 108.605 43.7006 108.631 43.6196C108.802 43.5705 108.972 43.5242 109.143 43.475L109.14 43.4779Z" fill="#BB573E"/>
<path d="M141.554 43.0442C141.576 42.8244 141.599 42.6017 141.636 42.246C142.511 43.9464 142.673 45.8002 143.796 47.4283C144.029 47.0264 144.216 46.7863 144.316 46.5116C144.756 45.2999 145.168 44.0795 145.6 42.8649C145.663 42.6885 145.771 42.5265 145.859 42.3559C145.944 42.3732 146.026 42.3877 146.112 42.405C146.112 43.7469 146.08 45.0916 146.137 46.4335C146.149 46.7111 146.475 46.9743 146.654 47.2432C146.779 46.9859 147.012 46.7285 147.012 46.4711C147.012 45.4358 146.95 44.4005 146.899 43.3652C146.865 42.7029 146.842 42.0378 146.754 41.3813C146.717 41.0921 146.751 40.6872 146.242 40.6699C145.773 40.6554 145.464 40.8058 145.31 41.2714C145.089 41.9394 144.85 42.5988 144.617 43.2639C144.355 44.0043 144.091 44.7475 143.781 45.6238C143.685 45.3722 143.639 45.271 143.605 45.1668C143.173 43.8308 142.722 42.4976 142.327 41.1499C142.176 40.641 141.844 40.6988 141.471 40.6815C141.065 40.6612 140.971 40.9157 140.954 41.2309C140.92 41.8353 140.909 42.4369 140.886 43.0413C140.795 44.227 140.738 45.4184 140.593 46.5955C140.548 46.9569 140.678 47.1073 140.929 47.1189C141.059 47.1247 141.306 46.876 141.318 46.7256C141.42 45.4994 141.477 44.2703 141.548 43.0413L141.554 43.0442Z" fill="#BB573E"/>
<path d="M148.376 33.9838C149.308 33.9838 150.101 34.0069 150.891 33.9635C151.045 33.9549 151.286 33.7091 151.32 33.5413C151.661 31.7397 151.928 29.9235 152.292 28.1276C152.627 26.4677 152.909 24.7701 153.486 23.194C154.142 21.4039 155.324 19.9174 157.157 19.1626C158.6 18.5669 160.203 19.1019 160.51 20.9238C160.609 21.5167 160.683 22.1355 160.621 22.7284C160.513 23.755 160.302 24.7701 160.115 25.7852C159.638 28.3561 159.154 30.927 158.649 33.4922C158.572 33.8855 158.683 33.9896 159.035 33.9838C159.674 33.9751 160.314 33.9693 160.953 33.9896C161.351 34.0011 161.504 33.7814 161.567 33.4343C161.959 31.2249 162.354 29.0155 162.746 26.8089C163.045 25.1345 163.312 23.4456 164.213 21.962C164.909 20.811 165.747 19.7902 167.014 19.2349C168.776 18.4657 170.438 19.2349 170.72 21.0193C170.845 21.803 170.862 22.6416 170.725 23.4196C170.143 26.7626 169.487 30.097 168.844 33.4285C168.77 33.819 168.867 33.9867 169.262 33.9838C169.901 33.978 170.541 33.9809 171.18 33.9867C171.578 33.9925 171.754 33.8161 171.825 33.4054C172.177 31.3492 172.572 29.2989 172.933 27.2427C173.334 24.9581 173.911 22.7024 173.814 20.3425C173.743 18.5987 172.592 17.0053 170.924 16.5772C168.569 15.9728 165.605 17.1585 164.133 19.2957C164.016 19.4634 163.891 19.6253 163.684 19.9059C163.533 19.5212 163.423 19.2639 163.329 18.9978C162.587 16.8925 161.112 16.3343 159.487 16.3922C157.185 16.476 155.287 17.4998 153.986 19.501C153.917 19.6051 153.824 19.6948 153.65 19.9001C153.778 18.7954 153.886 17.8381 154 16.852H151.471C150.439 22.5693 149.416 28.226 148.376 33.9867V33.9838Z" fill="#BB573E"/>
<path d="M76.5069 33.978C77.3707 33.978 78.1039 33.949 78.8342 33.9895C79.2888 34.0127 79.4934 33.8652 79.5758 33.4053C79.8941 31.621 80.2606 29.8425 80.5675 28.0553C81.008 25.5017 81.6956 22.9886 81.5649 20.3483C81.4768 18.5697 80.3516 16.9242 78.6381 16.5772C76.0039 16.0422 73.8017 16.8953 72.02 18.9081C71.8552 19.0932 71.7103 19.2956 71.554 19.4894C71.5029 19.4604 71.4489 19.4286 71.3977 19.3997C72.0655 15.8918 72.7304 12.381 73.4039 8.83838H70.4344C70.1787 10.212 69.9286 11.551 69.6786 12.8929C68.8744 17.1671 68.0674 21.4414 67.2689 25.7157C66.783 28.304 66.317 30.8952 65.8168 33.4805C65.743 33.8652 65.8282 33.9866 66.1919 33.9808C66.8881 33.9722 67.5872 34.0011 68.2833 33.9577C68.4453 33.949 68.7067 33.7437 68.7352 33.5904C69.1472 31.4446 69.5223 29.293 69.9201 27.1443C70.2185 25.5335 70.443 23.8938 71.2983 22.4507C72.2445 20.8486 73.4209 19.5154 75.2935 19.0006C76.3705 18.7057 78.1266 19.1568 78.3966 20.8573C78.5301 21.6959 78.5955 22.5924 78.4619 23.4224C78.0414 26.0222 77.51 28.6018 77.0241 31.1901C76.8564 32.0866 76.6888 32.9831 76.5012 33.9751L76.5069 33.978Z" fill="#BB573E"/>
<path d="M116.627 16.7998C115.874 16.7998 115.272 16.846 114.681 16.7882C114.07 16.7275 113.942 17.0225 113.882 17.5488C113.703 19.1567 113.547 20.7733 113.263 22.3639C112.601 26.0684 111.876 29.7614 111.16 33.4544C111.089 33.8246 111.169 33.975 111.535 33.975C112.231 33.975 112.93 34.0097 113.627 33.9634C113.797 33.9518 114.067 33.7176 114.101 33.5499C114.482 31.5978 114.82 29.64 115.181 27.6821C115.499 25.9527 115.809 24.2118 116.695 22.6617C117.761 20.8022 119.017 19.1972 121.475 19.3794C121.58 19.3881 121.771 19.2117 121.799 19.0902C121.967 18.3874 122.112 17.6818 122.234 16.9704C122.299 16.5916 122.191 16.3082 121.719 16.3342C120.347 16.4123 119.074 16.7593 118.13 17.8467C117.559 18.5031 117.059 19.2203 116.525 19.9086C116.471 19.9751 116.394 20.0243 116.244 20.1486C116.377 18.989 116.497 17.9421 116.627 16.7969V16.7998Z" fill="#BB573E"/>
<path d="M158.91 45.1L158.723 45.1405C158.095 44.1139 157.469 43.0815 156.833 42.0606C156.586 41.6644 156.356 41.2393 156.026 40.9241C155.841 40.7506 155.466 40.7245 155.185 40.7448C155.094 40.7506 154.963 41.1149 154.96 41.3145C154.943 43.0381 154.949 44.7617 154.952 46.4824C154.952 46.6183 154.929 46.8092 155.003 46.8757C155.145 47.0058 155.344 47.1012 155.534 47.1417C155.591 47.1533 155.762 46.9393 155.764 46.8236C155.81 45.5541 155.838 44.2845 155.855 43.0149C155.858 42.7836 155.793 42.5493 155.762 42.318C156.404 43.1191 156.921 43.9577 157.447 44.7906C157.896 45.4991 158.328 46.2192 158.831 46.8844C158.964 47.0608 159.328 47.0897 159.595 47.1157C159.66 47.1215 159.822 46.8583 159.825 46.7195C159.842 44.86 159.836 43.0005 159.836 41.1381C159.836 40.8229 159.694 40.6812 159.373 40.6812C159.018 40.6812 158.904 40.8518 158.907 41.193C158.919 42.211 158.913 43.2289 158.913 44.2469C158.913 44.5303 158.913 44.8137 158.913 45.1H158.91Z" fill="#BB573E"/>
<path d="M95.7359 43.391C94.892 43.391 94.1446 43.3708 93.4001 43.3997C92.9568 43.4171 92.8176 43.232 92.8318 42.8126C92.8489 42.2458 92.8602 41.6732 92.8091 41.1093C92.7949 40.956 92.5619 40.7536 92.3942 40.7044C92.1271 40.6292 91.8998 40.7449 91.9026 41.1006C91.9055 42.9804 91.9055 44.863 91.9026 46.7428C91.9026 47.0811 92.0873 47.165 92.3885 47.1737C92.7125 47.1824 92.8403 47.0638 92.8347 46.7312C92.8233 46.0256 92.8602 45.3199 92.8318 44.6143C92.8148 44.1892 92.971 44.0706 93.3689 44.0909C93.9684 44.1198 94.5709 44.1314 95.1704 44.088C95.662 44.0504 95.7615 44.2615 95.7416 44.6982C95.7132 45.3633 95.7444 46.0314 95.7359 46.6965C95.7302 47.0638 95.9149 47.1563 96.2417 47.1708C96.5855 47.1852 96.6736 47.032 96.6736 46.7167C96.6651 44.8746 96.6651 43.0324 96.668 41.1903C96.668 40.8635 96.5657 40.6755 96.1962 40.6813C95.8411 40.69 95.7245 40.8519 95.7302 41.1932C95.7444 41.8554 95.7359 42.5177 95.7359 43.3881V43.391Z" fill="#BB573E"/>
<path d="M82.8294 43.0294H82.8323C82.8323 43.4025 82.838 43.7727 82.8323 44.1457C82.8237 44.5159 82.8436 44.8947 82.7783 45.2562C82.6447 45.9821 82.0622 46.4622 81.4115 46.4477C80.738 46.4333 80.1356 45.8896 80.0418 45.1666C79.9736 44.6258 79.9367 44.0792 79.9225 43.5355C79.9026 42.7345 79.914 41.9305 79.914 41.1294C79.914 40.8056 79.7463 40.6263 79.4451 40.7072C79.2718 40.7564 79.0047 40.9559 79.0075 41.0832C79.0217 42.5089 79.0075 43.9404 79.1467 45.3546C79.2604 46.5084 80.1583 47.2748 81.2211 47.2661C82.497 47.2575 83.4347 46.7369 83.5569 45.6177C83.7188 44.1313 83.6592 42.6217 83.6847 41.1208C83.6904 40.8316 83.5455 40.58 83.2301 40.7072C83.0568 40.7766 82.8607 41.0282 82.8465 41.2104C82.7982 41.8119 82.8294 42.4221 82.8294 43.0294Z" fill="#BB573E"/>
<path d="M152.661 43.741C152.647 43.6687 152.636 43.5964 152.622 43.5241C152.232 43.4836 151.846 43.4113 151.457 43.4027C150.076 43.3737 150.087 43.3824 150.169 41.9538C150.189 41.6212 150.32 41.5027 150.63 41.5084C151.192 41.5142 151.755 41.5374 152.315 41.4911C152.502 41.4737 152.786 41.2916 152.826 41.1354C152.914 40.7768 152.636 40.69 152.323 40.69C151.451 40.6958 150.579 40.6987 149.709 40.6814C149.365 40.6756 149.232 40.7941 149.234 41.1585C149.252 42.9804 149.252 44.8024 149.243 46.6272C149.243 46.9973 149.374 47.1651 149.752 47.1593C150.681 47.1477 151.613 47.168 152.542 47.1361C152.687 47.1304 152.826 46.9337 152.968 46.8238C152.823 46.6648 152.707 46.4276 152.528 46.3611C152.303 46.2801 152.031 46.3351 151.781 46.3351C150.101 46.3351 150.113 46.3351 150.169 44.6202C150.184 44.2008 150.346 44.088 150.732 44.088C151.212 44.088 151.695 44.0418 152.173 43.9782C152.343 43.955 152.497 43.822 152.659 43.7381L152.661 43.741Z" fill="#BB573E"/>
<path d="M102.973 41.5112C103.769 41.5112 104.502 41.5256 105.235 41.4967C105.369 41.4909 105.625 41.2625 105.608 41.2104C105.545 41.0224 105.397 40.7246 105.269 40.7217C104.21 40.6841 103.15 40.6985 102.104 40.6985C102.064 40.8142 102.03 40.8692 102.03 40.9241C102.024 42.8443 102.03 44.7675 102.019 46.6877C102.019 47.0521 102.183 47.1649 102.516 47.162C103.388 47.1533 104.261 47.162 105.133 47.1591C105.426 47.1591 105.744 47.2025 105.744 46.7456C105.744 46.2857 105.406 46.3436 105.125 46.3407C104.414 46.332 103.707 46.3407 102.985 46.3407V44.166C103.69 44.1052 104.36 44.059 105.025 43.9751C105.159 43.9577 105.272 43.7929 105.397 43.6975C105.284 43.6078 105.181 43.4806 105.051 43.4401C104.889 43.3909 104.707 43.4083 104.531 43.4083C104.016 43.4083 103.502 43.4083 102.976 43.4083V41.5141L102.973 41.5112Z" fill="#BB573E"/>
<path d="M194.072 43.7582C194.055 43.6772 194.035 43.5963 194.018 43.5124C193.643 43.4748 193.268 43.4112 192.893 43.4025C191.512 43.3736 191.526 43.3823 191.585 41.9739C191.603 41.6037 191.753 41.4967 192.083 41.5054C192.606 41.517 193.128 41.5054 193.651 41.5112C193.935 41.5141 194.211 41.4447 194.126 41.1063C194.083 40.9357 193.822 40.7159 193.648 40.7072C192.799 40.6639 191.944 40.6928 191.091 40.6812C190.77 40.6783 190.648 40.7969 190.651 41.1323C190.665 42.9543 190.668 44.7791 190.656 46.601C190.656 47.003 190.798 47.1678 191.202 47.1591C192.111 47.1418 193.023 47.1505 193.935 47.1505C194.186 47.1505 194.407 47.1447 194.387 46.7861C194.37 46.4709 194.234 46.332 193.916 46.3378C193.276 46.3494 192.637 46.3291 191.998 46.3436C191.699 46.3494 191.574 46.2453 191.585 45.9387C191.603 45.5078 191.608 45.0769 191.588 44.646C191.571 44.247 191.716 44.085 192.125 44.0908C192.606 44.0966 193.089 44.0445 193.566 43.9838C193.742 43.9607 193.904 43.8392 194.072 43.7611V43.7582Z" fill="#BB573E"/>
<path d="M205.239 43.7641C205.222 43.6832 205.205 43.5993 205.188 43.5183C204.813 43.4807 204.441 43.4142 204.066 43.4055C202.685 43.3766 202.696 43.3853 202.753 41.9827C202.767 41.6183 202.909 41.4998 203.245 41.5084C203.787 41.5229 204.333 41.5431 204.87 41.494C205.029 41.4795 205.165 41.2424 205.313 41.1093C205.168 40.9705 205.029 40.7189 204.878 40.7103C204.009 40.6698 203.137 40.69 202.264 40.6871C201.949 40.6871 201.818 40.8288 201.821 41.1556C201.832 42.9775 201.835 44.8023 201.827 46.6243C201.827 46.9915 201.952 47.1679 202.332 47.1622C203.205 47.1477 204.077 47.1506 204.949 47.1564C205.245 47.1564 205.501 47.0667 205.41 46.7399C205.361 46.5722 205.094 46.3756 204.913 46.3611C204.336 46.3119 203.75 46.3322 203.171 46.3495C202.878 46.3582 202.742 46.2628 202.753 45.9504C202.77 45.4993 202.773 45.0482 202.759 44.597C202.744 44.2037 202.929 44.0967 203.29 44.0967C203.77 44.0938 204.253 44.0475 204.731 43.9868C204.907 43.9637 205.072 43.8422 205.242 43.767L205.239 43.7641Z" fill="#BB573E"/>
<path d="M181.978 41.5892C182.276 40.9703 182.2 40.713 181.606 40.6204C179.75 40.3283 177.912 40.9183 177.415 43.2232C177.031 44.9959 178.011 47.0405 179.941 47.1649C180.523 47.2025 181.114 47.1273 181.7 47.0897C182.038 47.0694 182.265 46.9306 182.154 46.5315C182.049 46.144 181.788 46.2279 181.506 46.3031C180.813 46.4853 180.117 46.4506 179.48 46.1238C178.531 45.6379 178.06 44.3452 178.369 43.2232C178.747 41.8668 179.858 41.1728 181.219 41.4417C181.464 41.4909 181.711 41.5372 181.978 41.5892Z" fill="#BB573E"/>
<path d="M187.332 40.5366C186.948 40.5742 186.653 40.5684 186.374 40.6321C184.419 41.0832 183.385 43.0295 183.973 45.0538C184.55 47.0377 186.553 47.6305 188.332 47.0406C188.465 46.9972 188.647 46.6704 188.605 46.6097C188.5 46.4477 188.295 46.3234 188.107 46.254C188.008 46.2164 187.857 46.3407 187.727 46.3639C186.567 46.5808 185.405 46.1528 185.013 45.0278C184.729 44.2181 184.726 43.3794 185.078 42.5668C185.32 42.0057 185.743 41.6095 186.323 41.5257C186.903 41.4418 187.505 41.5257 188.096 41.4939C188.286 41.4823 188.471 41.3319 188.659 41.248C188.531 41.0601 188.437 40.7795 188.264 40.7072C187.954 40.58 187.59 40.5771 187.337 40.5366H187.332Z" fill="#BB573E"/>
<path d="M65.2769 40.7709C65.3167 40.9097 65.3338 41.0457 65.3935 41.1584C65.8367 41.9826 66.3227 42.7837 66.7233 43.6282C66.9336 44.0677 67.0387 44.5738 67.1126 45.0626C67.1979 45.6178 67.1723 46.1933 67.249 46.7514C67.2717 46.925 67.465 47.0753 67.5786 47.2344C67.7008 47.0638 67.9111 46.9076 67.9338 46.7225C68.0106 46.1239 68.0106 45.5166 68.0589 44.9151C68.0759 44.7068 68.093 44.4726 68.1896 44.2991C68.7408 43.3129 69.3177 42.3412 69.8775 41.3609C69.9855 41.1729 70.048 40.9618 70.1361 40.7536C69.4484 40.554 69.0875 40.7738 68.8289 41.3609C68.5192 42.0665 68.1157 42.7259 67.6951 43.5154C67.5332 43.2377 67.4223 43.0671 67.3257 42.8878C67.0245 42.3181 66.7347 41.7455 66.4335 41.1787C66.1834 40.7102 65.8055 40.5858 65.2798 40.7738L65.2769 40.7709Z" fill="#BB573E"/>
<path d="M136.669 43.4228C136.604 43.4141 136.538 43.4026 136.473 43.3939C136.177 42.8039 135.885 42.2111 135.584 41.6269C135.478 41.4216 135.39 41.1555 135.217 41.0427C134.964 40.8808 134.64 40.8316 134.347 40.7333C134.404 40.9907 134.401 41.2828 134.526 41.4997C135.436 43.0873 136.456 44.6316 136.106 46.6155C136.104 46.6357 136.106 46.656 136.106 46.6733C136.086 47.0146 136.231 47.1621 136.584 47.1708C136.95 47.1794 137.053 47.0233 137.044 46.6791C137.027 46.0718 137.016 45.4645 137.047 44.8601C137.061 44.5767 137.132 44.2788 137.257 44.0272C137.504 43.5211 137.808 43.0411 138.084 42.5494C138.411 41.9682 138.735 41.3869 139.079 40.7709C138.431 40.5685 138.064 40.7217 137.823 41.2336C137.615 41.6732 137.362 42.0925 137.135 42.5234C136.979 42.8184 136.828 43.1192 136.675 43.417L136.669 43.4228Z" fill="#BB573E"/>
<path d="M87.3618 44.3338C87.3618 45.0192 87.3561 45.7046 87.3618 46.3899C87.3646 46.7428 87.2424 47.1621 87.8505 47.1708C88.4757 47.1794 88.2796 46.737 88.2825 46.4333C88.2995 45.2766 88.2881 44.1227 88.291 42.9659C88.291 42.0135 88.7674 41.5286 89.7203 41.5113C89.7601 41.5113 89.8084 41.5257 89.834 41.5113C89.9817 41.4071 90.1238 41.2973 90.2687 41.1874C90.1267 41.0225 89.9903 40.7189 89.8425 40.716C88.4871 40.6784 87.1316 40.6784 85.7762 40.7102C85.6398 40.7131 85.5091 40.9907 85.3784 41.1411C85.5176 41.2654 85.6426 41.4708 85.7989 41.4939C86.1598 41.5489 86.5349 41.5373 86.8986 41.5113C87.2652 41.4852 87.3675 41.6385 87.3589 41.9884C87.3419 42.7721 87.3533 43.5559 87.3533 44.3396L87.3618 44.3338Z" fill="#BB573E"/>
<path d="M163.317 44.2181C163.317 44.2181 163.32 44.2181 163.323 44.2181C163.323 44.9816 163.332 45.7479 163.32 46.5114C163.315 46.8758 163.423 47.1447 163.818 47.1563C164.266 47.1707 164.141 46.7977 164.147 46.5548C164.19 45.0683 164.241 43.579 164.244 42.0925C164.244 41.6067 164.428 41.4707 164.863 41.5054C165.19 41.5315 165.528 41.5517 165.849 41.4939C165.994 41.4679 166.202 41.2394 166.202 41.1006C166.202 40.9647 165.98 40.7131 165.849 40.7102C164.514 40.6812 163.175 40.6812 161.837 40.7102C161.709 40.7102 161.49 40.9675 161.49 41.1035C161.49 41.2365 161.701 41.4592 161.848 41.4881C162.167 41.5488 162.505 41.5315 162.834 41.5083C163.19 41.4852 163.326 41.6269 163.32 41.9797C163.309 42.7258 163.317 43.4691 163.317 44.2152V44.2181Z" fill="#BB573E"/>
<path d="M122.379 43.9462H122.384C122.384 44.8283 122.396 45.7103 122.379 46.5894C122.373 46.9741 122.478 47.1736 122.901 47.1649C123.774 47.1447 124.646 47.1736 125.516 47.136C125.675 47.1302 125.828 46.9075 125.982 46.7861C125.817 46.6386 125.666 46.387 125.487 46.3668C124.95 46.3089 124.402 46.306 123.865 46.3465C123.379 46.3841 123.282 46.1817 123.282 45.7363C123.279 44.2296 123.24 42.7229 123.208 41.2191C123.203 40.9762 123.262 40.687 122.859 40.6841C122.464 40.6812 122.37 40.8865 122.376 41.2423C122.387 42.1445 122.379 43.0439 122.379 43.9462Z" fill="#BB573E"/>
<path d="M197.274 42.7522C197.246 42.7522 197.22 42.7522 197.192 42.7522C197.192 42.2432 197.192 41.7313 197.192 41.2224C197.192 40.9389 197.206 40.6613 196.783 40.6845C196.405 40.7076 196.357 40.9303 196.359 41.2397C196.365 43.024 196.374 44.8084 196.359 46.5927C196.357 47.038 196.53 47.1768 196.948 47.1653C197.8 47.1421 198.653 47.1711 199.505 47.1364C199.664 47.1306 199.815 46.9195 199.971 46.8038C199.818 46.6505 199.675 46.3845 199.508 46.3671C198.931 46.3093 198.346 46.3295 197.766 46.3411C197.422 46.3469 197.269 46.2167 197.274 45.861C197.283 44.8228 197.277 43.7875 197.277 42.7493L197.274 42.7522Z" fill="#BB573E"/>
<path d="M25.1735 56.9519C22.2438 56.9027 19.3738 56.1248 16.7027 54.8986C14.9353 54.0889 13.253 53.0941 11.6589 51.9113C7.58691 48.8921 4.54357 45.0198 2.46637 40.3667C1.42066 38.0213 0.732997 35.5632 0.36359 33.024C0.0822733 31.0749 -0.130846 29.117 0.0907981 27.1418C0.0993228 27.0696 0.107848 26.9973 0.119214 26.925C0.266977 23.5703 1.06546 20.366 2.38964 17.3006C5.29943 10.5711 10.0989 5.6866 16.6601 2.58645C18.922 1.51932 21.2947 0.744284 23.7953 0.443523C24.7075 0.333629 25.6196 0.209276 26.5318 0.090707C26.5716 0.090707 26.6113 0.0849232 26.6511 0.0820312C27.8076 0.0820312 28.9642 0.0820312 30.1235 0.0849232L30.331 0.102275C31.7773 0.330737 33.2294 0.533173 34.6701 0.799231C37.2588 1.2764 39.6826 2.23652 41.973 3.52922C47.3492 6.55996 51.3672 10.8834 54.0156 16.5169C55.0954 18.816 55.8513 21.2163 56.2747 23.712C56.6554 25.9619 56.7862 28.2466 56.6441 30.5225C56.2491 36.7199 54.0383 42.1915 50.2164 47.0557C46.5564 51.7146 41.7485 54.5342 36.2585 56.3186C35.7073 56.4979 35.1304 56.6078 34.5564 56.7148C33.721 56.868 32.4139 57.1023 31.5671 57.082H27.9639L25.1792 56.9548L25.1735 56.9519ZM29.5296 53.2849C35.0565 53.1982 40.9841 50.7979 45.7636 45.8064C50.5602 40.8004 52.7909 34.7071 52.5749 27.752C52.1743 14.9176 41.7911 4.69756 29.1915 4.2146C21.5505 3.92252 15.3274 7.02267 10.2154 12.5839C6.22579 16.9275 4.23383 22.214 4.12017 28.047C3.84169 42.3447 15.1086 53.1606 29.5296 53.2849Z" fill="#BB573E"/>
<path d="M148.376 33.9838C149.416 28.223 150.439 22.5664 151.471 16.8491H154C153.886 17.8352 153.775 18.7953 153.65 19.8972C153.827 19.6918 153.917 19.6022 153.986 19.4981C155.287 17.4969 157.185 16.4702 159.487 16.3893C161.112 16.3314 162.587 16.8867 163.329 18.9949C163.423 19.2581 163.531 19.5154 163.684 19.903C163.889 19.6224 164.016 19.4605 164.133 19.2928C165.605 17.1556 168.569 15.9699 170.924 16.5743C172.59 17.0023 173.74 18.5958 173.814 20.3396C173.911 22.6994 173.337 24.9552 172.933 27.2398C172.572 29.2959 172.18 31.3463 171.825 33.4025C171.754 33.8131 171.578 33.9896 171.18 33.9838C170.541 33.9751 169.901 33.9751 169.262 33.9809C168.867 33.9838 168.768 33.816 168.844 33.4256C169.487 30.0912 170.14 26.7597 170.725 23.4166C170.862 22.6387 170.842 21.8001 170.72 21.0163C170.438 19.2349 168.773 18.4628 167.014 19.232C165.747 19.7844 164.912 20.8081 164.213 21.9591C163.312 23.4427 163.045 25.1316 162.746 26.806C162.354 29.0154 161.959 31.2249 161.567 33.4314C161.504 33.7813 161.354 33.9982 160.953 33.9867C160.314 33.9693 159.674 33.9751 159.035 33.9809C158.683 33.9838 158.569 33.8826 158.649 33.4893C159.154 30.9241 159.635 28.3532 160.115 25.7822C160.305 24.7672 160.516 23.7492 160.621 22.7255C160.683 22.1326 160.609 21.5138 160.51 20.9209C160.203 19.099 158.6 18.5669 157.157 19.1597C155.324 19.9145 154.142 21.401 153.486 23.1911C152.909 24.7701 152.627 26.4647 152.292 28.1247C151.928 29.9206 151.661 31.7367 151.32 33.5384C151.289 33.7061 151.047 33.9549 150.891 33.9606C150.101 34.004 149.308 33.9809 148.376 33.9809V33.9838Z" fill="#BB573E"/>
<path d="M185.354 8.82666H188.335C187.624 12.3866 186.92 15.909 186.218 19.4285C186.272 19.4545 186.326 19.4805 186.38 19.5095C186.485 19.3938 186.598 19.2839 186.695 19.1624C187.92 17.5719 189.494 16.6407 191.503 16.4382C194.654 16.1172 196.663 18.1329 197.058 20.9092C197.587 24.6253 196.57 27.9192 194.217 30.7967C192.802 32.526 191.006 33.677 188.826 34.1282C187.241 34.4579 185.641 34.4723 184.069 33.9662C182.654 33.5093 181.64 32.1964 181.472 30.6636C181.296 29.0557 181.705 27.523 182.006 25.9787C183.015 20.8282 184.047 15.6805 185.064 10.53C185.172 9.97765 185.257 9.41951 185.357 8.82955L185.354 8.82666ZM184.541 28.2431C184.371 31.0107 185.118 31.7105 186.479 31.939C187.738 32.1501 188.977 31.9014 190.02 31.1321C192.915 29.0008 194.205 26.0423 194.132 22.4708C194.112 21.4239 193.756 20.4696 192.947 19.6974C192.034 18.827 189.829 18.7286 188.61 19.6888C187.945 20.2122 187.292 20.7993 186.792 21.476C185.112 23.7432 184.769 26.4501 184.541 28.246V28.2431Z" fill="#BB573E"/>
<path d="M76.5069 33.978C76.6916 32.9861 76.8592 32.0896 77.0297 31.1931C77.5185 28.6048 78.047 26.0252 78.4676 23.4253C78.6011 22.5953 78.5358 21.6988 78.4022 20.8602C78.1323 19.1626 76.3733 18.7086 75.2992 19.0036C73.4266 19.5154 72.2502 20.8515 71.3039 22.4536C70.4486 23.8967 70.227 25.5364 69.9258 27.1472C69.5251 29.296 69.1529 31.4475 68.7408 33.5934C68.7124 33.7466 68.451 33.9491 68.289 33.9606C67.5928 34.0011 66.8938 33.9751 66.1976 33.9838C65.8339 33.9867 65.7486 33.8681 65.8225 33.4835C66.3226 30.8981 66.7887 28.3069 67.2746 25.7186C68.0759 21.4444 68.8829 17.1701 69.6842 12.8958C69.9371 11.5568 70.1844 10.2179 70.4401 8.84131H73.4096C72.7361 12.3839 72.0712 15.8947 71.4034 19.4026C71.4546 19.4316 71.5085 19.4634 71.5597 19.4923C71.7131 19.2985 71.8609 19.0961 72.0257 18.911C73.8045 16.8982 76.0096 16.0451 78.6438 16.5801C80.3544 16.9272 81.4825 18.5756 81.5706 20.3512C81.6985 22.9915 81.0136 25.5046 80.5732 28.0582C80.2663 29.8454 79.8969 31.6211 79.5815 33.4083C79.4991 33.8681 79.2945 34.0156 78.8398 33.9925C78.1096 33.9549 77.3736 33.9809 76.5126 33.9809L76.5069 33.978Z" fill="#BB573E"/>
<path d="M100.061 30.045C99.7 30.5425 99.3561 31.0514 98.9753 31.5344C97.3045 33.6571 95.1932 34.7358 92.471 34.2123C90.5614 33.845 89.5129 32.5119 89.0071 30.7218C88.3563 28.4256 88.7627 26.1785 89.5981 24.0154C90.7717 20.9702 92.7892 18.6769 95.7729 17.3205C97.546 16.5137 99.43 16.3344 101.34 16.4559C102.414 16.5253 103.476 16.7508 104.548 16.881C105.028 16.9388 105.107 17.202 105.022 17.6155C104.502 20.1373 103.925 22.6504 103.488 25.1895C103.138 27.2052 102.945 29.2498 102.718 31.2828C102.632 32.0376 102.63 32.8039 102.613 33.5674C102.604 33.8624 102.513 33.9925 102.203 33.9839C101.564 33.9665 100.925 33.9723 100.285 33.9752C99.9415 33.9752 99.7795 33.8219 99.8165 33.472C99.9131 32.5408 100.01 31.6125 100.106 30.6813C100.126 30.4788 100.146 30.2764 100.166 30.074C100.132 30.0624 100.101 30.0508 100.067 30.0421L100.061 30.045ZM91.7918 28.0496C91.7918 28.2839 91.7662 28.5239 91.7975 28.7552C91.9481 29.9062 92.2067 31.0167 93.3604 31.5893C94.4032 32.107 95.4461 31.9479 96.4037 31.3695C98.0802 30.3574 99.1515 28.8131 99.9017 27.0345C100.928 24.6024 101.072 21.9534 101.663 19.4143C101.735 19.1106 101.59 18.9603 101.269 18.9082C99.5493 18.619 97.9041 18.8128 96.4037 19.7353C93.3291 21.6237 92.0305 24.5446 91.7918 28.0525V28.0496Z" fill="#BB573E"/>
<path d="M137.388 29.9897C136.342 31.641 135.154 33.0378 133.373 33.8389C131.216 34.8106 128.792 34.4231 127.329 32.8065C126.442 31.8232 126.07 30.5942 125.999 29.313C125.823 26.1435 126.729 23.2747 128.678 20.7905C130.517 18.4452 132.884 16.9558 135.862 16.5567C137.837 16.2936 139.792 16.4526 141.741 16.8315C142.216 16.924 142.346 17.1264 142.256 17.5862C141.653 20.6083 141.039 23.6275 140.48 26.6582C140.096 28.7346 139.863 30.8313 139.94 32.954C139.977 33.9835 139.951 33.9864 138.962 33.9864C138.479 33.9864 137.993 33.9806 137.51 33.9806C137.169 33.9806 137.05 33.8678 137.095 33.4774C137.226 32.3206 137.3 31.1552 137.394 29.9926L137.388 29.9897ZM137.206 18.7719C135.998 18.7633 134.856 19.0293 133.816 19.6395C131.759 20.8483 130.346 22.624 129.593 24.8942C129.071 26.4732 128.752 28.0926 129.23 29.7729C129.664 31.2998 131.046 32.1413 132.588 31.777C134.131 31.4126 135.117 30.3165 135.993 29.1106C137.135 27.5345 137.732 25.7241 138.081 23.8184C138.331 22.4563 138.601 21.0999 138.868 19.7436C138.965 19.252 138.908 18.8876 138.3 18.8587C137.934 18.8413 137.57 18.8009 137.203 18.7719H137.206Z" fill="#BB573E"/>
<path d="M210.076 34.4403C209.28 34.2726 208.217 34.1887 207.265 33.8157C205.222 33.0175 204.171 31.3286 203.819 29.2175C203.176 25.3655 204.367 22.0715 206.922 19.2085C208.2 17.777 209.735 16.8082 211.619 16.5075C213.542 16.2009 215.372 16.4091 216.827 17.9101C218.259 19.3849 218.22 22.3145 216.833 23.8298C215.512 25.2729 213.798 25.8282 211.974 26.0711C210.368 26.2851 208.743 26.34 207.126 26.4355C206.748 26.4586 206.538 26.5164 206.586 26.956C206.657 27.6356 206.626 28.3326 206.774 28.9919C207.18 30.8023 208.524 31.8 210.528 31.8492C211.798 31.8781 213.025 31.6381 214.213 31.184C214.321 31.1435 214.426 31.0915 214.534 31.0481C215.361 30.7271 215.415 30.756 215.546 31.6554C215.557 31.7335 215.549 31.8116 215.563 31.8897C215.756 33.1158 215.762 33.1332 214.619 33.5178C213.923 33.7521 213.216 33.9632 212.5 34.1107C211.786 34.2582 211.056 34.3102 210.073 34.4403H210.076ZM206.924 24.0728C208.842 24.1451 210.528 24.0612 212.196 23.6505C213.079 23.4336 213.892 23.1011 214.511 22.3983C215.182 21.6406 215.145 20.3508 214.466 19.6134C213.667 18.7487 212.656 18.662 211.622 18.8644C209.797 19.2172 208.686 20.5244 207.802 22.0484C207.459 22.6413 207.248 23.3122 206.924 24.0757V24.0728Z" fill="#BB573E"/>
<path d="M235.391 30.9153C235.485 31.4908 235.616 32.1357 235.673 32.7864C235.687 32.9426 235.477 33.2 235.309 33.2752C233.399 34.1341 231.379 34.4898 229.308 34.3134C226.287 34.0531 224.301 32.2427 223.855 29.1397C223.187 24.5068 224.849 20.7039 228.478 17.8554C230.294 16.4296 232.448 16.0768 234.698 16.6205C236.559 17.0716 237.824 18.5436 237.989 20.4928C238.117 22.0082 237.449 23.9342 235.423 25.0071C234.13 25.6896 232.754 26.0598 231.325 26.1986C229.961 26.3316 228.589 26.3837 227.219 26.4299C226.776 26.4444 226.529 26.5745 226.614 27.0373C226.796 28.0263 226.821 29.1021 227.245 29.9783C228.049 31.647 229.597 32.0345 231.592 31.7829C232.825 31.6267 234.027 31.2334 235.397 30.9124L235.391 30.9153ZM227.049 23.9284C227.077 24.0094 227.105 24.0875 227.134 24.1685C228.435 24.0846 229.745 24.0557 231.038 23.8966C232.126 23.7607 233.209 23.4975 234.127 22.8208C234.823 22.306 235.141 21.5744 235.079 20.7357C235.019 19.9202 234.587 19.229 233.78 19.0439C233.05 18.8762 232.22 18.7432 231.521 18.9312C228.992 19.6166 227.867 21.6611 227.046 23.9313L227.049 23.9284Z" fill="#BB573E"/>
<path d="M116.627 16.7998C116.497 17.945 116.374 18.9948 116.244 20.1516C116.394 20.0243 116.474 19.9781 116.525 19.9115C117.059 19.2233 117.559 18.5061 118.13 17.8496C119.074 16.7622 120.344 16.4152 121.719 16.3371C122.191 16.3111 122.299 16.5945 122.234 16.9733C122.112 17.6847 121.967 18.3933 121.799 19.0931C121.771 19.2146 121.58 19.391 121.475 19.3823C119.02 19.2001 117.764 20.8023 116.695 22.6647C115.809 24.2147 115.499 25.9528 115.181 27.6851C114.82 29.64 114.482 31.6007 114.101 33.5528C114.067 33.7234 113.8 33.9548 113.627 33.9663C112.933 34.0097 112.234 33.9779 111.535 33.9779C111.169 33.9779 111.089 33.8275 111.16 33.4573C111.876 29.7644 112.601 26.0714 113.263 22.3668C113.547 20.7762 113.703 19.1596 113.882 17.5517C113.942 17.0254 114.07 16.7304 114.681 16.7911C115.272 16.8519 115.874 16.8027 116.627 16.8027V16.7998Z" fill="#BB573E"/>
<path d="M140.892 43.0442C140.914 42.4398 140.926 41.8354 140.96 41.2338C140.977 40.9186 141.071 40.6641 141.477 40.6844C141.846 40.7017 142.182 40.6439 142.332 41.1529C142.727 42.5005 143.179 43.8308 143.611 45.1698C143.645 45.2739 143.691 45.3751 143.787 45.6267C144.097 44.7504 144.361 44.0101 144.623 43.2669C144.856 42.6046 145.094 41.9424 145.316 41.2743C145.469 40.8087 145.779 40.6584 146.248 40.6728C146.757 40.6902 146.72 41.0979 146.759 41.3842C146.848 42.0407 146.87 42.7058 146.904 43.3681C146.956 44.4034 147.021 45.4387 147.018 46.474C147.018 46.7314 146.785 46.9888 146.66 47.2462C146.478 46.9772 146.151 46.7141 146.143 46.4364C146.089 45.0946 146.117 43.7498 146.117 42.408C146.032 42.3906 145.95 42.3762 145.864 42.3588C145.776 42.5265 145.671 42.6885 145.606 42.8678C145.174 44.0824 144.762 45.3028 144.321 46.5145C144.222 46.7893 144.032 47.0293 143.801 47.4313C142.679 45.8031 142.517 43.9494 141.642 42.2489C141.605 42.6046 141.582 42.8244 141.559 43.0471C141.338 43.0471 141.116 43.0471 140.894 43.0471L140.892 43.0442Z" fill="#BB573E"/>
<path d="M158.91 45.1C158.91 44.8166 158.91 44.5332 158.91 44.2469C158.91 43.2289 158.916 42.211 158.904 41.193C158.902 40.8547 159.015 40.684 159.37 40.6812C159.692 40.6812 159.834 40.8229 159.834 41.1381C159.834 42.9976 159.839 44.8571 159.822 46.7195C159.822 46.8612 159.66 47.1244 159.592 47.1157C159.328 47.0897 158.964 47.0608 158.828 46.8844C158.325 46.2192 157.893 45.4991 157.444 44.7906C156.915 43.9577 156.401 43.1162 155.759 42.318C155.793 42.5493 155.858 42.7836 155.853 43.0149C155.835 44.2845 155.807 45.5541 155.762 46.8236C155.759 46.9393 155.585 47.1533 155.531 47.1417C155.341 47.1012 155.142 47.0087 155 46.8757C154.926 46.8063 154.949 46.6183 154.949 46.4824C154.949 44.7588 154.94 43.0352 154.957 41.3145C154.957 41.1149 155.091 40.7506 155.182 40.7448C155.463 40.7245 155.838 40.7506 156.023 40.9241C156.353 41.2364 156.586 41.6644 156.83 42.0606C157.467 43.0815 158.089 44.1139 158.72 45.1405L158.907 45.1H158.91Z" fill="#BB573E"/>
<path d="M77.0099 43.8279C77.0155 45.4445 76.4046 46.529 75.2168 47.009C73.3044 47.7812 71.3608 46.5608 71.2017 44.467C71.105 43.1859 71.321 41.9858 72.3951 41.15C73.3329 40.4183 74.3984 40.3316 75.4555 40.8579C76.5325 41.3929 76.9815 42.3501 77.0099 43.5329C77.0099 43.6313 77.0099 43.7296 77.0099 43.825V43.8279ZM76.1858 43.9928C76.0324 43.4577 75.9443 42.9546 75.7454 42.5005C75.3958 41.6966 74.7366 41.338 73.8841 41.3929C73.1965 41.4363 72.5543 41.925 72.3809 42.7319C72.2388 43.3797 72.2161 44.0766 72.2644 44.7418C72.3241 45.5284 73.0856 46.2658 73.8472 46.4249C74.4524 46.5521 75.3276 46.1791 75.6232 45.5746C75.8675 45.0801 75.9983 44.5278 76.183 43.9928H76.1858Z" fill="#BB573E"/>
<path d="M130.031 40.4384C131.861 40.4066 133.191 42.321 132.924 44.3194C132.745 45.667 132.151 46.7486 130.744 47.1332C129.275 47.5381 127.94 46.8556 127.343 45.4299C126.664 43.8075 127.17 41.8641 128.553 41.0081C128.997 40.7362 129.537 40.6235 130.031 40.4384ZM132.037 43.9058C131.875 43.3737 131.801 42.7924 131.537 42.321C130.849 41.1093 129.366 41.0486 128.551 42.1446C127.923 42.992 127.906 44.8023 128.519 45.6525C129.198 46.5953 130.409 46.7081 131.247 45.9186C131.824 45.3778 131.943 44.6837 132.037 43.9029V43.9058Z" fill="#BB573E"/>
<path d="M231.498 43.9059C231.49 45.7365 230.728 46.821 229.208 47.1651C227.679 47.5122 226.216 46.5752 225.812 45.002C225.56 44.0129 225.659 43.0644 226.111 42.1534C226.693 40.9735 228.063 40.317 229.327 40.6149C230.615 40.9186 231.501 42.0696 231.498 43.4374C231.498 43.5936 231.498 43.7498 231.498 43.9088V43.9059ZM230.694 44.0361C230.652 44.0216 230.606 44.0043 230.564 43.9898C230.564 43.8134 230.575 43.637 230.564 43.4635C230.487 42.4484 229.731 41.4623 228.981 41.3928C227.887 41.2887 227.188 41.7919 226.841 43.0065C226.605 43.8336 226.634 44.6723 227.049 45.4473C227.745 46.7429 229.416 46.8037 230.146 45.5341C230.407 45.0801 230.518 44.5393 230.694 44.0361Z" fill="#BB573E"/>
<path d="M234.505 44.4122C234.505 44.9819 234.511 45.5631 234.505 46.1444C234.505 46.3584 234.513 46.5869 234.445 46.7807C234.391 46.931 234.175 47.1653 234.11 47.1421C233.922 47.0727 233.681 46.9195 233.635 46.7488C233.553 46.4568 233.596 46.1271 233.596 45.8147C233.593 44.3052 233.601 42.7956 233.581 41.2889C233.576 40.8898 233.652 40.7307 234.101 40.6584C234.928 40.5254 235.724 40.537 236.5 40.8262C237.665 41.26 237.949 42.8274 237.011 43.6516C236.77 43.8656 236.704 44.0189 236.832 44.3428C237.119 45.0628 237.358 45.8061 237.568 46.5522C237.625 46.7517 237.503 47.0004 237.463 47.226C237.219 47.0698 236.878 46.9686 236.755 46.7459C236.556 46.3787 236.505 45.9304 236.389 45.5169C236.13 44.6001 235.585 44.2618 234.508 44.4151L234.505 44.4122ZM234.519 43.6689C234.996 43.6227 235.377 43.614 235.747 43.5388C236.227 43.4405 236.576 43.1021 236.574 42.6192C236.574 42.2953 236.4 41.795 236.164 41.688C235.721 41.4884 235.175 41.5116 234.672 41.4653C234.63 41.4624 234.53 41.6475 234.528 41.7458C234.513 42.3444 234.522 42.946 234.522 43.6689H234.519Z" fill="#BB573E"/>
<path d="M210.726 43.9984C210.985 44.866 211.258 45.7336 211.497 46.607C211.545 46.7863 211.471 47.0003 211.454 47.1969C211.215 47.1044 210.905 47.0784 210.758 46.9048C210.579 46.6995 210.533 46.3756 210.442 46.098C210.346 45.803 210.297 45.4878 210.172 45.2044C209.877 44.5306 209.411 44.3021 208.445 44.3831C208.445 44.9268 208.445 45.4878 208.445 46.0459C208.445 46.2426 208.487 46.4595 208.419 46.6272C208.337 46.8268 208.158 46.9858 208.018 47.1622C207.859 46.98 207.564 46.8007 207.561 46.6156C207.521 44.7735 207.524 42.9313 207.541 41.0863C207.541 40.9504 207.76 40.7103 207.888 40.7016C208.575 40.6612 209.272 40.6293 209.954 40.6901C210.681 40.7566 211.207 41.1499 211.403 41.9191C211.585 42.6421 211.38 43.2292 210.857 43.7208C210.758 43.8134 210.636 43.877 210.522 43.9551C210.587 43.9666 210.655 43.9811 210.721 43.9927L210.726 43.9984ZM208.456 42.5351C208.45 43.7324 208.482 43.7642 209.499 43.6283C209.519 43.6283 209.539 43.6283 209.556 43.6225C210.076 43.4663 210.448 43.1424 210.539 42.5901C210.613 42.1418 210.417 41.789 209.999 41.5924C208.914 41.0892 208.462 41.3697 208.456 42.5351Z" fill="#BB573E"/>
<path d="M95.7359 43.3912C95.7359 42.5207 95.7473 41.8585 95.7302 41.1962C95.7217 40.855 95.8411 40.693 96.1963 40.6844C96.5628 40.6757 96.668 40.8637 96.668 41.1933C96.668 43.0355 96.6651 44.8777 96.6736 46.7198C96.6736 47.0351 96.5856 47.1883 96.2417 47.1739C95.9178 47.1594 95.7302 47.0669 95.7359 46.6996C95.7473 46.0344 95.716 45.3664 95.7416 44.7013C95.7586 44.2617 95.662 44.0535 95.1704 44.0911C94.5737 44.1344 93.9684 44.1229 93.3689 44.094C92.971 44.0737 92.8148 44.1923 92.8318 44.6174C92.8602 45.3201 92.8233 46.0287 92.8347 46.7343C92.8403 47.0669 92.7125 47.1854 92.3885 47.1768C92.0873 47.1681 91.9026 47.0842 91.9026 46.7459C91.9026 44.8661 91.9026 42.9835 91.9026 41.1037C91.9026 40.7509 92.1271 40.6352 92.3942 40.7075C92.5619 40.7538 92.7949 40.9591 92.8091 41.1124C92.8602 41.6763 92.8489 42.2489 92.8318 42.8157C92.8176 43.2351 92.9568 43.4201 93.4001 43.4028C94.1446 43.3739 94.8948 43.3941 95.7359 43.3941V43.3912Z" fill="#BB573E"/>
<path d="M175.44 47.3675C175.119 47.113 174.954 47.0031 174.817 46.8614C174.741 46.7833 174.715 46.6532 174.67 46.5462C174.485 46.1037 174.408 45.4039 174.096 45.2708C173.564 45.0482 172.885 45.1552 172.274 45.1841C172.138 45.1899 171.964 45.4328 171.893 45.6034C171.726 45.9967 171.603 46.4103 171.478 46.8209C171.362 47.2084 171.052 47.2258 170.785 47.1275C170.683 47.0899 170.6 46.7342 170.654 46.5722C171.24 44.7329 171.859 42.9052 172.456 41.0689C172.575 40.7016 172.831 40.6958 173.135 40.6756C173.576 40.6437 173.769 40.8953 173.888 41.2568C174.297 42.4975 174.704 43.7381 175.11 44.9788C175.298 45.5514 175.511 46.1211 175.664 46.7023C175.704 46.8498 175.559 47.0436 175.445 47.3646L175.44 47.3675ZM173.953 44.2905C173.641 43.4692 173.55 42.6507 173.002 41.9191C172.743 42.7809 172.521 43.5241 172.294 44.2905H173.953Z" fill="#BB573E"/>
<path d="M213.136 47.0554C213.386 46.289 213.625 45.5545 213.866 44.8199C214.259 43.6342 214.662 42.4514 215.037 41.2599C215.159 40.8724 215.347 40.6758 215.776 40.6758C216.199 40.6758 216.395 40.8493 216.523 41.2455C217.083 42.9951 217.677 44.7303 218.234 46.4799C218.296 46.6736 218.271 47.0641 218.163 47.119C217.842 47.2838 217.575 47.1132 217.444 46.7575C217.336 46.4654 217.163 46.1849 217.109 45.8842C216.998 45.2797 216.677 45.1294 216.097 45.1496C214.69 45.1959 214.665 45.1583 214.227 46.5522C214.062 47.0698 213.818 47.2752 213.139 47.0583L213.136 47.0554ZM216.614 44.3138C216.347 43.4752 216.106 42.7233 215.867 41.9714C215.799 41.9771 215.728 41.9829 215.659 41.9887C215.438 42.7464 215.219 43.5041 214.983 44.3138H216.617H216.614Z" fill="#BB573E"/>
<path d="M82.8294 43.0294C82.8294 42.4221 82.7982 41.8148 82.8465 41.2104C82.8607 41.0282 83.0568 40.7766 83.2301 40.7072C83.5484 40.58 83.6904 40.8316 83.6848 41.1208C83.6592 42.6217 83.7189 44.1313 83.5569 45.6177C83.4347 46.7369 82.497 47.2575 81.2211 47.2661C80.1583 47.2748 79.2604 46.5084 79.1467 45.3546C79.0047 43.9404 79.0217 42.506 79.0075 41.0832C79.0075 40.953 79.2718 40.7535 79.4451 40.7072C79.7463 40.6234 79.914 40.8056 79.914 41.1294C79.914 41.9334 79.9026 42.7345 79.9225 43.5355C79.9367 44.0792 79.9708 44.6258 80.0418 45.1666C80.1356 45.8896 80.738 46.4333 81.4115 46.4477C82.0622 46.4622 82.6447 45.9821 82.7783 45.2562C82.8436 44.8947 82.8238 44.5188 82.8323 44.1457C82.8408 43.7727 82.8323 43.4025 82.8323 43.0294H82.8294Z" fill="#BB573E"/>
<path d="M152.661 43.7411C152.499 43.8249 152.346 43.9579 152.176 43.9811C151.698 44.0447 151.215 44.091 150.735 44.091C150.348 44.091 150.186 44.2038 150.172 44.6231C150.115 46.338 150.104 46.3351 151.783 46.338C152.036 46.338 152.309 46.2802 152.531 46.364C152.71 46.4306 152.826 46.6648 152.971 46.8267C152.829 46.9366 152.69 47.1333 152.545 47.1391C151.616 47.168 150.687 47.1478 149.754 47.1622C149.377 47.168 149.246 46.9974 149.246 46.6301C149.252 44.8082 149.254 42.9834 149.237 41.1614C149.234 40.7971 149.365 40.6785 149.712 40.6843C150.584 40.6987 151.457 40.6958 152.326 40.693C152.639 40.693 152.917 40.7797 152.829 41.1383C152.789 41.2974 152.505 41.4796 152.318 41.494C151.761 41.5432 151.195 41.5201 150.633 41.5114C150.323 41.5085 150.192 41.6242 150.172 41.9567C150.087 43.3853 150.078 43.3767 151.459 43.4056C151.849 43.4143 152.235 43.4837 152.624 43.5271C152.639 43.5994 152.65 43.6716 152.664 43.7439L152.661 43.7411Z" fill="#BB573E"/>
<path d="M102.973 41.5111V43.4053C103.499 43.4053 104.013 43.4053 104.528 43.4053C104.701 43.4053 104.886 43.388 105.048 43.4371C105.176 43.4776 105.281 43.6049 105.394 43.6945C105.272 43.79 105.156 43.9577 105.022 43.9722C104.357 44.056 103.687 44.1023 102.982 44.163V46.3378C103.704 46.3378 104.411 46.332 105.122 46.3378C105.403 46.3406 105.738 46.2828 105.741 46.7426C105.741 47.1995 105.423 47.1533 105.13 47.1562C104.258 47.1562 103.385 47.1504 102.513 47.1591C102.178 47.162 102.013 47.0492 102.016 46.6848C102.027 44.7645 102.024 42.8414 102.027 40.9212C102.027 40.8662 102.061 40.8142 102.101 40.6956C103.147 40.6956 104.21 40.6782 105.267 40.7187C105.392 40.7245 105.542 41.0195 105.605 41.2075C105.622 41.2595 105.369 41.488 105.233 41.4938C104.502 41.5227 103.766 41.5082 102.971 41.5082L102.973 41.5111Z" fill="#BB573E"/>
<path d="M194.072 43.7582C193.904 43.8363 193.742 43.9577 193.566 43.9809C193.089 44.0416 192.606 44.0936 192.125 44.0879C191.713 44.0821 191.571 44.244 191.588 44.6431C191.605 45.074 191.6 45.5049 191.586 45.9358C191.574 46.2452 191.699 46.3494 191.998 46.3407C192.637 46.3262 193.276 46.3465 193.916 46.3349C194.237 46.3291 194.37 46.4679 194.387 46.7831C194.407 47.1389 194.186 47.1475 193.936 47.1475C193.023 47.1475 192.114 47.1388 191.202 47.1562C190.798 47.1649 190.653 46.9971 190.656 46.5981C190.665 44.7761 190.662 42.9513 190.651 41.1294C190.651 40.7968 190.77 40.6754 191.091 40.6783C191.944 40.6898 192.799 40.6609 193.649 40.7043C193.822 40.713 194.083 40.9328 194.126 41.1034C194.211 41.4417 193.938 41.5111 193.651 41.5083C193.128 41.5025 192.606 41.514 192.083 41.5025C191.75 41.4938 191.6 41.6037 191.586 41.971C191.526 43.3793 191.514 43.3707 192.893 43.3996C193.268 43.4083 193.643 43.4719 194.018 43.5095C194.035 43.5904 194.055 43.6714 194.072 43.7553V43.7582Z" fill="#BB573E"/>
<path d="M205.239 43.7644C205.069 43.8396 204.904 43.961 204.728 43.9842C204.25 44.0449 203.767 44.0912 203.287 44.0941C202.926 44.0941 202.742 44.2011 202.756 44.5944C202.77 45.0455 202.767 45.4966 202.75 45.9478C202.739 46.2601 202.875 46.3556 203.168 46.3469C203.748 46.3324 204.333 46.3122 204.91 46.3584C205.092 46.3729 205.359 46.5724 205.407 46.7373C205.501 47.0641 205.242 47.1566 204.947 47.1537C204.074 47.1479 203.202 47.145 202.33 47.1595C201.949 47.1653 201.824 46.9889 201.824 46.6216C201.829 44.7997 201.827 42.9749 201.818 41.153C201.818 40.8291 201.946 40.6845 202.261 40.6845C203.134 40.6903 204.006 40.67 204.876 40.7076C205.026 40.7134 205.165 40.9679 205.31 41.1067C205.163 41.2397 205.023 41.4769 204.867 41.4913C204.33 41.5405 203.784 41.5173 203.242 41.5058C202.904 41.4971 202.764 41.6186 202.75 41.9801C202.693 43.3826 202.682 43.374 204.063 43.4029C204.438 43.4116 204.81 43.4752 205.185 43.5157C205.202 43.5966 205.219 43.6805 205.237 43.7615L205.239 43.7644Z" fill="#BB573E"/>
<path d="M116.329 43.8537C116.329 42.9745 116.335 42.0925 116.326 41.2133C116.323 40.8923 116.397 40.6783 116.766 40.6841C117.454 40.6957 118.15 40.6263 118.827 40.7188C119.705 40.8403 120.259 41.5633 120.282 42.4308C120.307 43.4517 119.816 44.2065 118.935 44.4378C118.491 44.5535 118.031 44.6316 117.574 44.675C117.247 44.7068 117.136 44.8485 117.142 45.1579C117.15 45.6467 117.147 46.1354 117.142 46.6242C117.142 46.8671 117.207 47.2257 116.815 47.136C116.627 47.0926 116.374 46.8006 116.36 46.6068C116.306 45.7884 116.332 44.9642 116.326 44.1429C116.326 44.0445 116.326 43.9462 116.326 43.8508L116.329 43.8537ZM117.258 42.6767C117.258 42.8907 117.233 43.1105 117.267 43.3187C117.295 43.5066 117.343 43.7958 117.463 43.8479C118.227 44.1689 119.239 43.5442 119.344 42.72C119.44 41.9797 118.915 41.4678 117.994 41.4071C117.281 41.3579 117.264 41.3811 117.258 42.3846C117.258 42.4829 117.258 42.5812 117.258 42.6767Z" fill="#BB573E"/>
<path d="M181.978 41.5895C181.708 41.5375 181.464 41.4883 181.219 41.442C179.858 41.1731 178.747 41.87 178.369 43.2235C178.057 44.3455 178.531 45.6382 179.48 46.1241C180.12 46.4509 180.813 46.4885 181.506 46.3034C181.788 46.2282 182.049 46.1443 182.154 46.5318C182.262 46.9309 182.035 47.0697 181.7 47.09C181.114 47.1247 180.523 47.2028 179.941 47.1652C178.011 47.0408 177.031 44.9962 177.415 43.2235C177.915 40.9215 179.75 40.3286 181.606 40.6207C182.2 40.7133 182.276 40.9707 181.978 41.5895Z" fill="#BB573E"/>
<path d="M187.332 40.5366C187.585 40.5771 187.948 40.5771 188.258 40.7072C188.434 40.7795 188.525 41.0601 188.653 41.248C188.465 41.3348 188.281 41.4852 188.09 41.4939C187.499 41.5257 186.897 41.4418 186.317 41.5257C185.738 41.6095 185.314 42.0057 185.073 42.5668C184.723 43.3794 184.726 44.2181 185.007 45.0278C185.399 46.1528 186.562 46.5837 187.721 46.3639C187.852 46.3378 188.002 46.2164 188.102 46.254C188.292 46.3234 188.494 46.4448 188.599 46.6097C188.639 46.6733 188.457 46.9972 188.326 47.0406C186.547 47.6305 184.544 47.0406 183.967 45.0538C183.379 43.0324 184.413 41.0832 186.368 40.6321C186.647 40.5684 186.942 40.5713 187.326 40.5366H187.332Z" fill="#BB573E"/>
<path d="M65.2769 40.7709C65.8026 40.5829 66.1834 40.7073 66.4306 41.1758C66.7318 41.7426 67.0245 42.3181 67.3229 42.8849C67.4167 43.0642 67.5275 43.2377 67.6923 43.5124C68.1129 42.7258 68.5192 42.0636 68.8261 41.358C69.0847 40.7709 69.4456 40.5511 70.1332 40.7506C70.0451 40.9589 69.9826 41.17 69.8746 41.358C69.3148 42.3383 68.7352 43.31 68.1867 44.2962C68.0901 44.4726 68.0731 44.7039 68.056 44.9121C68.0106 45.5137 68.0077 46.121 67.931 46.7196C67.9083 46.9018 67.7008 47.0608 67.5758 47.2315C67.4621 47.0724 67.2689 46.922 67.2462 46.7485C67.1723 46.1904 67.195 45.6178 67.1098 45.0596C67.0359 44.5709 66.9308 44.0648 66.7205 43.6252C66.3198 42.7808 65.8339 41.9797 65.3906 41.1555C65.3309 41.0427 65.3139 40.9068 65.2741 40.768L65.2769 40.7709Z" fill="#BB573E"/>
<path d="M136.669 43.4229C136.822 43.125 136.973 42.8243 137.129 42.5293C137.357 42.0984 137.61 41.6791 137.817 41.2395C138.059 40.7276 138.425 40.5743 139.073 40.7768C138.729 41.3927 138.405 41.974 138.078 42.5553C137.8 43.0469 137.499 43.527 137.252 44.0331C137.129 44.2847 137.055 44.5854 137.041 44.866C137.01 45.4704 137.021 46.0777 137.038 46.685C137.047 47.0262 136.947 47.1853 136.578 47.1766C136.226 47.1679 136.081 47.0205 136.101 46.6792C136.101 46.659 136.098 46.6387 136.101 46.6214C136.45 44.6375 135.43 43.0932 134.521 41.5055C134.396 41.2886 134.399 40.9966 134.342 40.7392C134.634 40.8375 134.958 40.8867 135.211 41.0486C135.385 41.1614 135.473 41.4246 135.578 41.6328C135.879 42.2198 136.172 42.8098 136.467 43.3998C136.533 43.4084 136.598 43.42 136.663 43.4287L136.669 43.4229Z" fill="#BB573E"/>
<path d="M87.3618 44.3337C87.3618 43.55 87.3504 42.7663 87.3675 41.9826C87.376 41.6326 87.2737 41.4794 86.9071 41.5054C86.5406 41.5314 86.1655 41.543 85.8074 41.488C85.654 41.4649 85.5261 41.2596 85.3869 41.1352C85.5204 40.9849 85.6483 40.7072 85.7847 40.7043C87.1401 40.6725 88.4956 40.6725 89.851 40.7101C89.9959 40.713 90.1352 41.0167 90.2772 41.1815C90.1323 41.2914 89.9902 41.4013 89.8425 41.5054C89.8169 41.5228 89.7658 41.5054 89.7288 41.5054C88.7759 41.5228 88.2995 42.0076 88.2995 42.96C88.2995 44.1168 88.3109 45.2707 88.291 46.4275C88.2853 46.7311 88.4814 47.1736 87.8591 47.1649C87.251 47.1562 87.3731 46.7369 87.3703 46.3841C87.3618 45.6987 87.3703 45.0133 87.3703 44.3279L87.3618 44.3337Z" fill="#BB573E"/>
<path d="M163.317 44.2181C163.317 43.472 163.309 42.7288 163.32 41.9827C163.326 41.6298 163.19 41.4881 162.834 41.5113C162.508 41.5344 162.169 41.5518 161.848 41.491C161.701 41.4621 161.49 41.2423 161.49 41.1064C161.49 40.9705 161.709 40.7131 161.837 40.7131C163.172 40.6842 164.511 40.6842 165.849 40.7131C165.98 40.7131 166.202 40.9676 166.202 41.1035C166.202 41.2394 165.994 41.4679 165.849 41.4968C165.531 41.5575 165.193 41.5344 164.863 41.5084C164.428 41.4737 164.244 41.6096 164.244 42.0954C164.241 43.5848 164.19 45.0712 164.147 46.5577C164.139 46.8006 164.264 47.1737 163.818 47.1592C163.423 47.1476 163.315 46.8758 163.32 46.5143C163.332 45.7508 163.323 44.9845 163.323 44.221C163.323 44.221 163.32 44.221 163.317 44.221V44.2181Z" fill="#BB573E"/>
<path d="M122.379 43.9462C122.379 43.0439 122.387 42.1445 122.376 41.2423C122.37 40.8894 122.464 40.6812 122.859 40.6841C123.262 40.687 123.203 40.9762 123.208 41.2191C123.24 42.7258 123.279 44.2325 123.282 45.7363C123.282 46.1788 123.379 46.3812 123.865 46.3465C124.405 46.306 124.953 46.306 125.487 46.3668C125.664 46.387 125.817 46.6386 125.982 46.7861C125.825 46.9075 125.675 47.1302 125.516 47.136C124.646 47.1736 123.774 47.1447 122.901 47.1649C122.478 47.1736 122.373 46.9741 122.379 46.5894C122.396 45.7074 122.384 44.8254 122.384 43.9462H122.379Z" fill="#BB573E"/>
<path d="M197.274 42.7517C197.274 43.7899 197.28 44.8253 197.272 45.8635C197.269 46.2192 197.422 46.3522 197.763 46.3435C198.346 46.332 198.928 46.3117 199.505 46.3696C199.673 46.3869 199.815 46.653 199.968 46.8062C199.815 46.9219 199.661 47.133 199.502 47.1388C198.65 47.1735 197.797 47.1446 196.945 47.1677C196.527 47.1793 196.354 47.0405 196.357 46.5951C196.371 44.8108 196.362 43.0265 196.357 41.2421C196.357 40.9327 196.405 40.7071 196.78 40.6869C197.203 40.6638 197.189 40.9414 197.189 41.2248C197.189 41.7338 197.189 42.2457 197.189 42.7546C197.218 42.7546 197.243 42.7546 197.272 42.7546L197.274 42.7517Z" fill="#BB573E"/>
<path d="M140.892 43.0439C141.113 43.0439 141.335 43.0439 141.557 43.0439C141.485 44.273 141.426 45.5021 141.326 46.7283C141.315 46.8786 141.068 47.1274 140.937 47.1216C140.687 47.11 140.556 46.9596 140.602 46.5981C140.747 45.4182 140.804 44.2296 140.894 43.0439H140.892Z" fill="#BB573E"/>
<path d="M0.119148 26.9214C0.110682 26.9937 0.102216 27.066 0.0909271 27.1383C0.0993935 27.066 0.10786 26.9937 0.119148 26.9214Z" fill="#BB573E"/>
<path d="M30.2506 0.0880181C30.2083 0.0880181 30.166 0.0880181 30.1208 0.0849609C30.1632 0.0849609 30.2055 0.0849609 30.2506 0.0880181Z" fill="#BB573E"/>
<path d="M33.0732 21.9765C33.0732 21.8608 33.0732 21.7451 33.0732 21.6295C33.0846 21.6179 33.1102 21.6005 33.1073 21.5919C33.0988 21.5601 33.0846 21.534 33.0704 21.5051C33.0619 18.7086 33.0505 15.9121 33.0477 13.1156C33.0477 12.9276 33.1102 12.7397 33.1443 12.5517C33.2295 12.5285 33.3148 12.5025 33.4 12.4794C34.7128 12.4794 36.0228 12.4794 37.3356 12.4823C37.3868 12.4909 37.4408 12.4967 37.4919 12.5054C37.8812 12.5228 37.813 12.812 37.813 13.0578C37.813 15.192 37.813 17.3292 37.813 19.4634C37.813 19.6572 37.813 19.8538 37.813 20.2182C40.0209 18.9631 41.8736 17.4506 43.4933 15.6027C43.6354 15.6981 43.7576 15.7588 43.8485 15.8485C44.7038 16.7016 45.5478 17.5663 46.406 18.4136C46.7413 18.7462 46.7327 19.0007 46.3889 19.3419C44.1213 21.5716 41.5724 23.4167 38.7223 24.7788C37.9295 25.1576 37.7789 25.5683 37.7988 26.3404C37.8443 28.278 37.813 30.2185 37.813 32.159C37.813 32.3499 37.813 32.5436 37.813 32.7981H45.7211C45.7211 34.3453 45.7297 35.8288 45.7041 37.3095C45.7041 37.4252 45.4427 37.6363 45.3034 37.6363C42.9591 37.6363 40.6176 37.6132 38.2733 37.5929C38.1995 37.5929 38.1227 37.5929 38.0489 37.59C37.9693 37.778 37.8244 37.966 37.8215 38.154C37.8045 40.4993 37.8158 42.8447 37.8045 45.19C37.8045 45.4127 37.7249 45.6383 37.6851 45.861C37.6482 45.8957 37.6084 45.9304 37.5715 45.968C36.2785 45.9737 34.9856 45.9593 33.6927 45.994C33.1869 46.0056 33.0249 45.8465 33.0306 45.3231C33.059 42.9748 33.0363 40.6237 33.0533 38.2754C33.0562 37.7954 32.9141 37.6276 32.4225 37.6305C29.6548 37.645 26.8871 37.6392 24.1194 37.6161C23.6875 37.6132 23.6079 37.7664 23.6107 38.1597C23.6278 40.4906 23.625 42.8187 23.6193 45.1495C23.6193 45.3954 23.5539 45.6412 23.517 45.887C23.4687 45.9043 23.4204 45.9246 23.3721 45.9419C22.1388 45.9217 20.9084 45.9043 19.6751 45.8841C19.5103 45.9043 19.3484 45.9246 19.1836 45.9448C19.1068 45.7482 18.9648 45.5515 18.9648 45.352C18.9534 43.0008 18.9534 40.6468 18.979 38.2957C18.9846 37.7954 18.8596 37.6132 18.3282 37.619C16.0606 37.6508 13.7931 37.6247 11.5283 37.6508C11.0339 37.6565 10.906 37.4975 10.9145 37.0145C10.9458 35.6438 10.9259 34.2759 10.9259 32.8241H18.9704C18.9704 32.3788 18.9704 32.0144 18.9704 31.6471C18.9704 29.7847 18.9619 27.9223 18.9818 26.0628C18.9875 25.6464 18.8482 25.4381 18.4703 25.2675C15.3957 23.8996 12.5968 22.1037 10.224 19.6803C10.1189 19.5733 10.0706 19.2407 10.1473 19.154C11.0282 18.1649 11.9375 17.2048 12.8411 16.2389C12.9321 16.1435 13.0457 16.0683 13.1594 15.9757C14.9155 17.6935 16.6886 19.3362 18.9392 20.4871C18.9505 20.2298 18.9676 20.0418 18.9676 19.8567C18.9676 17.6212 18.9846 15.3887 18.9619 13.1532C18.9562 12.6124 19.121 12.4389 19.6638 12.4562C20.8629 12.4967 22.0649 12.4707 23.2669 12.4736C23.3237 12.4852 23.3777 12.4996 23.4346 12.5112C23.4971 12.7165 23.6136 12.9218 23.6136 13.1272C23.6193 15.9642 23.6193 18.7983 23.5965 21.6352C23.5937 22.15 23.6392 22.39 24.2785 22.4884C25.7789 22.7197 27.2707 23.032 28.7881 22.9048C30.0441 22.7978 31.2859 22.552 32.5333 22.3467C32.7124 22.3177 32.8743 22.1818 33.0448 22.098C33.0619 22.0893 33.0931 22.0806 33.0931 22.0719C33.0931 22.0401 33.0818 22.0083 33.0761 21.9765H33.0732ZM33.0448 27.0287C33.0022 26.994 32.9596 26.9593 32.9141 26.9275C32.7408 26.9477 32.5703 26.968 32.3998 26.994C31.4876 27.127 30.5755 27.3671 29.6633 27.3699C28.0891 27.3757 26.512 27.2398 24.9378 27.153C24.5115 27.1299 24.0881 27.075 23.642 27.0316V32.7663H33.0619V27.2745C33.059 27.1935 33.0533 27.1126 33.0505 27.0345V27.0287H33.0448Z" fill="#BB573E"/>
<path d="M19.1836 45.9416C19.3455 45.9213 19.5103 45.9011 19.6752 45.8809C19.5132 45.9011 19.3484 45.9213 19.1836 45.9416Z" fill="#BB573E"/>
<path d="M38.046 37.5898C38.1194 37.5898 38.1956 37.5898 38.269 37.5929C38.1956 37.5929 38.1194 37.5929 38.046 37.5898Z" fill="#BB573E"/>
<path d="M33.0676 21.5049C33.0817 21.5338 33.0986 21.5627 33.1042 21.5916C33.1042 21.6003 33.0817 21.6177 33.0704 21.6292C33.0704 21.5887 33.0704 21.5454 33.0676 21.5049Z" fill="#BB573E"/>
<path d="M37.5686 45.9678C37.6053 45.9331 37.6448 45.8984 37.6815 45.8608C37.6448 45.8955 37.6053 45.9302 37.5686 45.9678Z" fill="#BB573E"/>
<path d="M33.073 21.9766C33.0787 22.0084 33.09 22.0402 33.09 22.072C33.09 22.0807 33.0589 22.0893 33.042 22.098C33.0533 22.0575 33.0617 22.0171 33.073 21.9795V21.9766Z" fill="#BB573E"/>
<path d="M33.0618 27.2771C33.059 27.1962 33.0533 27.1152 33.0505 27.0371C33.0533 27.1181 33.059 27.1991 33.0618 27.2771Z" fill="#BB573E"/>
<path d="M33.0439 27.0285C33.0016 26.9938 32.9593 26.9591 32.9141 26.9272C32.9564 26.9619 32.9988 26.9967 33.0439 27.0285Z" fill="#BB573E"/>
</g>
<defs>
<clipPath id="clip0_139_540">
<rect width="238" height="57" fill="white" transform="translate(0 0.0786133)"/>
</clipPath>
</defs>
</svg>
