<?xml version="1.0" encoding="UTF-8"?>
<svg id="Layer_1" data-name="Layer 1" xmlns="http://www.w3.org/2000/svg" viewBox="0 0 830.27 823.6">
  <defs>
    <style>
      .cls-1 {
        fill: #c6593f;
      }
    </style>
  </defs>
  <g>
    <path class="cls-1" d="m12.19,411.8h118.24c5.6.03,10.24,3.64,10.35,8.05.59,20.57,3.42,41.06,8.55,60.97l94.1-24.36c5.43-1.37,10.47-.42,11.18,2.14.64,2.58-2.95,6.04-8.24,7.78l-92.49,29.87c6.35,19.55,14.89,38.38,25.39,56.06,2.2,3.82.45,9.22-4.29,12.28l-101.01,64.4c-4.66,3.01-11.57.95-14.96-4.87-3.39-5.83-2.11-12.78,2.79-15.48l95.76-53.43c-9.36-16.77-17.07-34.46-22.97-52.73l-46.61,15.05c-5.34,1.75-11.16-1.25-12.67-6.82-1.58-5.54,1.57-11.17,7-12.54l47.42-12.28c-4.81-18.6-7.77-37.67-8.86-56.84l-107.92,6.24c-2.78.16-5.44-1.02-7.38-3.09-1.9-2.07-3.13-5.04-3.22-8.37-.18-6.68,4.28-12.08,9.88-12.05Z"/>
    <g>
      <path class="cls-1" d="m332.73,556.38c1.23.71,1.74,2.4,1.63,4.59-.08,2.12-.79,4.74-2.17,7.34l-106.87,200.97c-1.38,2.6-3.89,4.32-6.85,4.94-2.92.57-6.3.02-9.37-1.74-6.18-3.53-8.62-10.53-5.47-15.59l119.08-193.99c3.08-4.95,7.6-7.92,10.03-6.53Z"/>
      <path class="cls-1" d="m313.71,543.71c2.15,1.83,1.32,6.9-2.13,11.73l-133.35,184.46c-3.4,4.76-10.97,5.44-16.51,1-21.25-16.38-40.9-34.81-58.6-54.95-4.66-5.36-4.69-12.76-.12-16.49,4.57-3.73,11.78-2.64,16.16,2.39,14.14,16.06,29.56,30.99,46.07,44.62l137.66-167.67c3.77-4.54,8.64-6.84,10.84-5.09Z"/>
    </g>
    <path class="cls-1" d="m575.08,499.24c-4.93-.84-10.01-4.49-11.71-7.94-.66-1.32-.73-2.42-.31-3.25.71-1.39,2.82-2.04,5.89-1.63,35.49,4.75,72.93,2.89,110.35-6.08-28.19-26.12-59.88-45.99-93.07-59.27-2.8-1.13-4.38-2.75-4.33-4.32.02-.96.62-1.92,1.85-2.77,3.23-2.22,9.58-2.94,14.14-1.24,35.98,13.32,70.54,34.13,101.26,62.15,39.8-12.18,79.12-32.48,115.52-60.26,4.72-3.56,11-2.22,14.01,3.36,2.99,5.59,1.63,13.17-3.27,16.59-35.39,25.21-73.12,43.65-111.14,54.9,27.58,28.45,51.39,63.06,69.7,102.58,2.47,5.37.04,12.75-5.31,16.15-5.46,3.34-11.65,1.37-13.89-4.02-17.79-42.26-42.16-79.29-70.84-109.39-40.56,9.34-80.88,10.63-118.85,4.43Z"/>
    <path class="cls-1" d="m355.08,583.89c-.02-4.9,2.77-10.62,5.9-12.87,1.18-.84,2.23-1.07,3.11-.76,1.45.57,2.48,2.4,2.59,5.46,1.16,35.77,9.24,72.38,24.26,107.81,21.09-32.11,35.76-66.59,43.42-101.48.65-2.98,1.97-4.73,3.53-4.92.95-.11,1.98.34,3,1.44,2.67,2.7,4.4,8.8,3.5,13.67-7.09,37.68-22.23,75.23-44.81,110.11,18.57,37.26,44.77,72.76,78.28,104.11,4.3,3.95,4,10.47-1.05,14.42-5.03,3.84-12.8,3.58-16.99-.6-30.67-30.86-54.77-65.12-72.15-100.75-23.5,31.89-53.63,61.13-89.62,85.74-4.95,3.49-12.6,2.16-16.82-2.62-4.23-4.77-3.33-11.14,1.67-14.32,38.82-24.6,71.23-54.69,96.18-87.93-15.92-38.46-23.87-78.12-23.99-116.51Z"/>
    <path class="cls-1" d="m531.43,798.05c-.85-12.67.39-25.4,3.07-37.44,2.74-11.93,6.73-23.68,11.8-34.32,10.11-21.63,23.67-40,41.1-54.21l-74.86-112.89c-1.55-2.34-2.47-4.76-2.73-6.75-.3-2.05.04-3.71,1.14-4.49,2.17-1.57,6.72.86,10.08,5.29l81.33,108.34c19.11-11.61,40.95-18.16,64.65-20.45,23.45-2.25,48.92-.17,72.22,9.82,5.18,2.21,7.06,8.83,3.81,14.66-3.21,5.85-9.94,8.67-15.03,6.07-18.44-9.19-38.93-11.73-58.53-10.4-19.71,1.38-38.29,6.91-54.89,16.61l35.32,47.05c3.42,4.5,1.87,11.18-3.46,14.98-2.65,1.88-5.7,2.64-8.46,2.33-2.8-.37-5.29-1.78-6.83-4.11l-32.52-49.05c-14.73,12.54-26.24,28.18-34.16,46.29-1.98,4.49-3.71,9.17-5.16,13.98-1.45,4.8-2.69,9.57-3.57,14.54-1.77,9.89-2.24,20.22-.94,30.51.72,5.56-4.15,11.05-10.78,12.15-6.6,1.16-12.27-2.9-12.62-8.48Z"/>
  </g>
  <g>
    <path class="cls-1" d="m818.08,411.8h-118.24c-5.6-.03-10.24-3.64-10.35-8.05-.59-20.57-3.42-41.06-8.55-60.97l-94.1,24.36c-5.43,1.37-10.47.42-11.18-2.14-.64-2.58,2.95-6.04,8.24-7.78l92.49-29.87c-6.35-19.55-14.89-38.38-25.39-56.06-2.2-3.82-.45-9.22,4.29-12.28l101.01-64.4c4.66-3.01,11.57-.95,14.96,4.87,3.39,5.83,2.11,12.78-2.79,15.48l-95.76,53.43c9.36,16.77,17.07,34.46,22.97,52.73l46.61-15.05c5.34-1.75,11.16,1.25,12.67,6.82,1.58,5.54-1.57,11.17-7,12.54l-47.42,12.28c4.81,18.6,7.77,37.67,8.86,56.84l107.92-6.24c2.78-.16,5.44,1.02,7.38,3.09,1.9,2.07,3.13,5.04,3.22,8.37.18,6.68-4.28,12.08-9.88,12.05Z"/>
    <g>
      <path class="cls-1" d="m497.54,267.22c-1.23-.71-1.74-2.4-1.63-4.59.08-2.12.79-4.74,2.17-7.34l106.87-200.97c1.38-2.6,3.89-4.32,6.85-4.94,2.92-.57,6.3-.02,9.37,1.74,6.18,3.53,8.62,10.53,5.47,15.59l-119.08,193.99c-3.08,4.95-7.6,7.92-10.03,6.53Z"/>
      <path class="cls-1" d="m516.56,279.89c-2.15-1.83-1.32-6.9,2.13-11.73l133.35-184.46c3.4-4.76,10.97-5.44,16.51-1,21.25,16.38,40.9,34.81,58.6,54.95,4.66,5.36,4.69,12.76.12,16.49-4.57,3.73-11.78,2.64-16.16-2.39-14.14-16.06-29.56-30.99-46.07-44.62l-137.66,167.67c-3.77,4.54-8.64,6.84-10.84,5.09Z"/>
    </g>
    <path class="cls-1" d="m255.19,324.36c4.93.84,10.01,4.49,11.71,7.94.66,1.32.73,2.42.31,3.25-.71,1.39-2.82,2.04-5.89,1.63-35.49-4.75-72.93-2.89-110.35,6.08,28.19,26.12,59.88,45.99,93.07,59.27,2.8,1.13,4.38,2.75,4.33,4.32-.02.96-.62,1.92-1.85,2.77-3.23,2.22-9.58,2.94-14.14,1.24-35.98-13.32-70.54-34.13-101.26-62.15-39.8,12.18-79.12,32.48-115.52,60.26-4.72,3.56-11,2.22-14.01-3.36-2.99-5.59-1.63-13.17,3.27-16.59,35.39-25.21,73.12-43.65,111.14-54.9-27.58-28.45-51.39-63.06-69.7-102.58-2.47-5.37-.04-12.75,5.31-16.15,5.46-3.34,11.65-1.37,13.89,4.02,17.79,42.26,42.16,79.29,70.84,109.39,40.56-9.34,80.88-10.63,118.85-4.43Z"/>
    <path class="cls-1" d="m475.19,239.72c.02,4.9-2.77,10.62-5.9,12.87-1.18.84-2.23,1.07-3.11.76-1.45-.57-2.48-2.4-2.59-5.46-1.16-35.77-9.24-72.38-24.26-107.81-21.09,32.11-35.76,66.59-43.42,101.48-.65,2.98-1.97,4.73-3.53,4.92-.95.11-1.98-.34-3-1.44-2.67-2.7-4.4-8.8-3.5-13.67,7.09-37.68,22.23-75.23,44.81-110.11-18.57-37.26-44.77-72.76-78.28-104.11-4.3-3.95-4-10.47,1.05-14.42,5.03-3.84,12.8-3.58,16.99.6,30.67,30.86,54.77,65.12,72.15,100.75,23.5-31.89,53.63-61.13,89.62-85.74,4.95-3.49,12.6-2.16,16.82,2.62,4.23,4.77,3.33,11.14-1.67,14.32-38.82,24.6-71.23,54.69-96.18,87.94,15.92,38.46,23.87,78.12,23.99,116.51Z"/>
    <path class="cls-1" d="m298.84,25.55c.85,12.67-.39,25.4-3.07,37.44-2.74,11.93-6.73,23.68-11.8,34.32-10.11,21.63-23.67,40-41.1,54.21l74.86,112.89c1.55,2.34,2.47,4.76,2.73,6.75.3,2.05-.04,3.71-1.14,4.49-2.17,1.57-6.72-.86-10.08-5.29l-81.33-108.34c-19.11,11.61-40.95,18.16-64.65,20.45-23.45,2.25-48.92.17-72.22-9.82-5.18-2.21-7.06-8.83-3.81-14.66,3.21-5.85,9.94-8.67,15.03-6.07,18.44,9.19,38.93,11.73,58.53,10.4,19.71-1.38,38.29-6.91,54.89-16.61l-35.32-47.05c-3.42-4.5-1.87-11.18,3.46-14.98,2.65-1.88,5.7-2.64,8.46-2.33,2.8.37,5.29,1.78,6.83,4.11l32.52,49.05c14.73-12.54,26.24-28.18,34.16-46.29,1.98-4.49,3.71-9.17,5.16-13.98,1.45-4.8,2.69-9.57,3.57-14.54,1.77-9.89,2.24-20.22.94-30.51-.72-5.56,4.15-11.05,10.78-12.15,6.6-1.16,12.27,2.9,12.62,8.48Z"/>
  </g>
</svg>