<svg width="176" height="78" viewBox="0 0 176 78" fill="none" xmlns="http://www.w3.org/2000/svg">
<g clip-path="url(#clip0_139_611)">
<path d="M82.6886 25.5118L91.3704 14.7808L96.1739 14.81L88.8138 23.7254L97.2705 34.3438H92.4938L86.538 26.5073L82.6886 31.1633V34.3438H78.8949V14.81H82.6886V25.5139V25.5118Z" fill="#BB573E"/>
<path d="M110.281 26.3926C110.281 25.5412 110.308 23.5252 106.572 23.5252C105.335 23.5252 103.565 23.8946 102.471 24.3203V34.3439H98.6769V14.8101L102.471 14.6118V20.7454C103.763 20.2904 105.42 19.8647 106.882 19.8647C111.377 19.8647 114.101 22.1937 114.101 26.3947V34.3439H110.281V26.3947V26.3926Z" fill="#BB573E"/>
<path d="M134.866 34.3438H130.344L127.085 25.8833L123.882 34.3438H119.359L114.723 20.2611L118.798 20.09L121.72 30.2826L125.233 20.2882L128.968 20.09L132.481 30.339L135.43 20.259L139.476 20.0879L134.868 34.3417L134.866 34.3438Z" fill="#BB573E"/>
<path d="M154.564 28.8908L144.027 28.8344C144.533 29.8278 145.657 30.7941 148.158 30.7941C150.041 30.7941 151.557 30.3976 152.709 29.999L153.777 33.4069C152.344 34.0602 150.322 34.4567 148.102 34.4567C143.269 34.4567 139.815 31.5329 139.815 27.1607C139.815 22.7886 143.018 19.8647 147.85 19.8647C151.445 19.8647 154.677 22.2209 154.677 26.6515C154.677 27.7597 154.566 28.895 154.566 28.895L154.564 28.8908ZM143.887 25.7103L150.826 25.6539C150.826 24.2619 149.647 23.5253 147.904 23.5253C145.318 23.5253 144.279 24.6606 143.885 25.7124L143.887 25.7103Z" fill="#BB573E"/>
<path d="M168.838 20.0903L168.528 23.8093L161.897 30.7087H169.371L169.061 34.3421H156.082L156.418 30.6795L163.105 23.7237H156.193L156.503 20.0903H168.836H168.838Z" fill="#BB573E"/>
<path d="M173.334 19.1824C172.014 19.1824 170.946 18.1034 170.946 16.7406C170.946 15.3779 172.014 14.3281 173.334 14.3281C174.653 14.3281 175.75 15.4071 175.75 16.7406C175.75 18.0742 174.682 19.1824 173.334 19.1824ZM175.273 34.344H171.479V20.2613L175.273 20.0902V34.344Z" fill="#BB573E"/>
<path d="M92.3575 58.2188L91.0937 54.4664H83.7438L82.48 58.2188H78.8928L85.0304 40.9138L89.7038 40.6592L95.9426 58.2188H92.3555H92.3575ZM84.8301 51.2004H90.0074L87.4322 43.5433L84.8301 51.2004Z" fill="#BB573E"/>
<path d="M100.643 58.219H97.2086V40.6595L100.643 40.48V58.219Z" fill="#BB573E"/>
<path d="M106.958 58.219H103.524V40.6595L106.958 40.48V58.219Z" fill="#BB573E"/>
<path d="M111.506 44.589C110.318 44.589 109.358 43.6186 109.358 42.3936C109.358 41.1685 110.318 40.2231 111.506 40.2231C112.693 40.2231 113.678 41.1936 113.678 42.3936C113.678 43.5936 112.718 44.589 111.506 44.589ZM113.249 58.2189H109.839V45.5595L113.249 45.4071V58.2189Z" fill="#BB573E"/>
<path d="M126.154 57.5032C125.018 57.9624 123.603 58.3192 122.188 58.3192C117.87 58.3192 115.142 55.6897 115.142 51.76C115.142 47.8302 117.794 45.2007 122.139 45.2007C123.502 45.2007 125.018 45.6348 126.156 46.0939L126.282 45.4052L129.286 45.5575V58.217H126.282L126.156 57.5032H126.154ZM125.875 54.3895V49.2076C124.914 48.8257 123.527 48.4939 122.44 48.4939C118.752 48.4939 118.577 50.8417 118.577 51.76C118.577 52.6782 118.754 55.0281 122.44 55.0281C123.803 55.0281 124.991 54.7213 125.875 54.3895Z" fill="#BB573E"/>
<path d="M142.598 51.0713C142.598 50.3054 142.648 48.4939 139.265 48.4939C138.179 48.4939 136.589 48.8257 135.604 49.2076V58.217H132.169V45.5575L135.201 45.4052L135.327 46.0939C136.539 45.6348 138.156 45.2007 139.544 45.2007C143.585 45.2007 146.035 47.2939 146.035 51.0713V58.217H142.625L142.6 51.0713H142.598Z" fill="#BB573E"/>
<path d="M159.194 54.1598L160.608 57.044C159.32 57.7327 157.451 58.3212 155.456 58.3212C150.96 58.3212 147.928 55.6916 147.928 51.7619C147.928 47.8322 150.96 45.2026 155.456 45.2026C157.325 45.2026 159.295 45.7891 160.381 46.3254L159.043 49.3619C158.11 48.9278 156.695 48.4938 155.456 48.4938C151.768 48.4938 151.365 50.8416 151.365 51.7598C151.365 52.6781 151.77 55.028 155.456 55.028C157.122 55.028 158.285 54.5438 159.194 54.1598Z" fill="#BB573E"/>
<path d="M174.777 53.3167L165.307 53.2666C165.761 54.1598 166.771 55.028 169.02 55.028C170.713 55.028 172.076 54.6711 173.111 54.3122L174.071 57.3758C172.782 57.9622 170.965 58.3212 168.97 58.3212C164.625 58.3212 161.519 55.6916 161.519 51.7619C161.519 47.8322 164.398 45.2026 168.743 45.2026C171.975 45.2026 174.881 47.3209 174.881 51.3028C174.881 52.2983 174.779 53.3188 174.779 53.3188L174.777 53.3167ZM165.181 50.4576L171.419 50.4075C171.419 49.1574 170.358 48.4938 168.793 48.4938C166.469 48.4938 165.534 49.5143 165.181 50.4597V50.4576Z" fill="#BB573E"/>
<path d="M0.75 38.9814C5.53906 37.2701 10.4686 36.2475 15.4641 35.5004C17.9526 35.1581 20.4927 35.1435 23.0081 34.9828C25.5276 34.8388 28.0099 34.4548 30.4715 33.9331L30.0337 34.3818C30.2733 31.4934 30.2567 28.5696 30.519 25.6855C31.2459 17.0017 32.5738 8.38675 35.2915 0.0786133L35.5786 0.120352C35.7748 5.95963 35.3163 11.7405 34.5419 17.5025C33.7138 23.2437 32.4024 28.8952 31.0725 34.532L30.9899 34.9432L30.6347 34.9807C25.5895 35.3355 20.7839 37.099 15.8627 38.084C13.3887 38.5202 10.8919 38.8082 8.38483 39.0357C5.87568 39.2402 3.35621 39.3842 0.797498 39.2715L0.752065 38.9814H0.75Z" fill="#BB573E"/>
<path d="M37.9556 77.0785C35.529 66.6501 33.1128 55.128 30.8329 44.6683L31.884 45.7263C27.7971 45.1921 23.735 44.5222 19.7245 43.5496C15.6975 42.5813 11.7014 41.5295 7.79419 40.0957L7.84582 39.8057C12.0009 39.8578 16.1084 40.2982 20.2139 40.8283C24.623 41.3792 28.9639 42.3183 33.2883 43.3389L33.404 44.1862C34.5212 51.7701 36.0143 61.1718 37.0841 68.8059C37.4826 71.544 37.873 74.282 38.2426 77.0243L37.9576 77.0785H37.9556Z" fill="#BB573E"/>
<path d="M63.7967 39.7598C60.6742 41.7529 57.2997 43.1115 53.7208 43.8753C51.9304 44.1821 50.0697 44.2489 48.3246 44.7059C46.5713 45.14 44.8944 45.8329 43.2485 46.6301L43.8371 45.9831C43.804 46.8367 43.7565 47.6861 43.6822 48.5313C43.0792 54.4519 41.8215 60.3017 39.1286 65.6505L38.8436 65.5921C38.697 63.8411 38.7713 62.1361 38.8766 60.4373C39.2339 55.149 40.5308 49.9754 42.4101 45.0398L42.7715 44.9939C44.5826 44.7602 46.3628 44.4179 48.0686 43.821C49.7806 43.2471 51.3769 42.2809 53.0455 41.5567C54.7162 40.843 56.4778 40.4339 58.2476 40.0645C60.0257 39.7139 61.8286 39.4551 63.7161 39.4802L63.7987 39.7619L63.7967 39.7598Z" fill="#BB573E"/>
<path d="M36.9664 9.88525C38.8043 18.2623 40.7373 27.4636 42.441 35.9032L41.4353 35.0017C44.151 35.0831 46.8687 35.1624 49.5864 35.1916C57.7644 35.2458 65.9155 36.0618 73.9324 37.769L73.9158 38.0632C68.4659 38.6455 63.0222 38.6663 57.5661 38.5098C52.1348 38.3157 46.7345 37.5623 41.3135 37.1825L40.4275 37.1095L40.3078 36.281C39.8307 33.0024 38.8849 26.3993 38.4367 23.1186C37.8482 18.7256 37.2307 14.3367 36.6752 9.93534L36.9622 9.88525H36.9664Z" fill="#BB573E"/>
<path d="M25.4594 28.5488C25.4594 30.3477 24.0158 31.7063 22.2357 31.7063C20.4555 31.7063 20.6084 30.0973 19.7782 28.507C18.7601 26.5578 20.3399 25.7856 22.12 25.7856C23.9002 25.7856 25.4614 26.7498 25.4614 28.5488H25.4594Z" fill="#BB573E"/>
<path d="M48.1863 31.7773C46.4061 31.7773 45.0617 30.3185 45.0617 28.5195C45.0617 26.7206 46.6539 26.875 48.2276 26.0361C50.1564 25.0072 50.9205 26.6037 50.9205 28.4027C50.9205 30.2016 49.9664 31.7794 48.1863 31.7794V31.7773Z" fill="#BB573E"/>
<path d="M47.5647 51.3968C47.5647 49.5979 49.0082 48.2393 50.7884 48.2393C52.5685 48.2393 52.4157 49.8483 53.2459 51.4385C54.264 53.3878 52.6842 54.1599 50.904 54.1599C49.1239 54.1599 47.5626 53.1958 47.5626 51.3968H47.5647Z" fill="#BB573E"/>
<path d="M26.1698 50.4574C27.4296 51.7305 27.3594 53.7214 26.0996 54.9945C24.8399 56.2675 23.8238 55.0195 22.1222 54.4894C20.0384 53.8404 20.6146 52.1646 21.8743 50.8915C23.1341 49.6185 24.9101 49.1865 26.1698 50.4574Z" fill="#BB573E"/>
</g>
<defs>
<clipPath id="clip0_139_611">
<rect width="175" height="77" fill="white" transform="translate(0.75 0.0786133)"/>
</clipPath>
</defs>
</svg>
