<svg width="30" height="31" viewBox="0 0 30 31" fill="none" xmlns="http://www.w3.org/2000/svg">
<path d="M6.25 15.3989C6.25 10.5239 10.125 6.64893 15 6.64893C19.875 6.64893 23.75 10.5239 23.75 15.3989C23.75 20.2739 19.875 24.1489 15 24.1489C10.125 24.1489 6.25 20.2739 6.25 15.3989ZM5 15.3989C5 20.8989 9.5 25.3989 15 25.3989C20.5 25.3989 25 20.8989 25 15.3989C25 9.89893 20.5 5.39893 15 5.39893C9.5 5.39893 5 9.89893 5 15.3989Z" fill="white"/>
<path d="M7.5 16.6489L20 10.3989L13.75 22.8989V16.6489H7.5Z" fill="white"/>
</svg>
