<svg width="176" height="78" viewBox="0 0 176 78" fill="none" xmlns="http://www.w3.org/2000/svg">
<g clip-path="url(#clip0_139_655)">
<path d="M144.229 11.6995V3.18262H154.785V16.5712L144.229 11.6995Z" fill="#BB573E"/>
<path d="M18.2728 55.6137C17.6638 55.6621 17.1209 55.6621 16.5119 55.6621C5.67063 55.6621 0.25 49.4483 0.25 40.8998C0.25 30.4127 8.44846 21.5649 22.1365 21.5649C32.9778 21.5649 38.3323 27.5302 38.3323 36.0787C38.3323 44.1805 34.1297 51.2393 25.7962 54.1724L29.5909 60.5338H19.8326L18.2728 55.6137ZM27.965 37.1238C27.965 32.1026 26.2041 27.8294 21.3235 27.8294C14.1391 27.8294 10.6173 35.2358 10.6173 40.5057C10.6173 45.4764 12.4471 49.4019 17.3249 49.4019C24.3714 49.4019 27.965 42.2947 27.965 37.1238Z" fill="#BB573E"/>
<path d="M59.5466 51.2897C56.4298 54.4209 52.7701 55.6641 49.1764 55.6641C43.7558 55.6641 41.5869 53.2304 42.6699 46.2706L44.8387 32.0055C44.8387 32.0055 45.3817 28.5267 44.8387 26.7862L54.597 25.7432L51.8853 45.9229C51.4802 48.7064 51.8853 49.7494 54.0541 49.7494C55.6139 49.7494 58.1189 48.5083 60.2216 46.3212L62.7294 26.7862L71.9448 25.7432L69.233 46.6204C69.233 46.6204 68.6901 52.8827 69.233 54.9708L58.9347 56.0139L59.5437 51.2918L59.5466 51.2897Z" fill="#BB573E"/>
<path d="M79.27 31.6558C79.4739 29.9153 79.8129 28.5246 79.27 26.7841L89.2322 25.7411L85.5036 55.3164H76.2882L79.27 31.6558ZM79.54 20.3596C79.54 18.5179 82.7918 17.043 85.5036 17.043C88.2153 17.043 89.8412 17.7805 89.8412 19.6221C89.8412 22.2012 86.5865 23.3053 83.8748 23.3053C80.623 23.3053 79.54 22.2012 79.54 20.3596Z" fill="#BB573E"/>
<path d="M92.0762 44.8779C92.0762 35.1347 99.6685 26.4365 112.679 26.4365C114.847 26.4365 117.016 26.7842 118.642 27.1319L117.016 33.0465C115.387 32.0035 113.762 32.0035 112.679 32.0035C106.712 32.0035 101.294 37.2228 101.294 43.8349C101.294 48.3568 102.92 50.0972 106.715 50.0972C108.548 50.0972 112.681 49.0542 115.387 47.3137L114.305 53.5761C111.593 54.6191 109.967 55.6621 104.549 55.6621C96.4167 55.6621 92.079 52.1833 92.079 44.8779H92.0762Z" fill="#BB573E"/>
<path d="M123.523 26.4364C123.523 26.4364 124.066 19.4767 123.523 18.086L133.824 17.043L128.943 55.3164H119.728L123.523 26.4386V26.4364ZM131.115 39.6585L132.741 38.9632L142.499 26.7841H152.255L140.871 39.3088L149.003 55.3143H138.705L131.115 39.6585Z" fill="#BB573E"/>
<path d="M168.833 55.3607H146.122V51.1781H163.133V22.8944L124.373 5.00503L93.5613 18.9393L90.568 15.3804L124.405 0.0786133L168.833 20.585V55.3607Z" fill="#BB573E"/>
<path d="M15.5151 67.1289V76.9944H14.1133V72.4409H5.69648V76.9944H4.27454V67.1289H5.69648V71.5264H14.1133V67.1289H15.5151Z" fill="#BB573E"/>
<path d="M22.1538 76.4232C21.0708 75.987 20.2262 75.3865 19.6172 74.6258C19.0082 73.8651 18.7037 73.0097 18.7037 72.0615C18.7037 71.1133 19.0082 70.2578 19.6172 69.4971C20.2262 68.7364 21.0708 68.1359 22.1538 67.6997C23.2367 67.2636 24.4432 67.0444 25.7761 67.0444C27.109 67.0444 28.3098 67.2615 29.3784 67.6934C30.447 68.1254 31.2916 68.7238 31.9063 69.4908C32.521 70.2557 32.8284 71.1133 32.8284 72.0636C32.8284 73.0139 32.521 73.8694 31.9063 74.6363C31.2916 75.4033 30.4499 76.0017 29.3784 76.4337C28.3098 76.8657 27.109 77.0827 25.7761 77.0827C24.4432 77.0827 23.2367 76.8636 22.1538 76.4274V76.4232ZM28.6574 75.6204C29.5163 75.2685 30.1885 74.7796 30.6739 74.1538C31.1594 73.528 31.4036 72.8305 31.4036 72.0615C31.4036 71.2924 31.1594 70.5928 30.6739 69.9691C30.1856 69.3433 29.5134 68.8565 28.6574 68.5026C27.7985 68.1507 26.839 67.9737 25.7761 67.9737C24.7133 67.9737 23.7481 68.1507 22.8834 68.5026C22.0187 68.8544 21.3408 69.3433 20.8467 69.9691C20.3526 70.5949 20.1084 71.2924 20.1084 72.0615C20.1084 72.8305 20.3555 73.5301 20.8467 74.1538C21.3408 74.7796 22.0187 75.2664 22.8834 75.6204C23.7481 75.9722 24.7104 76.1492 25.7761 76.1492C26.8419 76.1492 27.8013 75.9722 28.6574 75.6204Z" fill="#BB573E"/>
<path d="M49.9866 67.1289V76.9944H48.6221V69.1012L43.3365 75.7407H42.6643L37.3787 69.1433V76.9944H36.0142V67.1289H37.1862L43.0291 74.4448L48.8117 67.1289H49.9837H49.9866Z" fill="#BB573E"/>
<path d="M63.8786 76.0925V76.9944H54.3673V67.1289H63.5913V68.0307H55.7893V71.5412H62.7439V72.4283H55.7893V76.0925H63.8786Z" fill="#BB573E"/>
<path d="M68.0582 76.7267C67.1418 76.4929 66.4351 76.181 65.9353 75.7954L66.4926 74.9926C66.9781 75.3508 67.6273 75.6395 68.4345 75.8586C69.2417 76.0799 70.0747 76.1894 70.9337 76.1894C72.1373 76.1894 73.0393 76.0272 73.6425 75.7027C74.2458 75.3782 74.5445 74.9589 74.5445 74.4405C74.5445 74.0465 74.3808 73.7304 74.0533 73.4965C73.7259 73.2627 73.3266 73.0814 72.8526 72.955C72.3786 72.8286 71.7179 72.6895 70.8733 72.5399C69.8622 72.3524 69.055 72.1712 68.4517 71.9984C67.8485 71.8235 67.3343 71.5601 66.9034 71.2019C66.4754 70.8458 66.2599 70.3612 66.2599 69.7501C66.2599 69.2528 66.438 68.7998 66.7971 68.3889C67.1562 67.9801 67.7077 67.6535 68.4488 67.4091C69.1929 67.1647 70.115 67.0425 71.2152 67.0425C71.9822 67.0425 72.7348 67.1204 73.4731 67.2743C74.2084 67.4302 74.8462 67.643 75.3862 67.9148L74.9065 68.7471C74.3435 68.4753 73.7402 68.2709 73.0996 68.134C72.459 67.997 71.8299 67.9296 71.2181 67.9296C70.0403 67.9296 69.1526 68.096 68.5551 68.4311C67.9605 68.764 67.6617 69.1938 67.6617 69.7206C67.6617 70.1146 67.8255 70.4328 68.153 70.6709C68.4804 70.9111 68.8884 71.0945 69.3824 71.2209C69.8765 71.3473 70.5372 71.4864 71.3703 71.636C72.3556 71.8151 73.1542 71.99 73.7632 72.1649C74.3722 72.3397 74.8864 72.601 75.3115 72.955C75.7338 73.3069 75.9464 73.7852 75.9464 74.3857C75.9464 74.883 75.7625 75.3361 75.3977 75.7469C75.0329 76.1557 74.4727 76.4802 73.7172 76.7204C72.9617 76.9606 72.0339 77.0807 70.9308 77.0807C69.9311 77.0807 68.9745 76.9627 68.0582 76.7289V76.7267Z" fill="#BB573E"/>
<path d="M93.2597 76.9944L90.186 73.8232C89.8413 73.8506 89.4822 73.8653 89.1088 73.8653H85.4979V76.9944H84.0759V67.1289H89.1088C90.8266 67.1289 92.171 67.4302 93.1448 68.0307C94.1186 68.6313 94.6041 69.4594 94.6041 70.5108C94.6041 71.282 94.3369 71.9331 93.8055 72.462C93.2741 72.993 92.5157 73.3765 91.5275 73.6104L94.8138 76.9923H93.2568L93.2597 76.9944ZM92.125 72.3293C92.8288 71.8973 93.1821 71.2904 93.1821 70.5108C93.1821 69.7312 92.8288 69.0991 92.125 68.6713C91.4212 68.2436 90.4014 68.0307 89.0714 68.0307H85.4979V72.9782H89.0714C90.4043 72.9782 91.4212 72.7612 92.125 72.3293Z" fill="#BB573E"/>
<path d="M116.433 67.1289L111.897 76.9944H110.398L106.459 68.5807L102.501 76.9944H101.021L96.4856 67.1289H97.9449L101.826 75.6142L105.842 67.1289H107.169L111.127 75.6564L115.066 67.1289H116.43H116.433Z" fill="#BB573E"/>
<path d="M127.059 74.3584H119.564L117.95 76.9944H116.47L122.621 67.1289H124.023L130.173 76.9944H128.673L127.059 74.3584ZM126.539 73.5134L123.31 68.2141L120.081 73.5134H126.539Z" fill="#BB573E"/>
<path d="M143.643 67.1289V76.9944H142.471L133.824 68.9895V76.9944H132.402V67.1289H133.574L142.241 75.1338V67.1289H143.643Z" fill="#BB573E"/>
<path d="M148.023 67.1289H153.499C154.92 67.1289 156.176 67.3375 157.265 67.7568C158.353 68.174 159.198 68.7577 159.801 69.5036C160.404 70.2495 160.703 71.1029 160.703 72.0616C160.703 73.0204 160.401 73.8717 159.801 74.6197C159.198 75.3656 158.353 75.9493 157.265 76.3665C156.176 76.7837 154.92 76.9944 153.499 76.9944H148.023V67.1289ZM153.424 76.0925C154.602 76.0925 155.633 75.9219 156.518 75.5784C157.402 75.2349 158.086 74.7608 158.574 74.154C159.06 73.5472 159.304 72.8497 159.304 72.0616C159.304 71.2736 159.06 70.574 158.574 69.9693C158.089 69.3624 157.402 68.8883 156.518 68.5449C155.633 68.2014 154.602 68.0307 153.424 68.0307H149.445V76.0925H153.424Z" fill="#BB573E"/>
<path d="M172.136 74.3584H164.641L163.027 76.9944H161.548L167.698 67.1289H169.1L175.25 76.9944H173.75L172.136 74.3584ZM171.616 73.5134L168.387 68.2141L165.158 73.5134H171.616Z" fill="#BB573E"/>
</g>
<defs>
<clipPath id="clip0_139_655">
<rect width="175" height="77" fill="white" transform="translate(0.25 0.0786133)"/>
</clipPath>
</defs>
</svg>
