<svg width="20" height="21" viewBox="0 0 20 21" fill="none" xmlns="http://www.w3.org/2000/svg">
<path fill-rule="evenodd" clip-rule="evenodd" d="M13.757 8.50037V8.49837C13.9243 8.49837 14.092 8.5017 14.2597 8.4977C14.3644 8.49324 14.4635 8.44862 14.5362 8.37308C14.609 8.29755 14.6498 8.1969 14.6503 8.09203V7.12837C14.6503 6.89803 14.468 6.71503 14.2383 6.7147H13.2773C13.223 6.71461 13.1692 6.72528 13.119 6.7461C13.0688 6.76692 13.0233 6.79747 12.985 6.836C12.9467 6.87452 12.9164 6.92025 12.8958 6.97055C12.8753 7.02084 12.8649 7.07471 12.8653 7.12903C12.865 7.44737 12.864 7.7657 12.8663 8.08403C12.867 8.13234 12.8753 8.18024 12.8907 8.22603C12.9483 8.39537 13.1037 8.49937 13.2937 8.50037H13.757ZM10.6667 8.91337C10.1222 8.91008 9.59855 9.12246 9.21019 9.50409C8.82182 9.88571 8.60031 10.4055 8.59406 10.95C8.5878 11.4944 8.79731 12.0192 9.17681 12.4097C9.55631 12.8001 10.0749 13.0245 10.6193 13.0337C11.7707 13.0584 12.702 12.1384 12.7263 11.0197C12.7513 9.86603 11.8207 8.9127 10.6667 8.91337ZM6.682 10.013V14.5554C6.682 14.7717 6.86933 14.958 7.086 14.958H14.2457C14.4643 14.958 14.6507 14.772 14.6507 14.554V10.0134H13.68C13.8166 10.4454 13.8593 10.9015 13.8053 11.3514C13.7532 11.8008 13.6035 12.2335 13.3667 12.619C12.9413 13.3176 12.2618 13.8241 11.4708 14.0321C10.6798 14.2401 9.83894 14.1334 9.125 13.7344C8.59867 13.439 8.18533 13.0274 7.89667 12.497C7.467 11.7057 7.39833 10.875 7.65033 10.013H6.682ZM14.735 16.0594C14.788 16.0507 14.841 16.043 14.8933 16.0317C15.3087 15.9434 15.648 15.597 15.7293 15.1794C15.7377 15.134 15.7443 15.0884 15.7517 15.043V6.9057C15.7447 6.86137 15.7383 6.81637 15.73 6.77203C15.685 6.54852 15.5716 6.34452 15.4056 6.18825C15.2396 6.03197 15.0292 5.93114 14.8033 5.8997C14.784 5.89703 14.7657 5.8927 14.7467 5.8897H6.587C6.538 5.89837 6.48833 5.90537 6.44 5.91637C6.22136 5.96502 6.02287 6.07946 5.87121 6.24429C5.71954 6.40912 5.62199 6.61644 5.59167 6.83837C5.589 6.8577 5.585 6.87637 5.582 6.89537V15.0547C5.59133 15.1064 5.59867 15.1587 5.61033 15.21C5.66108 15.4271 5.77653 15.6236 5.94141 15.7736C6.10628 15.9236 6.31281 16.02 6.53367 16.05C6.555 16.0524 6.577 16.0567 6.59867 16.06L14.735 16.0594ZM0 0.974365H20V20.9744H0V0.974365Z" fill="#BB573E"/>
</svg>
