<svg width="21" height="21" viewBox="0 0 21 21" fill="none" xmlns="http://www.w3.org/2000/svg">
<path d="M20.9678 8.38613C19.0024 8.39025 17.0852 7.85392 15.487 6.85293V13.8342C15.4865 15.1272 15.0348 16.3892 14.1924 17.4516C13.35 18.5139 12.157 19.3259 10.773 19.7789C9.38897 20.232 7.87984 20.3045 6.44742 19.9868C5.015 19.6691 3.72755 18.9764 2.75724 18.0012C1.78693 17.026 1.17999 15.8148 1.01759 14.5297C0.855196 13.2445 1.14507 11.9466 1.84847 10.8094C2.55186 9.67231 3.63525 8.75018 4.95375 8.16636C6.27226 7.58253 7.76304 7.36484 9.22676 7.54238V11.0537C8.55696 10.8694 7.83772 10.8749 7.17174 11.0696C6.50576 11.2642 5.9271 11.6381 5.51841 12.1376C5.10972 12.6372 4.89188 13.237 4.89602 13.8514C4.90015 14.4658 5.12605 15.0633 5.54144 15.5587C5.95683 16.054 6.54047 16.4218 7.20903 16.6096C7.87758 16.7974 8.59685 16.7955 9.26413 16.6043C9.9314 16.413 10.5126 16.0422 10.9246 15.5447C11.3366 15.0472 11.5585 14.4486 11.5585 13.8342V0.186523H15.487C15.4843 0.476813 15.5121 0.766706 15.5701 1.05254C15.7066 1.69062 15.9904 2.29762 16.4042 2.83642C16.8181 3.37522 17.3531 3.83449 17.9768 4.18613C18.864 4.69945 19.9042 4.97305 20.9678 4.97285V8.38613Z" fill="#969696"/>
</svg>
