<svg width="20" height="16" viewBox="0 0 20 16" fill="none" xmlns="http://www.w3.org/2000/svg">
<path d="M19.8 3.92096C19.8 3.92096 19.605 2.45033 19.0056 1.80283C18.245 0.954082 17.3931 0.949082 17.0025 0.900957C14.2044 0.684082 10.0075 0.684082 10.0075 0.684082H9.9981C9.9981 0.684082 5.80123 0.684082 3.00373 0.900957C2.6131 0.949082 1.76185 0.954082 1.0006 1.80283C0.401851 2.45033 0.206226 3.92096 0.206226 3.92096C0.206226 3.92096 0.00622559 5.64658 0.00622559 7.37221V8.98971C0.00622559 10.7166 0.206226 12.4416 0.206226 12.4416C0.206226 12.4416 0.401226 13.9116 1.0006 14.5578C1.76185 15.4066 2.75998 15.381 3.20498 15.4697C4.80435 15.6335 10.0031 15.6841 10.0031 15.6841C10.0031 15.6841 14.2044 15.6766 17.0025 15.4622C17.3931 15.4122 18.245 15.4072 19.0056 14.5585C19.6043 13.9122 19.8 12.4422 19.8 12.4422C19.8 12.4422 20 10.7166 20 8.99033V7.37283C20 5.64658 19.8 3.92096 19.8 3.92096Z" fill="#969696"/>
<path d="M7.50623 4.43408V11.9341L13.7562 8.18408L7.50623 4.43408Z" fill="#231F20"/>
</svg>
