<svg width="18" height="18" viewBox="0 0 18 18" fill="none" xmlns="http://www.w3.org/2000/svg">
<path d="M14.1093 0.439453H3.37996C1.51624 0.439453 0 1.95534 0 3.81906V14.5488C0 16.4125 1.51624 17.9284 3.37996 17.9284H14.1097C15.9734 17.9284 17.4893 16.4125 17.4893 14.5488V3.81871C17.4889 1.95498 15.973 0.439453 14.1093 0.439453ZM15.4654 2.45346V5.41785L12.5109 5.42737L12.5007 2.46334L15.4654 2.45346ZM6.24839 7.38881C6.8086 6.61376 7.71735 6.10541 8.74464 6.10541C9.77193 6.10541 10.6807 6.61376 11.2402 7.38881C11.6186 7.91081 11.8226 8.53899 11.823 9.18374C11.823 10.881 10.4408 12.2617 8.74429 12.2617C7.04673 12.2617 5.66596 10.881 5.66596 9.18374C5.66638 8.53905 5.8702 7.91092 6.24839 7.38881ZM15.785 14.5484C15.7846 14.9927 15.608 15.4187 15.2938 15.7329C14.9796 16.0471 14.5536 16.2237 14.1093 16.2241H3.37996C2.93562 16.2237 2.50958 16.0471 2.19535 15.7329C1.88113 15.4188 1.70438 14.9928 1.70391 14.5484V7.38881H4.31447C4.08209 7.95871 3.96252 8.56829 3.96239 9.18374C3.96239 11.82 6.10728 13.9663 8.74464 13.9663C11.3817 13.9663 13.5265 11.82 13.5265 9.18374C13.5265 8.5491 13.3992 7.94338 13.1738 7.38881H15.785V14.5484Z" fill="#969696"/>
</svg>
