<svg width="30" height="25" viewBox="0 0 30 25" fill="none" xmlns="http://www.w3.org/2000/svg">
<path d="M29.4845 4.15915C29.4682 4.02773 29.4443 3.89771 29.4132 3.76992C29.3996 3.71076 29.3842 3.65027 29.3674 3.59178C29.1756 2.93161 28.8102 2.3578 28.3225 1.95113C27.8348 1.54446 27.2494 1.32541 26.6488 1.32482H26.8458C26.8458 1.32482 21.7628 0.435483 15.0004 0.398926C8.23848 0.435483 3.15487 1.32482 3.15487 1.32482H3.35236C2.75166 1.32546 2.16624 1.54452 1.67849 1.95117C1.19073 2.35783 0.825189 2.93161 0.633288 3.59178C0.616783 3.65014 0.601309 3.71076 0.586637 3.76992C0.556395 3.89786 0.533005 4.02786 0.516603 4.15915C0.194833 6.8901 0.0222872 9.64192 0 12.3981C0.0223099 15.1546 0.194855 17.9067 0.516603 20.6379C0.533004 20.769 0.556394 20.8988 0.586637 21.0266C0.601309 21.0878 0.616783 21.1462 0.633288 21.2054C0.825004 21.8657 1.1905 22.4397 1.67829 22.8464C2.16608 23.2531 2.7516 23.4721 3.35236 23.4725H3.15452C3.15452 23.4725 8.23814 24.3624 15.0001 24.3989C21.7628 24.3624 26.8455 23.4725 26.8455 23.4725H26.6484C27.2492 23.4721 27.8346 23.2531 28.3224 22.8464C28.8101 22.4397 29.1755 21.8657 29.3671 21.2054C29.3842 21.1456 29.3996 21.0878 29.4129 21.0266C29.444 20.899 29.4678 20.7691 29.4842 20.6379C29.8055 17.9066 29.9778 15.1546 30 12.3981C29.9779 9.64195 29.8058 6.89015 29.4845 4.15915ZM19.4436 13.1431L13.3856 18.2463C13.2613 18.3515 13.1113 18.4083 12.9574 18.4084C12.8424 18.4077 12.7292 18.3764 12.6263 18.317C12.5066 18.2456 12.4061 18.1374 12.3359 18.0042C12.2657 17.871 12.2286 17.7179 12.2285 17.5618V7.35839C12.2281 7.2023 12.2649 7.04913 12.335 6.91589C12.4051 6.78264 12.5057 6.67452 12.6256 6.60355C12.7454 6.53257 12.8799 6.50151 13.0141 6.51381C13.1482 6.52612 13.2768 6.5813 13.3856 6.67324L19.4428 11.7747C19.5359 11.8532 19.6116 11.9562 19.6638 12.0752C19.716 12.1942 19.7433 12.3258 19.7433 12.4593C19.7433 12.5928 19.716 12.7244 19.6638 12.8434C19.6116 12.9624 19.5359 13.0653 19.4428 13.1439L19.4436 13.1431Z" fill="#F4F4F4"/>
</svg>
