<svg width="236" height="75" viewBox="0 0 236 75" fill="none" xmlns="http://www.w3.org/2000/svg">
<path d="M107.426 66.2316H109.038C108.541 66.8815 108.113 67.3867 107.758 67.75C105.75 69.7593 103.313 70.7612 100.445 70.7612C97.5765 70.7612 95.1367 69.7565 93.131 67.75C91.1224 65.7435 90.121 63.3254 90.121 60.4987C90.121 57.672 91.1252 55.2568 93.131 53.2503C95.1395 51.2409 97.5765 50.2391 100.445 50.2391C103.313 50.2391 105.761 51.2466 107.784 53.2644C108.13 53.6192 108.547 54.1215 109.035 54.7715H107.424C107.182 54.4962 106.975 54.2691 106.797 54.0932C105.029 52.325 102.91 51.4396 100.442 51.4396C97.9736 51.4396 95.8573 52.3222 94.0927 54.0846C92.3309 55.8471 91.4487 57.987 91.4487 60.5015C91.4487 63.0161 92.3309 65.156 94.0927 66.9184C95.8544 68.6809 97.9708 69.5635 100.442 69.5635C102.913 69.5635 105.029 68.6809 106.797 66.9128C106.975 66.7339 107.182 66.5097 107.424 66.2345L107.426 66.2316Z" fill="#A2A4A7"/>
<path d="M121.134 66.3508C120.38 66.6261 119.478 66.7623 118.431 66.7623H111.438V70.7612H110.107V50.2362H118.434C120.751 50.2362 122.717 51.0451 124.335 52.6628C125.952 54.2805 126.76 56.2246 126.76 58.5007C126.76 60.7768 125.952 62.7209 124.335 64.3386C123.668 65.0056 123.038 65.4852 122.442 65.7775L127.092 70.7612H125.268L121.137 66.3508H121.134ZM123.367 63.5042C124.74 62.1306 125.424 60.4646 125.424 58.5007C125.424 56.5367 124.737 54.868 123.367 53.4972C121.994 52.1235 120.349 51.4367 118.431 51.4367H111.438V65.5647H118.431C120.349 65.5647 121.994 64.8778 123.367 63.5071V63.5042Z" fill="#A2A4A7"/>
<path d="M129.421 58.1005V69.5607H144.741V70.7612H128.088V50.2362H144.741V51.4367H129.421V56.9H139.413V58.1005H129.421Z" fill="#A2A4A7"/>
<path d="M162.727 70.7612H161.394V64.0974H147.405V70.7612H146.074V58.5007C146.074 56.2246 146.883 54.2805 148.5 52.6628C150.117 51.0451 152.083 50.2362 154.401 50.2362C156.718 50.2362 158.684 51.0451 160.301 52.6628C161.918 54.2805 162.727 56.2246 162.727 58.5007V70.7612ZM161.394 62.8969V58.4979C161.394 56.5339 160.707 54.8651 159.337 53.4943C157.964 52.1207 156.318 51.4339 154.401 51.4339C152.483 51.4339 150.837 52.1207 149.464 53.4943C148.091 54.868 147.405 56.5339 147.405 58.4979V62.8969H161.394Z" fill="#A2A4A7"/>
<path d="M171.72 51.4367H164.06V50.2362H180.713V51.4367H173.053V70.7612H171.72V51.4367Z" fill="#A2A4A7"/>
<path d="M183.374 70.7612H182.044V50.2362H183.374V70.7612Z" fill="#A2A4A7"/>
<path d="M192.461 70.7612L184.588 50.2362H185.947L193.034 68.8824L200.121 50.2362H201.48L193.607 70.7612H192.461Z" fill="#A2A4A7"/>
<path d="M204.024 58.1005V69.5607H219.344V70.7612H202.691V50.2362H219.344V51.4367H204.024V56.9H214.016V58.1005H204.024Z" fill="#A2A4A7"/>
<path d="M226.005 51.4367C225.284 51.4367 224.66 51.7007 224.133 52.2285C223.605 52.7564 223.341 53.4035 223.341 54.167C223.341 54.9304 223.605 55.5775 224.133 56.1054C224.66 56.6332 225.284 56.8972 226.005 56.8972H229.004C230.95 56.8972 232.601 57.5783 233.96 58.9349C235.319 60.2944 235.997 61.9263 235.997 63.8249C235.997 65.7236 235.319 67.3555 233.96 68.7149C232.601 70.0744 230.95 70.7555 229.004 70.7555H227.67C225.724 70.7555 224.073 70.0744 222.714 68.7149C221.355 67.3555 220.677 65.6356 220.677 63.5581H222.008C222.008 65.3263 222.564 66.768 223.679 67.8834C224.794 68.9987 226.124 69.555 227.668 69.555H229.001C230.547 69.555 231.875 68.9987 232.99 67.8834C234.105 66.768 234.661 65.4171 234.661 63.8249C234.661 62.2328 234.102 60.8818 232.99 59.7665C231.875 58.6511 230.544 58.0948 229.001 58.0948H226.002C224.884 58.0948 223.937 57.7089 223.165 56.9341C222.394 56.1621 222.005 55.2369 222.005 54.1613C222.005 53.0856 222.391 52.1633 223.165 51.3885C223.94 50.6137 224.884 50.2277 226.002 50.2277H230.666C231.784 50.2277 232.731 50.6137 233.503 51.3885C234.275 52.1604 234.663 53.1736 234.663 54.4281H233.33C233.33 53.4858 233.066 52.7507 232.539 52.2229C232.011 51.695 231.387 51.431 230.666 51.431H226.002L226.005 51.4367Z" fill="#A2A4A7"/>
<path d="M1.09187 37.1839H11.7106C12.2127 37.1839 12.6297 37.5103 12.6411 37.9076C12.695 39.7552 12.9475 41.5971 13.4099 43.3851L21.8612 41.1969C22.3491 41.0749 22.8002 41.16 22.8654 41.3899C22.9222 41.6227 22.6016 41.932 22.125 42.0881L13.8184 44.7729C14.3886 46.5297 15.1546 48.2212 16.0993 49.8105C16.2979 50.1539 16.139 50.6392 15.7135 50.9145L6.64094 56.7014C6.22107 56.971 5.60262 56.7865 5.29623 56.2643C4.99267 55.7421 5.10615 55.1149 5.54588 54.8736L14.1475 50.0744C13.3078 48.5674 12.6156 46.9781 12.085 45.3377L7.89771 46.6915C7.41827 46.8504 6.89627 46.5779 6.76009 46.0784C6.61825 45.5789 6.90194 45.0738 7.38706 44.9517L11.6453 43.8477C11.2141 42.1761 10.9474 40.4647 10.851 38.742L1.15712 39.3011C0.90747 39.3153 0.669166 39.2103 0.493275 39.023C0.323059 38.8357 0.212418 38.5689 0.203907 38.2709C0.186885 37.6721 0.586895 37.1867 1.09187 37.1896V37.1839Z" fill="#A2A4A7"/>
<path d="M29.8812 50.1738C29.9919 50.2362 30.0372 50.3895 30.0287 50.5853C30.0231 50.7754 29.9578 51.011 29.833 51.2466L20.2356 69.3024C20.1108 69.5351 19.8867 69.6912 19.62 69.7452C19.3561 69.7962 19.0554 69.7452 18.7774 69.5891C18.2214 69.2712 18.0029 68.644 18.2866 68.1899L28.9819 50.7613C29.2599 50.3157 29.6628 50.0489 29.8812 50.1738Z" fill="#A2A4A7"/>
<path d="M28.1734 49.0357C28.3663 49.2003 28.2925 49.6544 27.9833 50.0886L16.0057 66.663C15.6993 67.0916 15.0213 67.1512 14.522 66.7538C12.6127 65.2809 10.8481 63.6263 9.25944 61.8156C8.83958 61.3331 8.83958 60.669 9.2481 60.3341C9.65945 59.9992 10.3063 60.0957 10.7006 60.5498C11.9716 61.9915 13.356 63.3339 14.8369 64.56L27.2003 49.4955C27.5379 49.0868 27.9776 48.8796 28.1734 49.0385V49.0357Z" fill="#A2A4A7"/>
<path d="M51.6463 45.0397C51.2037 44.9659 50.747 44.6367 50.5938 44.3273C50.5342 44.2081 50.5285 44.1088 50.5654 44.035C50.6278 43.9101 50.8179 43.8505 51.0931 43.8874C54.279 44.3131 57.6436 44.1457 61.0025 43.3425C58.472 40.9954 55.6237 39.2103 52.6449 38.0183C52.3924 37.9161 52.2505 37.7714 52.2562 37.6295C52.2562 37.5443 52.313 37.4564 52.4236 37.3797C52.713 37.1811 53.2832 37.1158 53.6946 37.269C56.9258 38.4667 60.0295 40.3342 62.7898 42.8515C66.3644 41.756 69.8964 39.934 73.1645 37.4365C73.5872 37.1158 74.1518 37.2378 74.4213 37.7373C74.6908 38.2397 74.566 38.9208 74.1263 39.2273C70.946 41.4921 67.5587 43.1495 64.143 44.1599C66.6197 46.717 68.7587 49.8247 70.4013 53.3751C70.6226 53.8576 70.4042 54.5217 69.9247 54.8254C69.4339 55.1262 68.8779 54.9474 68.6765 54.4649C67.0793 50.6676 64.8892 47.3414 62.3132 44.6367C58.6706 45.4768 55.0478 45.5931 51.6378 45.034L51.6463 45.0397Z" fill="#A2A4A7"/>
<path d="M31.8869 52.6457C31.8869 52.2058 32.1366 51.6921 32.4174 51.4906C32.5224 51.414 32.6189 51.3941 32.6983 51.4225C32.8288 51.4736 32.9224 51.6382 32.9309 51.9135C33.0359 55.1262 33.7593 58.4184 35.1097 61.5999C37.0048 58.7135 38.3211 55.6172 39.0105 52.4811C39.0701 52.2144 39.1864 52.0554 39.3283 52.0384C39.4134 52.027 39.507 52.0696 39.5978 52.1689C39.8389 52.413 39.9921 52.9608 39.9127 53.3978C39.2743 56.7837 37.9155 60.1581 35.8899 63.2914C37.558 66.6375 39.9098 69.8275 42.9198 72.6457C43.3057 73.0004 43.2801 73.5851 42.8262 73.9398C42.3751 74.2861 41.6772 74.2605 41.2999 73.8859C38.5452 71.1131 36.3807 68.0338 34.8203 64.8324C32.7097 67.6989 30.0032 70.3241 26.7719 72.535C26.3265 72.85 25.64 72.7308 25.2598 72.2994C24.8797 71.8709 24.9619 71.2976 25.4102 71.0138C28.8968 68.8029 31.8075 66.1011 34.0487 63.1126C32.6189 59.6558 31.904 56.094 31.8926 52.6457H31.8869Z" fill="#A2A4A7"/>
<path d="M47.7256 71.8879C47.649 70.7498 47.7597 69.6061 48.0008 68.5248C48.2476 67.452 48.6051 66.3962 49.0618 65.4398C49.9696 63.4957 51.1867 61.8468 52.7527 60.5697L46.0291 50.4264C45.8901 50.2163 45.8078 49.9978 45.7851 49.819C45.7596 49.6345 45.788 49.487 45.8873 49.416C46.083 49.2741 46.4915 49.4926 46.7923 49.89L54.0974 59.6246C55.8138 58.583 57.7741 57.9927 59.9046 57.7855C62.0096 57.584 64.2991 57.7713 66.3899 58.6681C66.8551 58.8668 67.0225 59.4628 66.7332 59.985C66.4438 60.5101 65.8395 60.7626 65.3828 60.5299C63.726 59.704 61.8877 59.477 60.1259 59.5962C58.3557 59.7211 56.6875 60.2177 55.1953 61.089L58.367 65.3177C58.6734 65.7208 58.5344 66.3224 58.0578 66.663C57.8195 66.8305 57.5471 66.9014 57.2975 66.873C57.045 66.839 56.8237 66.7141 56.6847 66.5041L53.7626 62.0965C52.4406 63.2233 51.4051 64.6281 50.6931 66.2572C50.5143 66.6602 50.3611 67.0802 50.2306 67.5116C50.1001 67.943 49.9895 68.3715 49.9101 68.8171C49.7512 69.7054 49.7086 70.6335 49.825 71.5587C49.8902 72.0582 49.4533 72.552 48.8576 72.6513C48.2646 72.7564 47.754 72.3902 47.7228 71.8907L47.7256 71.8879Z" fill="#A2A4A7"/>
<path d="M73.4709 37.1839H62.8522C62.3501 37.1839 61.933 36.8575 61.9217 36.4602C61.8678 34.6126 61.6153 32.7707 61.1529 30.9827L52.7016 33.1709C52.2137 33.2929 51.7626 33.2078 51.6973 32.9779C51.6406 32.7451 51.9612 32.4358 52.4378 32.2797L60.7444 29.5949C60.1741 27.8381 59.4082 26.1466 58.4635 24.5573C58.2649 24.2139 58.4237 23.7286 58.8493 23.4533L67.9218 17.6665C68.3417 17.3968 68.9602 17.5813 69.2666 18.1035C69.5701 18.6257 69.4566 19.2529 69.0169 19.4942L60.4153 24.2934C61.255 25.8004 61.9472 27.3897 62.4777 29.0301L66.6651 27.6763C67.1445 27.5174 67.6665 27.7899 67.8027 28.2894C67.9445 28.7889 67.6608 29.294 67.1757 29.4161L62.9175 30.5201C63.3487 32.1917 63.6154 33.9031 63.7118 35.6258L73.4057 35.0667C73.6553 35.0525 73.8936 35.1575 74.0695 35.3448C74.2397 35.5321 74.3504 35.7989 74.3589 36.0969C74.3759 36.6958 73.9759 37.1811 73.4709 37.1782V37.1839Z" fill="#A2A4A7"/>
<path d="M44.6816 24.194C44.5709 24.1316 44.5255 23.9783 44.534 23.7825C44.5397 23.5924 44.605 23.3568 44.7298 23.1212L54.3272 5.06539C54.452 4.83267 54.6761 4.67657 54.9428 4.62265C55.2066 4.57156 55.5074 4.62265 55.7854 4.77874C56.3414 5.09661 56.5599 5.72382 56.2762 6.17792L45.5809 23.6065C45.3029 24.0521 44.9 24.3189 44.6816 24.194Z" fill="#A2A4A7"/>
<path d="M46.3894 25.3321C46.1965 25.1675 46.2703 24.7134 46.5795 24.2792L58.5571 7.7048C58.8635 7.27625 59.5415 7.21665 60.0408 7.61398C61.9501 9.08694 63.7147 10.7415 65.3033 12.5522C65.7232 13.0347 65.7232 13.6988 65.3147 14.0337C64.9033 14.3686 64.2565 14.2721 63.8622 13.818C62.5912 12.3763 61.2068 11.0339 59.7259 9.80782L47.3625 24.8723C47.0249 25.281 46.5852 25.4882 46.3894 25.3293V25.3321Z" fill="#A2A4A7"/>
<path d="M22.9165 29.3281C23.3591 29.4019 23.8158 29.7311 23.969 30.0405C24.0286 30.1597 24.0343 30.259 23.9974 30.3328C23.935 30.4577 23.7449 30.5173 23.4697 30.4804C20.2838 30.0547 16.9192 30.2221 13.5603 31.0253C16.0908 33.3724 18.9391 35.1575 21.9179 36.3495C22.1704 36.4517 22.3122 36.5964 22.3066 36.7383C22.3066 36.8235 22.2498 36.9114 22.1392 36.9881C21.8498 37.1867 21.2796 37.252 20.8682 37.0988C17.6369 35.9011 14.5333 34.0336 11.773 31.5163C8.19842 32.6118 4.66643 34.4338 1.39826 36.9313C0.975556 37.252 0.411004 37.13 0.141494 36.6305C-0.128016 36.1281 -0.00319037 35.447 0.436536 35.1405C3.61675 32.8757 7.00407 31.2183 10.4198 30.2079C7.9431 27.6508 5.80404 24.5431 4.16145 20.9927C3.94017 20.5102 4.15861 19.8461 4.63806 19.5424C5.12885 19.2416 5.68489 19.4204 5.88631 19.9029C7.48351 23.7002 9.67364 27.0264 12.2496 29.7311C15.8922 28.891 19.515 28.7747 22.925 29.3338L22.9165 29.3281Z" fill="#A2A4A7"/>
<path d="M42.6758 21.7221C42.6758 22.162 42.4262 22.6757 42.1453 22.8772C42.0404 22.9538 41.9439 22.9736 41.8645 22.9453C41.734 22.8942 41.6404 22.7296 41.6319 22.4543C41.5269 19.2416 40.8035 15.9494 39.4531 12.7679C37.558 15.6543 36.2416 18.7506 35.5523 21.8867C35.4927 22.1534 35.3764 22.3124 35.2345 22.3294C35.1494 22.3408 35.0558 22.2982 34.965 22.1989C34.7239 21.9548 34.5707 21.407 34.6501 20.97C35.2884 17.5841 36.6473 14.2097 38.6729 11.0764C37.0048 7.73034 34.653 4.54035 31.643 1.72214C31.2571 1.36738 31.2827 0.782733 31.7366 0.427973C32.1877 0.0817281 32.8855 0.107271 33.2629 0.481897C36.0175 3.2547 38.1821 6.33401 39.7424 9.53536C41.8531 6.6689 44.5596 4.04368 47.7909 1.83282C48.2363 1.51779 48.9228 1.63699 49.303 2.06838C49.6831 2.49693 49.6008 3.07022 49.1526 3.35403C45.666 5.56489 42.7553 8.26674 40.5141 11.2552C41.9439 14.712 42.6588 18.2738 42.6702 21.7221H42.6758Z" fill="#A2A4A7"/>
<path d="M26.8372 2.4799C26.9138 3.61797 26.8031 4.76172 26.562 5.84302C26.3152 6.91582 25.9577 7.97158 25.501 8.92517C24.5931 10.8693 23.3761 12.5182 21.8101 13.7953L28.5337 23.9386C28.6727 24.1486 28.7549 24.3671 28.7776 24.5459C28.8032 24.7304 28.7748 24.878 28.6755 24.949C28.4798 25.0909 28.0712 24.8723 27.7705 24.475L20.4654 14.7404C18.749 15.782 16.7887 16.3723 14.6582 16.5795C12.5531 16.781 10.2637 16.5937 8.17289 15.6968C7.70763 15.4982 7.54025 14.9022 7.82962 14.38C8.11899 13.8549 8.72326 13.6023 9.18001 13.835C10.8368 14.6609 12.6751 14.888 14.4369 14.7688C16.2071 14.6439 17.8753 14.1472 19.3675 13.2759L16.1958 9.04721C15.8894 8.6442 16.0284 8.04253 16.505 7.70196C16.7433 7.53452 17.0157 7.46356 17.2653 7.49195C17.5178 7.526 17.7391 7.65088 17.8781 7.8609L20.8001 12.2684C22.1222 11.1417 23.1576 9.73686 23.8697 8.10781C24.0485 7.7048 24.2016 7.28477 24.3321 6.85338C24.4626 6.42199 24.5733 5.99344 24.6527 5.54786C24.8116 4.65954 24.8541 3.73149 24.7378 2.80628C24.6726 2.30678 25.1095 1.81295 25.7052 1.71362C26.2982 1.60861 26.8088 1.97472 26.84 2.47423L26.8372 2.4799Z" fill="#A2A4A7"/>
<path d="M133.35 39.5423C133.35 39.5423 133.336 39.5423 133.328 39.5423C133.328 39.5423 133.342 39.5423 133.35 39.5423Z" fill="#A2A4A7"/>
<path d="M143.841 37.8594C140.36 38.461 136.865 39.0372 133.35 39.5423C136.837 39.1053 140.329 38.5519 143.841 37.953V37.8594Z" fill="#A2A4A7"/>
<path d="M139.719 38.7335C137.643 39.0485 135.535 39.3664 133.416 39.6388L133.6 39.8347C135.719 39.4913 137.782 39.1081 139.722 38.7335H139.719Z" fill="#A2A4A7"/>
<path d="M143.841 38.3305V38.3078C141.024 38.8271 138.23 39.3352 135.455 39.7807C134.962 39.8801 134.477 39.9794 133.989 40.0787C137.223 39.6587 140.576 38.9719 143.841 38.3305Z" fill="#A2A4A7"/>
<path d="M135.455 39.7836C137.155 39.4544 138.956 39.1365 141.112 38.7562C139.901 38.935 138.238 39.1819 136.565 39.4288C135.592 39.5849 134.616 39.7382 133.64 39.8801L133.787 40.039C134.343 39.9539 134.896 39.8716 135.453 39.7836H135.455Z" fill="#A2A4A7"/>
<path d="M151.799 36.534C153.325 36.2417 154.82 35.9408 156.301 35.6173C154.372 35.9862 152.44 36.358 150.508 36.7298V36.7667C150.939 36.6872 151.368 36.6106 151.802 36.534H151.799Z" fill="#A2A4A7"/>
<path d="M151.66 36.4715C151.277 36.5425 150.891 36.6106 150.505 36.6787V36.7185C150.905 36.6333 151.297 36.5482 151.66 36.4715Z" fill="#A2A4A7"/>
<path d="M99.3269 34.7006C98.4786 34.3146 97.6332 33.9428 96.785 33.5767V33.6987C97.6729 34.0251 98.5609 34.3487 99.3269 34.7006Z" fill="#A2A4A7"/>
<path d="M156.75 35.5208L156.301 35.6173C156.452 35.5889 156.602 35.5577 156.75 35.5293V35.5179V35.5208Z" fill="#A2A4A7"/>
<path d="M156.75 35.5662V35.5435C156.625 35.5747 156.602 35.5889 156.75 35.5662Z" fill="#A2A4A7"/>
<path d="M101.429 35.6343V35.5861C99.8744 34.9532 98.3481 34.326 96.785 33.7073V33.8889C98.3226 34.4423 99.8716 35.0326 101.429 35.6343Z" fill="#A2A4A7"/>
<path d="M96.7878 0.183899H90.1238V29.7084C90.1947 29.7254 90.2656 29.7396 90.3366 29.7595C92.4983 30.469 94.6402 31.3062 96.7878 32.2002V0.183899ZM93.9111 26.5468C93.4374 26.4248 92.9664 26.3197 92.487 26.2289C92.2629 26.07 91.9451 25.9196 91.5678 25.772C92.3763 25.9934 93.1338 26.2885 93.9083 26.5468H93.9111Z" fill="#A2A4A7"/>
<path d="M96.7878 33.0063V32.2967C94.5636 31.4425 92.3168 30.6308 90.1238 29.8531V30.7301C91.9536 31.258 93.7891 31.8795 95.6331 32.5635C96.019 32.7054 96.4048 32.8587 96.7906 33.0063H96.7878Z" fill="#A2A4A7"/>
<path d="M93.1934 32.6628C94.3877 33.0403 95.5849 33.4575 96.785 33.8917V33.7101C96.6601 33.659 96.5353 33.6108 96.4076 33.5597C96.5325 33.6051 96.6601 33.6533 96.785 33.6987V33.5767C94.5665 32.6203 92.3536 31.7518 90.121 30.9997V45.9677H96.785V34.9532C95.4374 34.4111 94.087 33.8804 92.7196 33.3752C90.7196 32.6799 88.1124 31.0508 93.1934 32.6628Z" fill="#A2A4A7"/>
<path d="M146.724 37.7799C145.756 37.9587 144.8 38.1318 143.841 38.3106V38.3333C144.812 38.1432 145.776 37.9559 146.724 37.7827V37.7799Z" fill="#A2A4A7"/>
<path d="M143.841 38.8981V45.9706H150.505V37.4053C149.453 37.6408 148.406 37.8792 147.373 38.1261C146.599 38.3021 145.294 38.5887 143.841 38.9009V38.8981Z" fill="#A2A4A7"/>
<path d="M146.474 36.3722C147.827 36.1906 149.169 35.9919 150.508 35.7791V0.183899H143.844V36.7043C144.727 36.622 145.606 36.5368 146.477 36.4318C146.451 36.4176 146.278 36.4148 146.477 36.3722H146.474Z" fill="#A2A4A7"/>
<path d="M146.222 37.5415L145.728 37.6352L146.71 37.4564C147.969 37.2293 149.234 36.9994 150.503 36.7695V36.7326C150.31 36.7695 150.12 36.8064 149.927 36.8433C150.125 36.8008 150.312 36.761 150.503 36.7213V36.6816C148.287 37.0817 146.066 37.4791 143.839 37.8622V37.9559C144.633 37.8196 145.424 37.6862 146.222 37.5443V37.5415Z" fill="#A2A4A7"/>
<path d="M117.066 40.1355C120.831 40.9415 124.666 41.2821 128.406 40.8649C127.892 40.8961 127.347 40.9103 126.774 40.916C126.204 40.9444 125.631 40.9216 125.052 40.8933C124.471 40.8762 123.881 40.8564 123.288 40.8365C122.695 40.8138 122.108 40.7287 121.52 40.6776C120.936 40.6095 120.346 40.5782 119.781 40.4732C119.217 40.3682 118.663 40.266 118.124 40.1639C117.044 39.9794 116.073 39.6445 115.217 39.3522C118.476 40.2008 121.852 40.7769 125.279 40.8081C126.125 40.8649 127.013 40.7968 127.867 40.7514C128.715 40.6719 129.569 40.6095 130.406 40.4931C131.535 40.3597 132.661 40.2008 133.787 40.0305L133.64 39.8716C132.397 40.056 131.152 40.2263 129.909 40.3597C131.157 40.2064 132.386 40.022 133.6 39.8261L133.416 39.6303C133.189 39.6587 132.965 39.6956 132.735 39.724C130.383 39.9964 128.028 40.3171 125.645 40.2405C121.214 40.2008 116.811 39.3266 112.604 37.9984C108.76 36.7951 105.077 35.2114 101.429 33.6136V34.8311C102.967 35.4527 104.516 36.0799 106.084 36.6872C109.636 38.0609 113.302 39.3238 117.066 40.1298V40.1355Z" fill="#A2A4A7"/>
<path d="M129.864 41.8752L127.946 42.1874C127.296 42.2782 126.59 42.3492 125.918 42.406L123.937 42.4741L122.879 42.4854L121.832 42.4173C121.134 42.3662 120.434 42.3208 119.739 42.2527C118.371 42.0342 116.973 41.8752 115.636 41.5432C112.919 40.9869 110.32 40.1525 107.753 39.2671C105.608 38.5093 103.514 37.6749 101.429 36.8291V45.9649H139.319L134.601 40.9075C133.651 41.1146 132.698 41.319 131.739 41.5148L129.861 41.8724L129.864 41.8752Z" fill="#A2A4A7"/>
<path d="M104.998 34.3089C104.995 34.1557 102.419 33.0091 103.962 33.5654C106.797 34.5189 109.154 35.4896 111.16 36.1253C112.156 36.4687 113.063 36.7156 113.875 36.8831C114.28 36.971 114.661 37.0392 115.018 37.0874C115.378 37.1243 115.713 37.13 116.025 37.1186C116.147 37.0988 115.855 36.9342 115.384 36.7043C114.91 36.4545 114.28 36.1225 113.693 35.8103C112.519 35.2001 111.577 34.5473 112.581 34.8652C114.249 35.3732 117.205 36.3807 120.454 36.9483C121.384 37.1413 122.357 37.2889 123.367 37.4649C123.492 37.4876 123.708 37.4706 123.977 37.4535C124.854 37.5103 125.759 37.6579 126.57 37.6635C127.367 37.7033 128.215 37.6777 128.996 37.6692C129.915 37.6465 130.757 37.6153 131.504 37.5869L131.421 37.4989C131.347 37.4989 131.279 37.4989 131.206 37.5018C130.95 37.5358 130.403 37.5585 129.892 37.6323C129.574 37.6039 129.245 37.5756 128.905 37.5443C129.725 37.5301 130.559 37.5074 131.399 37.4762L128.942 34.8425C130.269 34.1897 131.677 33.1198 133.163 31.6326C136.769 28.0254 138.573 23.686 138.573 18.6115C138.573 13.537 136.769 9.19763 133.163 5.59043C129.557 1.98324 125.169 0.178223 119.997 0.178223H101.423V29.5523C101.778 29.7084 102.13 29.8645 102.484 30.0206C102.277 29.9894 102.408 30.1228 102.408 30.1824C102.079 30.0206 101.752 29.8503 101.423 29.6829V33.1113L104.05 34.1386C104.414 34.2209 104.734 34.2834 104.992 34.3061L104.998 34.3089ZM115.917 35.5236C118.241 36.253 120.601 36.7809 123.007 37.1527V37.1669C121.078 36.8831 118.743 36.4176 116.618 35.7365C114.488 35.1178 112.547 34.4139 111.302 34.1613C110.632 33.7725 109.86 33.3411 109.012 32.9126C111.307 33.9144 113.594 34.7744 115.917 35.5236Z" fill="#A2A4A7"/>
<path d="M106.065 37.4223C106.082 37.4223 106.099 37.4223 106.11 37.4223C104.473 36.815 102.935 36.1991 101.429 35.5889V35.6371C102.964 36.2303 104.504 36.8291 106.065 37.4223Z" fill="#A2A4A7"/>
<path d="M101.429 33.134V33.4348C102.317 33.6817 103.25 33.957 104.016 34.133C103.199 33.8378 102.328 33.4972 101.429 33.134Z" fill="#A2A4A7"/>
<path d="M109.248 38.9577C110.019 39.2103 110.788 39.4657 111.568 39.7013C110.763 39.46 109.994 39.2131 109.248 38.9577C107.838 38.4951 106.439 38.0155 105.072 37.5018C107.73 38.4752 110.561 39.5083 113.597 40.2888C116.621 41.0749 119.81 41.6595 123.024 41.81C124.21 41.81 125.282 42.0058 126.542 42.0143C127.18 42.0143 127.85 41.9916 128.519 41.8894C129.206 41.8043 129.938 41.6652 130.721 41.4524C129.725 41.6056 128.689 41.7078 127.654 41.8071L126.023 41.8838L124.437 41.8327C123.906 41.81 123.376 41.7986 122.845 41.7646L121.265 41.5801C120.74 41.5091 120.204 41.4694 119.685 41.3701L118.122 41.0721C113.954 40.2433 109.94 38.8811 106.065 37.4223C105.489 37.4138 103.44 36.5028 102.436 36.2558C104.811 37.3003 106.921 38.1659 109.245 38.9577H109.248Z" fill="#A2A4A7"/>
<path d="M133.328 39.5452C131.889 39.7268 130.451 39.8801 129.01 39.9936C127.566 40.11 126.093 40.161 124.649 40.0333C123.197 39.9908 121.767 39.7524 120.334 39.5622C118.919 39.2727 117.498 39.0258 116.113 38.62C119.075 39.5367 122.309 40.1837 125.645 40.249C128.258 40.2802 130.791 39.8801 133.328 39.5452Z" fill="#A2A4A7"/>
<path d="M168.361 31.4254L168.353 31.4198C170.282 30.6478 172.219 29.8077 174.18 28.9648C174.512 28.8513 174.832 28.752 175.136 28.6668C175.604 28.4114 176.112 28.1844 176.344 28.0538C177.924 27.4181 179.275 26.9328 180.642 26.4616C180.875 26.3339 181.292 26.0303 181.811 25.8202C182.864 25.4116 183.879 25.0171 184.872 24.6339C186.072 24.2167 187.303 23.8194 188.58 23.4817C189.647 23.2064 190.728 22.9651 191.828 22.7807C191.167 21.6681 190.362 20.6124 189.377 19.6276C187.357 17.6068 185.513 16.378 183.851 15.9409C183.851 15.921 184.109 15.6543 184.623 15.1377C186.347 13.415 187.207 11.3517 187.207 8.95356C187.207 6.55538 186.345 4.49494 184.623 2.76939C182.9 1.04667 180.79 0.183899 178.293 0.183899H156.747V34.6438C157.484 34.5019 158.216 34.3515 158.948 34.1954C161.819 33.5313 165.66 32.6118 168.358 31.4254H168.361Z" fill="#A2A4A7"/>
<path d="M156.75 34.7034V34.7119C156.891 34.6779 157.045 34.641 157.201 34.6041C157.047 34.6381 156.897 34.6722 156.75 34.7034Z" fill="#A2A4A7"/>
<path d="M157.053 35.4725C157.447 35.3817 157.992 35.254 158.228 35.2001L156.747 35.5208V35.5321C156.849 35.5123 156.951 35.4924 157.05 35.4725H157.053Z" fill="#A2A4A7"/>
<path d="M181.031 29.3082C178.866 30.066 176.71 30.7869 174.58 31.4709C172.205 32.2513 169.873 33.0119 167.536 33.6874C165.172 34.3685 162.838 34.7914 160.562 35.2739C159.277 35.535 158.009 35.7961 156.75 36.06V45.9677H178.296C182.634 45.9677 186.319 44.4522 189.352 41.4183C192.384 38.3844 193.899 34.7488 193.899 30.5087C193.899 28.7491 193.624 27.1031 193.108 25.5563C191.241 25.9025 189.38 26.4304 187.542 27.0321C185.377 27.7416 183.201 28.5647 181.034 29.3111L181.031 29.3082Z" fill="#A2A4A7"/>
<path d="M176.202 30.3924C177.082 30.0859 177.964 29.7765 178.815 29.4416C177.964 29.751 177.082 30.0717 176.202 30.3924Z" fill="#A2A4A7"/>
<path d="M156.75 35.5662C156.846 35.552 157.008 35.5236 157.274 35.4754C159.243 35.1178 161.286 34.7091 163.396 34.2437C164.452 34.0109 165.524 33.7725 166.611 33.4774C167.68 33.1709 168.77 32.8587 169.885 32.5408C171.045 32.2088 172.588 31.6951 174.236 31.1019C174.699 30.9799 174.929 30.8805 175.13 30.7784C175.485 30.6478 175.845 30.5173 176.202 30.3867C175.873 30.5031 175.544 30.6166 175.218 30.733C175.431 30.6223 175.655 30.5002 176.14 30.3299C173.099 31.3573 170.004 32.4188 166.824 33.344C165.223 33.7952 163.595 34.1273 161.967 34.4764C160.333 34.8056 158.696 35.1376 157.053 35.4669C156.928 35.4952 156.823 35.5208 156.75 35.5407V35.5634V35.5662Z" fill="#A2A4A7"/>
<path d="M230.59 5.59611C226.984 1.98892 222.595 0.183899 217.423 0.183899C212.252 0.183899 207.863 1.98892 204.257 5.59611C200.651 9.20331 198.847 13.5456 198.847 18.6172V22.7267C199.976 22.9595 201.08 23.3341 202.092 23.8251C202.209 23.9301 202.217 23.9982 202.226 24.0663C202.912 24.2934 203.721 24.8525 204.26 25.1448C204.149 25.0994 204.075 25.0795 204.075 25.1136C205.798 26.1324 205.976 26.49 207.332 27.5174C207.642 27.7359 207.956 27.9091 208.268 28.1077C208.416 28.2156 208.564 28.3263 208.714 28.4341C210.152 29.6885 211.818 30.5598 213.73 31.4311C215.63 32.3308 217.645 33.0318 219.713 33.5654C221.355 33.974 221.988 34.15 223.148 34.3572C220.689 33.9684 218.07 33.3695 215.579 32.4812C213.08 31.6042 210.762 30.4009 208.683 29.2032C209.843 30.0036 211.174 30.7926 212.564 31.4538C213.954 32.1179 215.398 32.6487 216.717 33.0772C219.369 33.9059 221.534 34.2437 221.937 34.3685C222.141 34.4253 221.758 34.3997 221.001 34.2919C220.24 34.2011 219.111 34.0109 217.829 33.7186C216.55 33.4206 215.125 32.9977 213.784 32.4926C212.444 31.976 211.191 31.38 210.192 30.8635C210.534 31.0641 210.877 31.2656 211.219 31.468C210.705 31.1643 210.186 30.8749 209.704 30.6506C210.694 31.3233 212.796 32.3052 213.392 32.6089L212.362 32.3052C213.732 33.0034 215.837 33.7129 217.991 34.1358C219.798 34.5048 221.625 34.6722 223.06 34.7403C223.321 34.7517 223.582 34.7659 223.84 34.7715C223.599 34.7659 223.336 34.7545 223.06 34.7403C219.579 34.5984 215.772 33.9201 212.025 32.328C210.016 31.4794 208.059 30.347 206.192 29.0954C204.322 27.858 202.515 26.5411 200.509 25.8429C199.968 25.6528 199.412 25.5081 198.844 25.403V45.9706H235.991V18.62C235.991 13.5456 234.187 9.20614 230.584 5.59895L230.59 5.59611Z" fill="#A2A4A7"/>
</svg>
