<svg width="20" height="21" viewBox="0 0 20 21" fill="none" xmlns="http://www.w3.org/2000/svg">
<path fill-rule="evenodd" clip-rule="evenodd" d="M15.6123 15.6867V11.7827C15.6123 9.69137 14.4957 8.71803 13.007 8.71803C11.8057 8.71803 11.2673 9.3787 10.9673 9.84237V8.8777H8.704C8.734 9.5167 8.704 15.687 8.704 15.687H10.9673V11.884C10.9673 11.6807 10.982 11.4774 11.042 11.3317C11.2053 10.9254 11.5777 10.5044 12.2027 10.5044C13.022 10.5044 13.3493 11.1287 13.3493 12.0437V15.6867H15.6123ZM6.31967 7.94837C7.10867 7.94837 7.60033 7.42537 7.60033 6.77137C7.58567 6.1037 7.10867 5.59537 6.33467 5.59537C5.56067 5.59537 5.05433 6.1037 5.05433 6.77137C5.05433 7.42537 5.54567 7.94837 6.30533 7.94837H6.31967ZM7.45133 15.6867V8.8777H5.18833V15.6867H7.45133ZM0 0.974365H20V20.9744H0V0.974365Z" fill="#BB573E"/>
</svg>
