<svg width="18" height="21" viewBox="0 0 18 21" fill="none" xmlns="http://www.w3.org/2000/svg">
<path d="M0 4.07861C0 2.97861 0.9 2.07861 2 2.07861H16C16.5304 2.07861 17.0391 2.28933 17.4142 2.6644C17.7893 3.03947 18 3.54818 18 4.07861V18.0786C18 18.609 17.7893 19.1178 17.4142 19.4928C17.0391 19.8679 16.5304 20.0786 16 20.0786H2C1.46957 20.0786 0.960859 19.8679 0.585786 19.4928C0.210714 19.1178 0 18.609 0 18.0786V4.07861ZM2 6.07861V18.0786H16V6.07861H2ZM4 0.0786133H6V2.07861H4V0.0786133ZM12 0.0786133H14V2.07861H12V0.0786133ZM4 9.07861H6V11.0786H4V9.07861ZM4 13.0786H6V15.0786H4V13.0786ZM8 9.07861H10V11.0786H8V9.07861ZM8 13.0786H10V15.0786H8V13.0786ZM12 9.07861H14V11.0786H12V9.07861ZM12 13.0786H14V15.0786H12V13.0786Z" fill="#4D4D4D" fill-opacity="0.5"/>
</svg>
