<svg width="180" height="56" viewBox="0 0 180 56" fill="none" xmlns="http://www.w3.org/2000/svg">
<path d="M81.9235 49.9366H83.1524C82.7738 50.4279 82.4471 50.8098 82.1767 51.0844C80.6449 52.6035 78.7865 53.3609 76.5993 53.3609C74.412 53.3609 72.5514 52.6014 71.0219 51.0844C69.4901 49.5675 68.7264 47.7395 68.7264 45.6025C68.7264 43.4654 69.4923 41.6395 71.0219 40.1226C72.5536 38.6035 74.412 37.8461 76.5993 37.8461C78.7865 37.8461 80.6536 38.6078 82.1961 40.1333C82.4601 40.4015 82.7781 40.7813 83.1502 41.2726H81.9214C81.7375 41.0645 81.5795 40.8929 81.4432 40.7598C80.0954 39.4231 78.4793 38.7537 76.5971 38.7537C74.7149 38.7537 73.1009 39.421 71.7553 40.7534C70.4117 42.0858 69.7389 43.7036 69.7389 45.6046C69.7389 47.5056 70.4117 49.1234 71.7553 50.4558C73.0988 51.7882 74.7127 52.4555 76.5971 52.4555C78.4815 52.4555 80.0954 51.7882 81.4432 50.4515C81.5795 50.3163 81.7375 50.1468 81.9214 49.9387L81.9235 49.9366Z" fill="#BB573E"/>
<path d="M92.3774 50.0267C91.8019 50.2348 91.1139 50.3378 90.3156 50.3378H84.9827V53.3609H83.968V37.844H90.3178C92.0853 37.844 93.5846 38.4555 94.8178 39.6785C96.0509 40.9015 96.6675 42.3712 96.6675 44.092C96.6675 45.8127 96.0509 47.2825 94.8178 48.5054C94.3093 49.0097 93.8291 49.3723 93.3747 49.5933L96.9206 53.3609H95.5295L92.3795 50.0267H92.3774ZM94.08 47.8746C95.1271 46.8362 95.6485 45.5767 95.6485 44.092C95.6485 42.6072 95.125 41.3456 94.08 40.3093C93.0329 39.2708 91.7781 38.7516 90.3156 38.7516H84.9827V49.4323H90.3156C91.7781 49.4323 93.0329 48.9131 94.08 47.8768V47.8746Z" fill="#BB573E"/>
<path d="M98.6968 43.7894V52.4533H110.38V53.3609H97.68V37.844H110.38V38.7516H98.6968V42.8818H106.317V43.7894H98.6968Z" fill="#BB573E"/>
<path d="M124.096 53.3609H123.079V48.3231H112.411V53.3609H111.396V44.092C111.396 42.3712 112.013 40.9015 113.246 39.6785C114.479 38.4555 115.979 37.844 117.746 37.844C119.514 37.844 121.013 38.4555 122.246 39.6785C123.479 40.9015 124.096 42.3712 124.096 44.092V53.3609ZM123.079 47.4155V44.0898C123.079 42.6051 122.555 41.3435 121.511 40.3071C120.463 39.2687 119.209 38.7494 117.746 38.7494C116.284 38.7494 115.029 39.2687 113.982 40.3071C112.935 41.3456 112.411 42.6051 112.411 44.0898V47.4155H123.079Z" fill="#BB573E"/>
<path d="M130.954 38.7516H125.113V37.844H137.812V38.7516H131.971V53.3609H130.954V38.7516Z" fill="#BB573E"/>
<path d="M139.842 53.3609H138.827V37.844H139.842V53.3609Z" fill="#BB573E"/>
<path d="M146.771 53.3609L140.768 37.844H141.804L147.208 51.9405L152.612 37.844H153.649L147.645 53.3609H146.771Z" fill="#BB573E"/>
<path d="M155.589 43.7894V52.4533H167.272V53.3609H154.573V37.844H167.272V38.7516H155.589V42.8818H163.209V43.7894H155.589Z" fill="#BB573E"/>
<path d="M172.352 38.7516C171.802 38.7516 171.326 38.9511 170.924 39.3502C170.522 39.7493 170.32 40.2385 170.32 40.8156C170.32 41.3928 170.522 41.882 170.924 42.2811C171.326 42.6802 171.802 42.8797 172.352 42.8797H174.639C176.123 42.8797 177.382 43.3946 178.418 44.4202C179.455 45.448 179.972 46.6817 179.972 48.1171C179.972 49.5525 179.455 50.7862 178.418 51.8139C177.382 52.8417 176.123 53.3566 174.639 53.3566H173.622C172.138 53.3566 170.879 52.8417 169.842 51.8139C168.806 50.7862 168.289 49.486 168.289 47.9154H169.304C169.304 49.2521 169.728 50.3421 170.578 51.1853C171.428 52.0285 172.443 52.449 173.62 52.449H174.637C175.816 52.449 176.828 52.0285 177.678 51.1853C178.529 50.3421 178.953 49.3208 178.953 48.1171C178.953 46.9134 178.526 45.8921 177.678 45.0489C176.828 44.2057 175.813 43.7851 174.637 43.7851H172.35C171.497 43.7851 170.775 43.4933 170.186 42.9076C169.598 42.324 169.301 41.6245 169.301 40.8113C169.301 39.9982 169.596 39.3008 170.186 38.7151C170.777 38.1293 171.497 37.8375 172.35 37.8375H175.906C176.759 37.8375 177.481 38.1293 178.07 38.7151C178.658 39.2987 178.955 40.0647 178.955 41.013H177.938C177.938 40.3007 177.737 39.745 177.334 39.3459C176.932 38.9468 176.456 38.7473 175.906 38.7473H172.35L172.352 38.7516Z" fill="#BB573E"/>
<path d="M0.832663 27.9764H8.9305C9.31343 27.9764 9.63146 28.2231 9.64012 28.5235C9.68122 29.9203 9.87377 31.3128 10.2264 32.6645L16.6714 31.0103C17.0435 30.918 17.3875 30.9824 17.4372 31.1562C17.4805 31.3321 17.236 31.566 16.8726 31.684L10.538 33.7137C10.9728 35.0418 11.5569 36.3206 12.2774 37.5221C12.4288 37.7818 12.3077 38.1487 11.9831 38.3568L5.06439 42.7316C4.7442 42.9355 4.27257 42.796 4.03891 42.4012C3.80742 42.0064 3.89396 41.5323 4.2293 41.3499L10.7889 37.7217C10.1485 36.5824 9.62064 35.3808 9.21608 34.1407L6.02281 35.1641C5.65718 35.2843 5.25911 35.0783 5.15526 34.7007C5.04709 34.3231 5.26343 33.9412 5.63338 33.8489L8.88074 33.0143C8.5519 31.7505 8.34853 30.4567 8.27497 29.1543L0.882423 29.577C0.692038 29.5877 0.510307 29.5084 0.376173 29.3667C0.246365 29.2251 0.16199 29.0234 0.1555 28.7982C0.142519 28.3454 0.447567 27.9785 0.832663 27.9807V27.9764Z" fill="#BB573E"/>
<path d="M22.7875 37.7968C22.8718 37.844 22.9065 37.9598 22.9 38.1079C22.8956 38.2516 22.8459 38.4297 22.7507 38.6078L15.4317 52.2581C15.3365 52.434 15.1656 52.552 14.9622 52.5928C14.761 52.6314 14.5317 52.5928 14.3197 52.4748C13.8956 52.2345 13.7291 51.7603 13.9454 51.417L22.1017 38.2409C22.3137 37.9041 22.6209 37.7024 22.7875 37.7968Z" fill="#BB573E"/>
<path d="M21.4851 36.9364C21.6322 37.0608 21.5759 37.4041 21.3401 37.7324L12.206 50.2627C11.9723 50.5867 11.4553 50.6317 11.0745 50.3313C9.61848 49.2178 8.27281 47.9669 7.06127 46.598C6.74108 46.2333 6.74108 45.7312 7.05262 45.478C7.36632 45.2248 7.85959 45.2978 8.16031 45.6411C9.12954 46.731 10.1853 47.7459 11.3146 48.6728L20.743 37.284C21.0005 36.975 21.3358 36.8184 21.4851 36.9385V36.9364Z" fill="#BB573E"/>
<path d="M39.3855 33.9154C39.048 33.8596 38.6997 33.6107 38.5829 33.3769C38.5375 33.2867 38.5331 33.2116 38.5613 33.1559C38.6089 33.0615 38.7538 33.0164 38.9637 33.0443C41.3932 33.3661 43.9591 33.2395 46.5206 32.6323C44.5908 30.8579 42.4187 29.5084 40.1471 28.6072C39.9545 28.53 39.8464 28.4205 39.8507 28.3133C39.8507 28.2489 39.894 28.1824 39.9783 28.1244C40.199 27.9743 40.6339 27.9249 40.9476 28.0408C43.4118 28.9462 45.7786 30.358 47.8836 32.2611C50.6096 31.4329 53.3031 30.0555 55.7954 28.1674C56.1178 27.9249 56.5483 28.0172 56.7538 28.3948C56.9593 28.7746 56.8642 29.2895 56.5288 29.5212C54.1036 31.2334 51.5204 32.4864 48.9156 33.2503C50.8043 35.1834 52.4355 37.5329 53.6882 40.217C53.8569 40.5818 53.6904 41.0838 53.3247 41.3134C52.9505 41.5408 52.5264 41.4057 52.3728 41.0409C51.1548 38.1701 49.4846 35.6555 47.5202 33.6107C44.7423 34.2458 41.9795 34.3338 39.3791 33.9111L39.3855 33.9154Z" fill="#BB573E"/>
<path d="M24.317 39.6656C24.317 39.333 24.5074 38.9447 24.7216 38.7923C24.8017 38.7344 24.8752 38.7194 24.9358 38.7408C25.0353 38.7795 25.1067 38.9039 25.1132 39.112C25.1932 41.5408 25.7449 44.0297 26.7747 46.4349C28.2199 44.2529 29.2238 41.912 29.7495 39.5412C29.7949 39.3395 29.8836 39.2193 29.9918 39.2064C30.0567 39.1979 30.1281 39.23 30.1973 39.3051C30.3812 39.4897 30.498 39.9038 30.4375 40.2342C29.9507 42.7939 28.9144 45.345 27.3697 47.7137C28.6418 50.2434 30.4353 52.655 32.7307 54.7856C33.025 55.0538 33.0055 55.4958 32.6593 55.764C32.3154 56.0257 31.7831 56.0064 31.4954 55.7232C29.3947 53.627 27.744 51.299 26.5541 48.8788C24.9444 51.0458 22.8805 53.0305 20.4163 54.7019C20.0767 54.9401 19.5531 54.85 19.2632 54.5238C18.9733 54.1998 19.036 53.7664 19.3779 53.5519C22.0367 51.8805 24.2565 49.8379 25.9656 47.5785C24.8752 44.9652 24.33 42.2725 24.3214 39.6656H24.317Z" fill="#BB573E"/>
<path d="M36.3956 54.2127C36.3372 53.3523 36.4216 52.4877 36.6055 51.6702C36.7937 50.8592 37.0663 50.061 37.4146 49.3379C38.1069 47.8682 39.0351 46.6216 40.2293 45.6561L35.1019 37.9877C34.9959 37.829 34.9331 37.6638 34.9158 37.5286C34.8964 37.3891 34.918 37.2775 34.9937 37.2239C35.143 37.1166 35.4545 37.2818 35.6839 37.5822L41.2548 44.9416C42.5637 44.1542 44.0586 43.7079 45.6834 43.5513C47.2887 43.3989 49.0346 43.5405 50.6291 44.2185C50.9839 44.3687 51.1115 44.8193 50.8908 45.2141C50.6702 45.611 50.2093 45.802 49.861 45.6261C48.5976 45.0017 47.1956 44.83 45.8521 44.9202C44.5021 45.0146 43.23 45.39 42.092 46.0487L44.5108 49.2457C44.7444 49.5503 44.6384 50.0052 44.275 50.2627C44.0932 50.3893 43.8855 50.4429 43.6952 50.4215C43.5026 50.3957 43.3339 50.3013 43.2279 50.1425L40.9995 46.8104C39.9913 47.6622 39.2017 48.7243 38.6586 49.9559C38.5223 50.2605 38.4055 50.5781 38.306 50.9042C38.2065 51.2303 38.1221 51.5543 38.0615 51.8912C37.9404 52.5628 37.9079 53.2644 37.9966 53.9638C38.0464 54.3415 37.7132 54.7148 37.2589 54.7899C36.8067 54.8693 36.4173 54.5925 36.3935 54.2149L36.3956 54.2127Z" fill="#BB573E"/>
<path d="M56.0291 27.9764H47.9312C47.5483 27.9764 47.2303 27.7297 47.2216 27.4293C47.1805 26.0325 46.988 24.64 46.6353 23.2883L40.1904 24.9425C39.8182 25.0348 39.4743 24.9704 39.4245 24.7966C39.3812 24.6207 39.6257 24.3868 39.9892 24.2688L46.3238 22.2391C45.8889 20.911 45.3048 19.6322 44.5843 18.4307C44.4329 18.171 44.5541 17.8041 44.8786 17.596L51.7973 13.2211C52.1175 13.0173 52.5892 13.1568 52.8228 13.5516C53.0543 13.9464 52.9678 14.4205 52.6324 14.6029L46.0728 18.2311C46.7132 19.3704 47.2411 20.572 47.6456 21.8121L50.8389 20.7887C51.2045 20.6685 51.6026 20.8745 51.7065 21.2521C51.8146 21.6297 51.5983 22.0116 51.2283 22.1039L47.981 22.9385C48.3098 24.2023 48.5132 25.4961 48.5868 26.7985L55.9793 26.3758C56.1697 26.3651 56.3514 26.4444 56.4855 26.5861C56.6154 26.7277 56.6997 26.9293 56.7062 27.1546C56.7192 27.6074 56.4142 27.9743 56.0291 27.9721V27.9764Z" fill="#BB573E"/>
<path d="M34.0742 18.156C33.9899 18.1088 33.9553 17.993 33.9617 17.8449C33.9661 17.7011 34.0158 17.5231 34.111 17.345L41.43 3.69471C41.5252 3.51877 41.6961 3.40077 41.8995 3.36C42.1007 3.32138 42.33 3.36 42.542 3.47801C42.9661 3.71831 43.1327 4.19249 42.9163 4.53579L34.7601 17.7119C34.548 18.0487 34.2408 18.2504 34.0742 18.156Z" fill="#BB573E"/>
<path d="M35.3767 19.0164C35.2295 18.892 35.2858 18.5487 35.5216 18.2204L44.6557 5.69011C44.8894 5.36613 45.4065 5.32107 45.7872 5.62146C47.2432 6.73502 48.5889 7.9859 49.8004 9.35479C50.1206 9.71954 50.1206 10.2216 49.8091 10.4748C49.4954 10.728 49.0021 10.655 48.7014 10.3117C47.7322 9.22176 46.6764 8.2069 45.5471 7.28L36.1187 18.6688C35.8613 18.9778 35.5259 19.1344 35.3767 19.0143V19.0164Z" fill="#BB573E"/>
<path d="M17.4762 22.0374C17.8137 22.0932 18.162 22.3421 18.2788 22.5759C18.3243 22.6661 18.3286 22.7411 18.3005 22.7969C18.2529 22.8913 18.1079 22.9364 17.898 22.9085C15.4685 22.5867 12.9026 22.7133 10.3411 23.3205C12.2709 25.0949 14.443 26.4444 16.7146 27.3456C16.9072 27.4228 17.0154 27.5323 17.011 27.6395C17.011 27.7039 16.9678 27.7704 16.8834 27.8284C16.6627 27.9785 16.2279 28.0279 15.9142 27.912C13.45 27.0066 11.0831 25.5948 8.9781 23.6916C6.25213 24.5198 3.55863 25.8973 1.06632 27.7854C0.743961 28.0279 0.313432 27.9356 0.107904 27.558C-0.0976253 27.1782 -0.002433 26.6633 0.332904 26.4316C2.75814 24.7194 5.34132 23.4664 7.94613 22.7025C6.05742 20.7694 4.42617 18.4199 3.17353 15.7358C3.00478 15.371 3.17137 14.869 3.53699 14.6394C3.91127 14.412 4.33531 14.5471 4.48891 14.9119C5.70694 17.7827 7.37713 20.2973 9.34156 22.3421C12.1194 21.707 14.8822 21.619 17.4827 22.0417L17.4762 22.0374Z" fill="#BB573E"/>
<path d="M32.5447 16.2872C32.5447 16.6198 32.3543 17.0081 32.1401 17.1605C32.0601 17.2184 31.9865 17.2334 31.9259 17.212C31.8264 17.1733 31.755 17.0489 31.7485 16.8408C31.6685 14.412 31.1168 11.9231 30.087 9.51785C28.6418 11.6999 27.638 14.0408 27.1122 16.4116C27.0668 16.6133 26.9781 16.7335 26.8699 16.7464C26.805 16.7549 26.7336 16.7228 26.6644 16.6477C26.4805 16.4631 26.3637 16.049 26.4242 15.7186C26.911 13.1589 27.9473 10.6078 29.492 8.23908C28.2199 5.70942 26.4264 3.29778 24.131 1.1672C23.8367 0.899004 23.8562 0.457011 24.2024 0.188812C24.5464 -0.0729502 25.0786 -0.0536398 25.3663 0.229579C27.467 2.32582 29.1178 4.65379 30.3077 7.07402C31.9173 4.90697 33.9812 2.9223 36.4454 1.25088C36.7851 1.01272 37.3086 1.10284 37.5985 1.42897C37.8884 1.75295 37.8257 2.18636 37.4839 2.40092C34.825 4.07234 32.6053 6.11494 30.8961 8.37425C31.9865 10.9876 32.5317 13.6803 32.5404 16.2872H32.5447Z" fill="#BB573E"/>
<path d="M20.4661 1.74008C20.5245 2.60046 20.4401 3.46513 20.2562 4.28261C20.068 5.09364 19.7954 5.8918 19.4471 6.61272C18.7548 8.08245 17.8267 9.32904 16.6324 10.2946L21.7598 17.9629C21.8658 18.1217 21.9286 18.2869 21.9459 18.4221C21.9654 18.5615 21.9437 18.6731 21.868 18.7267C21.7187 18.834 21.4072 18.6688 21.1779 18.3684L15.6069 11.009C14.298 11.7965 12.8031 12.2428 11.1783 12.3994C9.57305 12.5517 7.82713 12.4101 6.23266 11.7321C5.87786 11.5819 5.75021 11.1313 5.97088 10.7366C6.19156 10.3396 6.65238 10.1487 7.00069 10.3246C8.26415 10.949 9.66608 11.1206 11.0096 11.0305C12.3596 10.9361 13.6317 10.5606 14.7697 9.90192L12.3509 6.70498C12.1173 6.40031 12.2233 5.94544 12.5868 5.68797C12.7685 5.56138 12.9762 5.50774 13.1666 5.5292C13.3591 5.55494 13.5279 5.64935 13.6339 5.80812L15.8622 9.14023C16.8704 8.28843 17.6601 7.22636 18.2031 5.99479C18.3394 5.69011 18.4562 5.37257 18.5557 5.04644C18.6553 4.72031 18.7396 4.39632 18.8002 4.05946C18.9214 3.38789 18.9538 2.68628 18.8651 1.98682C18.8154 1.6092 19.1485 1.23586 19.6029 1.16077C20.055 1.08138 20.4444 1.35816 20.4682 1.73579L20.4661 1.74008Z" fill="#BB573E"/>
<path d="M101.694 29.7594C101.694 29.7594 101.683 29.7594 101.676 29.7594C101.676 29.7594 101.687 29.7594 101.694 29.7594Z" fill="#BB573E"/>
<path d="M109.694 28.487C107.039 28.9419 104.374 29.3775 101.694 29.7594C104.353 29.429 107.015 29.0106 109.694 28.5579V28.487Z" fill="#BB573E"/>
<path d="M106.55 29.1479C104.967 29.3861 103.359 29.6264 101.743 29.8323L101.884 29.9804C103.5 29.7208 105.073 29.4311 106.552 29.1479H106.55Z" fill="#BB573E"/>
<path d="M109.694 28.8432V28.8261C107.545 29.2187 105.414 29.6028 103.299 29.9396C102.922 30.0147 102.552 30.0898 102.18 30.1649C104.646 29.8474 107.204 29.3281 109.694 28.8432Z" fill="#BB573E"/>
<path d="M103.299 29.9418C104.594 29.6929 105.968 29.4526 107.612 29.1651C106.689 29.3002 105.421 29.4869 104.144 29.6736C103.402 29.7916 102.658 29.9074 101.914 30.0147L102.026 30.1349C102.45 30.0705 102.872 30.0083 103.296 29.9418H103.299Z" fill="#BB573E"/>
<path d="M115.762 27.4851C116.926 27.2641 118.066 27.0366 119.196 26.792C117.724 27.071 116.251 27.352 114.778 27.6331V27.661C115.107 27.6009 115.433 27.543 115.764 27.4851H115.762Z" fill="#BB573E"/>
<path d="M115.656 27.4379C115.364 27.4915 115.07 27.543 114.776 27.5945V27.6245C115.081 27.5602 115.379 27.4958 115.656 27.4379Z" fill="#BB573E"/>
<path d="M75.7468 26.099C75.1 25.8072 74.4553 25.5261 73.8084 25.2493V25.3416C74.4855 25.5884 75.1627 25.833 75.7468 26.099Z" fill="#BB573E"/>
<path d="M119.537 26.7191L119.196 26.792C119.31 26.7706 119.425 26.747 119.537 26.7255V26.7169V26.7191Z" fill="#BB573E"/>
<path d="M119.537 26.7534V26.7362C119.442 26.7598 119.425 26.7706 119.537 26.7534Z" fill="#BB573E"/>
<path d="M77.35 26.8049V26.7684C76.1644 26.29 75.0005 25.8158 73.8084 25.348V25.4854C74.981 25.9038 76.1622 26.35 77.35 26.8049Z" fill="#BB573E"/>
<path d="M73.8107 0.00469061H68.7287V22.3253C68.7828 22.3382 68.8369 22.3489 68.891 22.3639C70.5395 22.9003 72.173 23.5333 73.8107 24.2091V0.00469061ZM71.617 19.9351C71.2557 19.8429 70.8965 19.7635 70.5309 19.6948C70.36 19.5747 70.1177 19.4609 69.8299 19.3494C70.4465 19.5167 71.0242 19.7399 71.6148 19.9351H71.617Z" fill="#BB573E"/>
<path d="M73.8105 24.8181V24.2817C72.1144 23.6359 70.4009 23.0222 68.7286 22.4343V23.0973C70.124 23.4964 71.5238 23.9663 72.93 24.4834C73.2242 24.5907 73.5185 24.7065 73.8127 24.8181H73.8105Z" fill="#BB573E"/>
<path d="M71.0694 24.5585C71.9803 24.8438 72.8932 25.1592 73.8084 25.4875V25.3502C73.7132 25.3116 73.618 25.2751 73.5206 25.2365C73.6158 25.2708 73.7132 25.3073 73.8084 25.3416V25.2493C72.1166 24.5263 70.4291 23.8697 68.7264 23.3011V34.617H73.8084V26.29C72.7807 25.8802 71.7509 25.4789 70.7081 25.097C69.1829 24.5713 67.1947 23.3398 71.0694 24.5585Z" fill="#BB573E"/>
<path d="M111.892 28.427C111.154 28.5621 110.425 28.693 109.694 28.8282V28.8454C110.434 28.7016 111.169 28.56 111.892 28.4291V28.427Z" fill="#BB573E"/>
<path d="M109.694 29.2723V34.6192H114.776V28.1438C113.973 28.3218 113.175 28.5021 112.387 28.6887C111.797 28.8218 110.801 29.0385 109.694 29.2745V29.2723Z" fill="#BB573E"/>
<path d="M111.701 27.3628C112.733 27.2254 113.757 27.0752 114.778 26.9143V0.00429119H109.696V27.6138C110.369 27.5516 111.039 27.4872 111.704 27.4078C111.684 27.3971 111.552 27.3949 111.704 27.3628H111.701Z" fill="#BB573E"/>
<path d="M111.509 28.2467L111.132 28.3176L111.881 28.1824C112.842 28.0107 113.806 27.8369 114.774 27.6631V27.6353C114.626 27.6631 114.481 27.691 114.334 27.7189C114.486 27.6867 114.629 27.6567 114.774 27.6267V27.5966C113.084 27.8992 111.39 28.1995 109.692 28.4892V28.56C110.297 28.457 110.901 28.3562 111.509 28.2489V28.2467Z" fill="#BB573E"/>
<path d="M89.275 30.2078C92.1459 30.8172 95.0709 31.0746 97.9223 30.7592C97.5307 30.7828 97.1154 30.7936 96.6783 30.7979C96.2435 30.8193 95.8065 30.8021 95.3651 30.7807C94.9216 30.7678 94.4716 30.7528 94.0194 30.7378C93.5673 30.7206 93.1194 30.6562 92.6716 30.6176C92.2259 30.5661 91.7759 30.5425 91.3454 30.4631C90.9149 30.3838 90.493 30.3065 90.0819 30.2293C89.2577 30.0898 88.5178 29.8366 87.8644 29.6156C90.3502 30.2572 92.9247 30.6927 95.5382 30.7163C96.1829 30.7592 96.8601 30.7077 97.5113 30.6734C98.1581 30.6133 98.8093 30.5661 99.4476 30.4782C100.309 30.3773 101.168 30.2572 102.026 30.1284L101.914 30.0083C100.966 30.1477 100.017 30.2765 99.069 30.3773C100.021 30.2615 100.958 30.122 101.884 29.9739L101.743 29.8259C101.57 29.8474 101.399 29.8752 101.224 29.8967C99.4303 30.1027 97.6346 30.3451 95.8173 30.2872C92.438 30.2572 89.0803 29.5963 85.8718 28.5922C82.9404 27.6825 80.1322 26.4852 77.35 25.2772V26.1977C78.5226 26.6676 79.7038 27.1418 80.9002 27.6009C83.6089 28.6394 86.4041 29.5942 89.275 30.2035V30.2078Z" fill="#BB573E"/>
<path d="M99.0343 31.5231L97.5718 31.7591C97.0764 31.8277 96.5377 31.8814 96.025 31.9243L94.5149 31.9758L93.7079 31.9844L92.9096 31.9329C92.3774 31.8943 91.843 31.8599 91.313 31.8084C90.2702 31.6432 89.2036 31.5231 88.1846 31.272C86.112 30.8515 84.1303 30.2207 82.1723 29.5513C80.5368 28.9784 78.9401 28.3476 77.35 27.7082V34.6149H106.245L102.647 30.7914C101.923 30.948 101.196 31.1025 100.464 31.2506L99.0322 31.5209L99.0343 31.5231Z" fill="#BB573E"/>
<path d="M80.0716 25.8029C80.0694 25.687 78.105 24.8202 79.2819 25.2408C81.4432 25.9617 83.2411 26.6955 84.7706 27.1761C85.53 27.4357 86.2223 27.6224 86.8411 27.749C87.1505 27.8155 87.4404 27.867 87.713 27.9035C87.9877 27.9313 88.243 27.9356 88.481 27.9271C88.574 27.912 88.3512 27.7876 87.992 27.6138C87.6307 27.425 87.1505 27.1739 86.7026 26.9379C85.8069 26.4766 85.0887 25.9831 85.8545 26.2234C87.1267 26.6075 89.381 27.3692 91.8581 27.7983C92.5678 27.9442 93.3098 28.0558 94.08 28.1888C94.1752 28.206 94.3396 28.1931 94.5452 28.1802C95.2137 28.2231 95.9038 28.3347 96.5226 28.339C97.1305 28.369 97.7774 28.3497 98.3723 28.3433C99.0733 28.3261 99.7158 28.3025 100.285 28.2811L100.222 28.2146C100.166 28.2146 100.114 28.2146 100.058 28.2167C99.863 28.2425 99.4454 28.2596 99.056 28.3154C98.8137 28.2939 98.5627 28.2725 98.3031 28.2489C98.9283 28.2382 99.5644 28.221 100.205 28.1974L98.3312 26.2063C99.3437 25.7128 100.417 24.9039 101.55 23.7796C104.3 21.0526 105.676 17.772 105.676 13.9356C105.676 10.0993 104.3 6.8187 101.55 4.09165C98.8007 1.3646 95.4538 0 91.5098 0H77.3456V22.2069C77.6161 22.3249 77.8843 22.4429 78.1548 22.5609C77.9968 22.5373 78.0964 22.6382 78.0964 22.6832C77.8454 22.5609 77.5966 22.4322 77.3456 22.3056V24.8975L79.349 25.6742C79.6259 25.7364 79.8704 25.7836 80.0673 25.8008L80.0716 25.8029ZM88.3988 26.7212C90.1706 27.2726 91.9706 27.6717 93.8053 27.9528V27.9635C92.3341 27.749 90.5536 27.3971 88.9331 26.8821C87.3084 26.4144 85.8286 25.8823 84.8788 25.6913C84.3682 25.3974 83.7798 25.0713 83.1329 24.7473C84.8831 25.5047 86.6269 26.1548 88.3988 26.7212Z" fill="#BB573E"/>
<path d="M80.8851 28.1566C80.898 28.1566 80.911 28.1566 80.9197 28.1566C79.6714 27.6975 78.4988 27.2319 77.35 26.7706V26.807C78.5204 27.2555 79.6952 27.7082 80.8851 28.1566Z" fill="#BB573E"/>
<path d="M77.35 24.9146V25.1421C78.0271 25.3287 78.7389 25.5369 79.323 25.6699C78.7 25.4467 78.0358 25.1893 77.35 24.9146Z" fill="#BB573E"/>
<path d="M83.3125 29.3174C83.9009 29.5084 84.4872 29.7015 85.0822 29.8795C84.4678 29.6972 83.8815 29.5105 83.3125 29.3174C82.2372 28.9677 81.1706 28.6051 80.1279 28.2167C82.155 28.9526 84.3142 29.7336 86.6291 30.3237C88.9353 30.918 91.367 31.36 93.8182 31.4737C94.7226 31.4737 95.5404 31.6218 96.5009 31.6282C96.9877 31.6282 97.4983 31.611 98.0089 31.5338C98.5324 31.4694 99.0906 31.3643 99.6877 31.2034C98.9283 31.3192 98.1387 31.3965 97.349 31.4716L96.105 31.5295L94.8956 31.4909C94.4911 31.4737 94.0865 31.4651 93.6819 31.4394L92.4769 31.2999C92.0767 31.2463 91.6678 31.2162 91.2719 31.1411L90.0798 30.9159C86.9017 30.2894 83.8404 29.2595 80.8851 28.1566C80.4459 28.1502 78.8839 27.4615 78.118 27.2748C79.9288 28.0644 81.5384 28.7188 83.3103 29.3174H83.3125Z" fill="#BB573E"/>
<path d="M101.676 29.7615C100.579 29.8989 99.4822 30.0147 98.3831 30.1005C97.2819 30.1885 96.1591 30.2271 95.0579 30.1306C93.9502 30.0984 92.8598 29.9182 91.7673 29.7744C90.6877 29.5556 89.6038 29.3689 88.548 29.0621C90.8067 29.7551 93.273 30.2443 95.8173 30.2936C97.8098 30.3172 99.7418 30.0147 101.676 29.7615Z" fill="#BB573E"/>
<path d="M128.393 23.623L128.386 23.6187C129.857 23.0351 131.335 22.4 132.83 21.7628C133.083 21.6769 133.327 21.6018 133.559 21.5375C133.916 21.3444 134.303 21.1727 134.48 21.074C135.686 20.5934 136.715 20.2265 137.758 19.8703C137.936 19.7738 138.254 19.5442 138.649 19.3854C139.452 19.0765 140.227 18.7782 140.984 18.4886C141.899 18.1732 142.838 17.8728 143.812 17.6175C144.625 17.4093 145.449 17.227 146.289 17.0875C145.785 16.2464 145.17 15.4483 144.419 14.7038C142.879 13.1761 141.473 12.247 140.205 11.9166C140.205 11.9016 140.402 11.6999 140.793 11.3094C142.109 10.007 142.764 8.4472 142.764 6.63418C142.764 4.82115 142.107 3.26345 140.793 1.95893C139.48 0.656552 137.871 0.00429119 135.967 0.00429119H119.535V26.0561C120.098 25.9488 120.656 25.8351 121.214 25.7171C123.404 25.215 126.333 24.5198 128.39 23.623H128.393Z" fill="#BB573E"/>
<path d="M119.537 26.1012V26.1076C119.646 26.0818 119.762 26.0539 119.881 26.0261C119.765 26.0518 119.65 26.0775 119.537 26.1012Z" fill="#BB573E"/>
<path d="M119.769 26.6826C120.07 26.6139 120.485 26.5174 120.665 26.4766L119.535 26.7191V26.7277C119.613 26.7126 119.691 26.6976 119.767 26.6826H119.769Z" fill="#BB573E"/>
<path d="M138.055 22.0224C136.404 22.5952 134.76 23.1402 133.135 23.6573C131.324 24.2474 129.546 24.8224 127.763 25.333C125.961 25.848 124.18 26.1677 122.445 26.5324C121.465 26.7298 120.498 26.9272 119.537 27.1267V34.617H135.969C139.277 34.617 142.087 33.4713 144.4 31.1776C146.713 28.884 147.868 26.1355 147.868 22.93C147.868 21.5997 147.658 20.3552 147.264 19.1859C145.841 19.4477 144.422 19.8467 143.02 20.3016C141.369 20.838 139.71 21.4602 138.057 22.0245L138.055 22.0224Z" fill="#BB573E"/>
<path d="M134.372 22.842C135.043 22.6103 135.716 22.3764 136.365 22.1232C135.716 22.3571 135.043 22.5995 134.372 22.842Z" fill="#BB573E"/>
<path d="M119.537 26.7534C119.611 26.7427 119.734 26.7212 119.938 26.6847C121.439 26.4144 122.997 26.1054 124.606 25.7536C125.411 25.5776 126.229 25.3974 127.058 25.1743C127.873 24.9425 128.704 24.7065 129.554 24.4662C130.439 24.2152 131.616 23.8268 132.873 23.3784C133.226 23.2861 133.401 23.211 133.555 23.1338C133.825 23.0351 134.1 22.9364 134.372 22.8377C134.121 22.9257 133.87 23.0115 133.622 23.0995C133.784 23.0158 133.955 22.9235 134.325 22.7948C132.006 23.5715 129.645 24.3739 127.22 25.0734C126 25.4146 124.758 25.6656 123.516 25.9295C122.27 26.1784 121.022 26.4294 119.769 26.6783C119.674 26.6998 119.594 26.7191 119.537 26.7341V26.7513V26.7534Z" fill="#BB573E"/>
<path d="M175.848 4.09594C173.098 1.36889 169.751 0.00429119 165.807 0.00429119C161.863 0.00429119 158.517 1.36889 155.767 4.09594C153.017 6.82299 151.641 10.1057 151.641 13.9399V17.0467C152.502 17.2227 153.344 17.5059 154.116 17.8771C154.205 17.9565 154.211 18.008 154.218 18.0595C154.741 18.2311 155.358 18.6538 155.769 18.8748C155.685 18.8405 155.628 18.8254 155.628 18.8512C156.942 19.6215 157.078 19.8918 158.112 20.6685C158.348 20.8337 158.588 20.9646 158.826 21.1148C158.938 21.1963 159.051 21.28 159.166 21.3615C160.262 22.3099 161.532 22.9686 162.991 23.6273C164.44 24.3074 165.976 24.8374 167.553 25.2408C168.806 25.5497 169.288 25.6828 170.173 25.8394C168.298 25.5454 166.301 25.0927 164.401 24.4212C162.495 23.7582 160.728 22.8484 159.142 21.943C160.027 22.548 161.041 23.1445 162.101 23.6444C163.162 24.1465 164.263 24.5477 165.269 24.8717C167.292 25.4982 168.942 25.7536 169.249 25.848C169.405 25.8909 169.113 25.8716 168.536 25.79C167.956 25.7214 167.095 25.5776 166.117 25.3566C165.141 25.1313 164.055 24.8116 163.032 24.4297C162.011 24.0392 161.054 23.5887 160.293 23.1982C160.554 23.3498 160.815 23.5021 161.076 23.6552C160.684 23.4256 160.288 23.2067 159.921 23.0372C160.676 23.5457 162.279 24.2881 162.733 24.5177L161.948 24.2881C162.993 24.8159 164.598 25.3523 166.24 25.672C167.618 25.951 169.012 26.0775 170.106 26.129C170.305 26.1376 170.504 26.1484 170.701 26.1526C170.517 26.1484 170.316 26.1398 170.106 26.129C167.452 26.0218 164.548 25.509 161.69 24.3053C160.159 23.6638 158.666 22.8077 157.242 21.8615C155.817 20.926 154.438 19.9304 152.909 19.4026C152.496 19.2589 152.072 19.1494 151.639 19.07V34.6192H179.967V13.9421C179.967 10.1057 178.591 6.82513 175.844 4.09808L175.848 4.09594Z" fill="#BB573E"/>
</svg>
