<svg width="21" height="21" viewBox="0 0 21 21" fill="none" xmlns="http://www.w3.org/2000/svg">
<path d="M0.0109863 5.80908H4.38599V20.1841H0.0109863V5.80908ZM15.0129 5.80908C12.511 5.80908 11.8172 6.62908 11.261 7.68408V5.80908H6.88599V20.1841H11.261V12.0591C11.261 10.8091 11.261 9.55908 13.4485 9.55908C15.636 9.55908 15.636 10.8091 15.636 12.0591V20.1841H20.011V12.0591C20.011 8.30908 19.386 5.80908 15.0129 5.80908Z" fill="#969696"/>
<path d="M2.19849 4.55908C3.40661 4.55908 4.38599 3.5797 4.38599 2.37158C4.38599 1.16346 3.40661 0.184082 2.19849 0.184082C0.990363 0.184082 0.0109863 1.16346 0.0109863 2.37158C0.0109863 3.5797 0.990363 4.55908 2.19849 4.55908Z" fill="#969696"/>
</svg>
