<svg width="21" height="17" viewBox="0 0 21 17" fill="none" xmlns="http://www.w3.org/2000/svg">
<path d="M20.4845 1.98221C19.736 2.3147 18.9417 2.53236 18.1283 2.62784C18.9848 2.1153 19.6261 1.30905 19.9326 0.359086C19.1273 0.836782 18.2463 1.1733 17.3276 1.35409C16.9436 0.944647 16.4795 0.618441 15.9642 0.395683C15.4489 0.172924 14.8934 0.0583587 14.332 0.0590855C13.7934 0.0590855 13.26 0.165188 12.7624 0.371334C12.2647 0.577481 11.8126 0.879632 11.4318 1.26053C11.0509 1.64144 10.7488 2.09363 10.5428 2.59129C10.3367 3.08895 10.2307 3.62232 10.2308 4.16096C10.2308 4.48221 10.2664 4.79596 10.3364 5.09596C6.927 4.92471 3.9045 3.29159 1.88075 0.809711C1.51634 1.43592 1.32481 2.14769 1.32575 2.87221C1.32523 3.54763 1.49148 4.21273 1.80974 4.80847C2.12799 5.4042 2.58842 5.91215 3.15013 6.28721C2.49893 6.26656 1.86209 6.09063 1.29263 5.77409L1.292 5.82534C1.29207 6.77263 1.61976 7.69075 2.21951 8.42401C2.81926 9.15727 3.65416 9.66053 4.58263 9.84846C3.97866 10.012 3.34542 10.0362 2.73075 9.91908C2.99291 10.7339 3.50308 11.4465 4.18998 11.9573C4.87688 12.468 5.70618 12.7514 6.562 12.7678C5.10937 13.9085 3.31522 14.5273 1.46825 14.5247C1.137 14.5247 0.810127 14.5053 0.489502 14.4672C2.36546 15.6717 4.5483 16.311 6.77763 16.3091C14.3226 16.3091 18.4495 10.0585 18.4495 4.63721C18.4495 4.45971 18.4445 4.28221 18.437 4.10596C19.2405 3.52563 19.9339 2.80641 20.4845 1.98221Z" fill="#969696"/>
</svg>
