<svg width="23" height="17" viewBox="0 0 23 17" fill="none" xmlns="http://www.w3.org/2000/svg">
<path d="M20.1875 16.9937H2.6875C2.10734 16.9937 1.55094 16.7632 1.1407 16.3529C0.730468 15.9427 0.5 15.3863 0.5 14.8062V2.55615C0.5 1.97599 0.730468 1.41959 1.1407 1.00936C1.55094 0.59912 2.10734 0.368652 2.6875 0.368652H20.1875C20.7677 0.368652 21.3241 0.59912 21.7343 1.00936C22.1445 1.41959 22.375 1.97599 22.375 2.55615V14.8062C22.375 15.3863 22.1445 15.9427 21.7343 16.3529C21.3241 16.7632 20.7677 16.9937 20.1875 16.9937ZM2.6875 1.24365C2.3394 1.24365 2.00556 1.38193 1.75942 1.62807C1.51328 1.87422 1.375 2.20806 1.375 2.55615V14.8062C1.375 15.1542 1.51328 15.4881 1.75942 15.7342C2.00556 15.9804 2.3394 16.1187 2.6875 16.1187H20.1875C20.5356 16.1187 20.8694 15.9804 21.1156 15.7342C21.3617 15.4881 21.5 15.1542 21.5 14.8062V2.55615C21.5 2.20806 21.3617 1.87422 21.1156 1.62807C20.8694 1.38193 20.5356 1.24365 20.1875 1.24365H2.6875Z" fill="#A2A4A7"/>
<path d="M11.4375 10.7462C10.9481 10.7454 10.4779 10.5558 10.125 10.2168L1.51063 1.99615C1.43679 1.91405 1.39673 1.80707 1.39848 1.69667C1.40023 1.58627 1.44366 1.48061 1.52006 1.40089C1.59645 1.32117 1.70017 1.27329 1.8104 1.26685C1.92062 1.2604 2.02921 1.29588 2.11437 1.36615L10.7287 9.58678C10.9194 9.76967 11.1733 9.87179 11.4375 9.87179C11.7017 9.87179 11.9556 9.76967 12.1462 9.58678L20.7606 1.36615C20.8458 1.29588 20.9544 1.2604 21.0646 1.26685C21.1748 1.27329 21.2785 1.32117 21.3549 1.40089C21.4313 1.48061 21.4748 1.58627 21.4765 1.69667C21.4783 1.80707 21.4382 1.91405 21.3644 1.99615L12.75 10.2168C12.3971 10.5558 11.9269 10.7454 11.4375 10.7462Z" fill="#A2A4A7"/>
</svg>
