<svg width="20" height="21" viewBox="0 0 20 21" fill="none" xmlns="http://www.w3.org/2000/svg">
<path fill-rule="evenodd" clip-rule="evenodd" d="M11.389 7.0687C10.516 7.38637 9.96433 8.2057 10.027 9.10237L10.048 9.44837L9.69867 9.40603C8.42767 9.2437 7.317 8.69303 6.374 7.7677L5.913 7.3087L5.79433 7.6477C5.543 8.4037 5.70367 9.20137 6.22733 9.73803C6.50667 10.0347 6.44367 10.077 5.962 9.90037C5.79433 9.84403 5.64767 9.8017 5.63367 9.8227C5.585 9.87237 5.75233 10.5147 5.885 10.769C6.06667 11.1224 6.43667 11.4684 6.842 11.673L7.18433 11.8354L6.77933 11.8424C6.38833 11.8424 6.37433 11.8494 6.41633 11.9977C6.556 12.4567 7.10767 12.944 7.72233 13.156L8.15533 13.304L7.77833 13.53C7.20796 13.8583 6.56426 14.038 5.90633 14.0527C5.59167 14.0597 5.33333 14.088 5.33333 14.109C5.33333 14.1797 6.18567 14.575 6.68133 14.7304C8.169 15.1894 9.93633 14.9917 11.2633 14.208C12.2063 13.65 13.149 12.5414 13.5893 11.468C13.827 10.896 14.0643 9.8507 14.0643 9.3497C14.0643 9.0247 14.0853 8.98237 14.4763 8.59403C14.707 8.3677 14.9233 8.12103 14.9653 8.05037C15.0353 7.91603 15.028 7.91603 14.672 8.0357C14.0783 8.24803 13.9943 8.2197 14.288 7.90203C14.5043 7.67603 14.763 7.26637 14.763 7.14603C14.763 7.12537 14.6583 7.16003 14.5393 7.2237C14.4137 7.29436 14.1343 7.40037 13.9247 7.4637L13.5477 7.58403L13.2053 7.3507C13.0167 7.2237 12.7517 7.08237 12.6117 7.04003C12.2553 6.9417 11.7103 6.9557 11.389 7.0687ZM0 0.974365H20V20.9744H0V0.974365Z" fill="#BB573E"/>
</svg>
