<svg width="23" height="24" viewBox="0 0 23 24" fill="none" xmlns="http://www.w3.org/2000/svg">
<path d="M17.5627 14.757C15.9794 14.6131 15.1158 16.7721 13.9643 17.3479C12.0932 18.3554 8.63875 14.757 8.63875 14.757C8.63875 14.757 5.04038 11.3026 5.90399 9.43144C6.62366 8.27996 8.78268 7.41635 8.63875 5.83307C8.49481 4.39372 5.32825 -0.787936 3.74496 0.651413C0.290524 3.81798 0.00265449 5.1134 0.00265449 7.70422C-0.14128 12.1662 5.61612 17.7797 5.61612 17.7797C6.19186 18.3554 11.2296 23.5371 15.6916 23.3931C18.2824 23.3931 19.5778 23.1053 22.7444 19.6508C24.1837 18.0675 19.146 14.901 17.5627 14.757Z" fill="white"/>
</svg>
