<svg width="29" height="20" viewBox="0 0 29 20" fill="none" xmlns="http://www.w3.org/2000/svg">
<path d="M4.42704 2.54119L12.8338 7.77204C13.2313 8.01937 13.7048 8.15204 14.19 8.15204C14.6752 8.15204 15.1487 8.01937 15.5462 7.77204L23.953 2.54119H4.42704ZM26.015 3.82428L16.9024 9.49429C16.1074 9.98895 15.1604 10.2543 14.19 10.2543C13.2196 10.2543 12.2726 9.98895 11.4776 9.49429L2.365 3.82428V16.2056C2.365 16.7862 2.89441 17.2567 3.5475 17.2567H24.8325C25.4856 17.2567 26.015 16.7862 26.015 16.2056V3.82428ZM3.5475 0.438965H24.8325C26.7918 0.438965 28.38 1.85071 28.38 3.5923V16.2056C28.38 17.9472 26.7918 19.359 24.8325 19.359H3.5475C1.58822 19.359 0 17.9472 0 16.2056V3.5923C0 1.85071 1.58822 0.438965 3.5475 0.438965Z" fill="white"/>
</svg>
